<svg xmlns="http://www.w3.org/2000/svg" width="1024" height="1024" xmlns:v="https://vecta.io/nano"><path d="M0 0h1024v1024H0V0z" fill="#e8dba4"/><path d="M551.3125 170.8125l2.48361206.25027466C564.96351891 172.21701294 575.97331254 173.89843312 587 176l3.02905273.55981445c34.70049249 6.67716356 69.40576489 21.51186548 99.19799805 40.32934571l5.67529297 3.46630859c17.2452851 10.44769003 33.85024283 22.76270441 47.8046875 37.37890625 1.97509037 1.95153733 3.99336428 3.75066661 6.09765625 5.55859375 4.08113846 3.5440843 7.82617004 7.31560983 11.5078125 11.26953125l1.96826172 2.11181641C768.25851553 283.16188111 773.74105558 289.92269627 779 297l1.53759766 2.05322266c53.33283731 71.48318 82.75303912 164.01369707 69.83764648 253.47998046-.75722111 4.91931477-1.61824968 9.81853674-2.50024414 14.71679688l-.46652222 2.62817383C843.63211481 591.06446119 839.26935083 612.05495327 831 632l-1.28515625 3.4140625C822.80114753 653.59526947 814.05842132 671.35045057 804 688l-1.34179688 2.22265625C788.20714924 713.97075303 771.46134945 736.75371031 751.75 756.4375l-1.69067383 1.69042969c-4.27335958 4.21571807-8.76339296 8.05350995-13.47338867 11.77832031-2.4941122 2.01940203-4.81327952 4.144079-7.1484375 6.34375-6.61456883 6.01610784-13.92648753 11.09089105-21.24023438 16.21142578l-4.04296874 2.85449219C695.58861237 801.4156491 686.55133884 806.63076883 677.375 811.75l-3.39428711 1.89794922C662.38015463 820.04104756 650.50031023 825.35988211 638.125 830.0625l-3.19921875 1.23632812C621.61928414 836.39133881 608.26967697 840.66544706 594.4375 844.0625l-2.09408569.51861572c-8.67601429 2.14243799-17.36569544 4.16971894-26.15591431 5.79388428l-2.32055664.43383789c-16.46515602 2.84884042-32.83625439 3.53908948-49.51611328 3.50683594-3.38485364-.00314735-6.7688187.02035651-10.15356446.04565429C482.8029846 854.42512046 461.78764539 852.2683233 440.875 847.75l-2.14657593-.45339966C418.16811118 842.9446384 398.49116463 836.85792448 379 829l-3.375-1.3359375C372.72651734 826.49049208 369.86138432 825.26126809 367 824l-3.65625-1.58984375C344.48488198 813.99549253 326.69291548 803.12189183 310 791l-3.1484375-2.2578125C287.05699676 774.24695432 267.6740625 756.91482294 252 738l-1.40966797-1.68701172c-6.86742489-8.2371052-13.38410784-16.55258764-19.34472656-25.47412109l-4.33544922-6.23730469c-6.91012228-9.85109802-13.13436724-19.84314697-18.76464844-30.4765625-1.07500838-1.99421845-2.19607446-3.95145529-3.34082031-5.90625-16.64257102-28.96874333-26.20972395-64.13179535-32.15527344-96.69384766l-1.29101562-6.69433593C164.4597162 530.5612804 165.49300337 492.26111572 172 458l.59960938-3.30761719c1.15074265-6.3104642 2.41059683-12.58869375 3.78125-18.85498047l1.69726562-8.03662109C188.07883579 381.29971838 210.81838239 338.94361951 239 301l1.35644531-1.83203125c12.80456936-17.14747581 28.14299132-33.66589585 44.57885742-47.38745117 1.49580729-1.28992817 2.95707227-2.62026797 4.39550782-3.97387696 6.66000893-6.26444477 13.57364216-11.48422421 21.23168945-16.49414062l1.74810791-1.15258789C383.88856073 183.0099184 465.87541231 162.18382484 551.3125 170.8125z" fill="#eee9c7"/><path d="M551.3125 170.8125l2.48361206.25027466C564.96351891 172.21701294 575.97331254 173.89843312 587 176l3.02905273.55981445c34.70049249 6.67716356 69.40576489 21.51186548 99.19799805 40.32934571l5.67529297 3.46630859c17.2452851 10.44769003 33.85024283 22.76270441 47.8046875 37.37890625 1.97509037 1.95153733 3.99336428 3.75066661 6.09765625 5.55859375 4.08113846 3.5440843 7.82617004 7.31560983 11.5078125 11.26953125l1.96826172 2.11181641C768.25851553 283.16188111 773.74105558 289.92269627 779 297l1.53759766 2.05322266c53.33283731 71.48318 82.75303912 164.01369707 69.83764648 253.47998046-.75722111 4.91931477-1.61824968 9.81853674-2.50024414 14.71679688l-.46652222 2.62817383C843.63211481 591.06446119 839.26935083 612.05495327 831 632l-1.28515625 3.4140625C822.80114753 653.59526947 814.05842132 671.35045057 804 688l-1.34179688 2.22265625C788.20714924 713.97075303 771.46134945 736.75371031 751.75 756.4375l-1.69067383 1.69042969c-4.27335958 4.21571807-8.76339296 8.05350995-13.47338867 11.77832031-2.4941122 2.01940203-4.81327952 4.144079-7.1484375 6.34375-6.61456883 6.01610784-13.92648753 11.09089105-21.24023438 16.21142578l-4.04296874 2.85449219C695.58861237 801.4156491 686.55133884 806.63076883 677.375 811.75l-3.39428711 1.89794922C662.38015463 820.04104756 650.50031023 825.35988211 638.125 830.0625l-3.19921875 1.23632812C621.61928414 836.39133881 608.26967697 840.66544706 594.4375 844.0625l-2.09408569.51861572c-8.67601429 2.14243799-17.36569544 4.16971894-26.15591431 5.79388428l-2.32055664.43383789c-16.46515602 2.84884042-32.83625439 3.53908948-49.51611328 3.50683594-3.38485364-.00314735-6.7688187.02035651-10.15356446.04565429C482.8029846 854.42512046 461.78764539 852.2683233 440.875 847.75l-2.14657593-.45339966C418.16811118 842.9446384 398.49116463 836.85792448 379 829l-3.375-1.3359375C372.72651734 826.49049208 369.86138432 825.26126809 367 824l-3.65625-1.58984375C344.48488198 813.99549253 326.69291548 803.12189183 310 791l-3.1484375-2.2578125C287.05699676 774.24695432 267.6740625 756.91482294 252 738l-1.40966797-1.68701172c-6.86742489-8.2371052-13.38410784-16.55258764-19.34472656-25.47412109l-4.33544922-6.23730469c-6.91012228-9.85109802-13.13436724-19.84314697-18.76464844-30.4765625-1.07500838-1.99421845-2.19607446-3.95145529-3.34082031-5.90625-16.64257102-28.96874333-26.20972395-64.13179535-32.15527344-96.69384766l-1.29101562-6.69433593C164.4597162 530.5612804 165.49300337 492.26111572 172 458l.59960938-3.30761719c1.15074265-6.3104642 2.41059683-12.58869375 3.78125-18.85498047l1.69726562-8.03662109C188.07883579 381.29971838 210.81838239 338.94361951 239 301l1.35644531-1.83203125c12.80456936-17.14747581 28.14299132-33.66589585 44.57885742-47.38745117 1.49580729-1.28992817 2.95707227-2.62026797 4.39550782-3.97387696 6.66000893-6.26444477 13.57364216-11.48422421 21.23168945-16.49414062l1.74810791-1.15258789C383.88856073 183.0099184 465.87541231 162.18382484 551.3125 170.8125zm-87.91699219 31.68798828l-8.40332031 1.15185547C416.45812551 208.94236134 378.7475044 224.7893108 345.75 244.9375l-3.265625 1.98901367C335.00361248 251.56360092 327.96812303 256.62847036 321 262l-3.671875 2.7578125C307.99320523 271.9366975 299.45068559 279.80708825 291 288l-1.82714844 1.76074219c-6.50166239 6.28506064-12.58795541 12.67839903-18.20800781 19.78222656-1.69042009 2.11386528-3.44133888 4.09632814-5.27734375 6.08203125C228.44312136 357.85823305 209.33081487 414.23822519 201 469l-.54394531 3.26538086C198.76310301 483.29587817 198.68682388 494.17485964 198.75 505.3125l.00939941 2.94155884c.25367594 67.77538075 17.50969835 133.49891299 58.95593262 188.04379272l3.62451172 4.91308594c4.45640809 6.09329612 9.19140421 11.74609756 14.328125 17.27734375 1.96635748 2.11786911 3.88057739 4.26272084 5.76953125 6.44921875C293.51488887 738.76851442 306.33402986 750.92354631 321 762l1.65039062 1.24902344C335.94962074 773.22746635 350.26299315 781.82218029 364.6875 790.0625l1.81201172 1.04711914c4.13493224 2.31838055 8.37880918 4.10800982 12.79418945 5.82568359 2.84708341 1.12008397 5.66133679 2.3026809 8.47583008 3.50219727 17.51703265 7.44477475 34.72582084 12.55699947 53.24804687 16.86181641l7.68554688 1.86865234c72.816423 17.86926501 157.80794697 1.70411372 221.50537109-36.81347656C694.9563536 766.97943539 719.3784712 748.45062767 738.375 726.1875c1.81163912-2.11091872 3.62920071-4.19194932 5.5390625-6.21484375C769.08294339 693.15412961 789.22111668 658.43540432 802 624l.9375-2.47851562c5.38908767-14.34634081 9.31218016-28.75441295 12.47363281-43.74414063L816.9296875 570.9375C817.73028948 567.30590337 818.40615141 563.66974539 819 560l.41015625-2.47119141C826.9590421 509.89771915 821.86774829 459.6773971 807 414l-.99951172-3.07324219C796.06212542 380.88976755 781.56131788 352.61893526 763 327l-2.265625-3.16015625C754.89724611 315.87153291 748.49497063 308.43103164 742 301l-2.00390625-2.3125-3.3203125-3.78515625-3.5703125-4.1484375c-38.04699415-44.11757206-99.01254247-74.23775483-155.27148437-85.32421875C576 205 576 205 574 204l-9.02734375-1.19140625-2.79721069-.33325195c-33.6012452-3.93277952-65.28367405-4.90330661-98.77993775.02514648z" fill="#1e1f24"/><path d="M372.484375 272.734375l3.66900635-.00579834 7.67572021.01068115 11.67871094-.01269531 7.4765625.0078125 3.49847412-.01226807c10.88156766.06230551 20.96280154.79025467 29.05230713 8.79742432 4.59602806 5.292802 5.75637828 8.8530005 5.77734375 15.85546875l.05078125 3.8984375C440.7817077 307.23925654 438.07959393 311.68042995 434 316c-1.64712219.71359003-3.31269424 1.38744675-5 2 2.64052728 20.94345729 5.47205707 41.8331535 8.9152832 62.66137695 1.31459902 8.01392271 2.38959353 15.96308088 3.11059571 24.05737305.71354116 10.28093127.71354116 10.28093127 6.22412109 18.65625L452 427c4.55081482 5.29497321 7.939023 11.41103214 11.1875 17.5625l.97290039 1.76196289c6.86142687 13.55446428 7.43167542 28.55967252 7.37304688 43.40722656l.02610778 5.74214173.01067853 15.43278908.00947208 12.93529934-.00328964 30.52160579.03122288 31.40201408.02548492 27.06633508.01778751 16.12057334-.0121994 15.14656448.01114845 5.53373147c.09663291 15.21087239-2.63765792 26.03854924-12.91939163 37.67194366-11.11261296 10.96953211-24.88157049 15.337851-40.14408875 15.31309509l-5.00434875-.05918884-5.25325012-.00706482-10.93986511-.06446838-13.94904614-.06373692-10.82273769-.03887653-5.1415062-.02016068c-17.05108795-.06495695-32.4570334-1.520509-45.28812599-13.98147392-9.39647299-10.2354438-13.29671358-22.10630813-13.32794189-35.89263916l-.00900341-2.22919059-.01168751-7.36352181-.01504517-5.29428101-.02401066-14.36987018-.01150417-8.99880505-.02720189-28.21429467-.0510006-32.45405007-.03304052-25.15259122-.02481961-14.98816133-.00986099-14.13416672-.01345826-5.14396667C308.48047992 467.07598611 313.48404272 441.85617207 333 422l2.7421875-2.30859375c2.93356441-3.49693059 3.10130921-6.49606834 3.3203125-10.87890625l.41796875-5.12890625.23193359-2.77783203c.51536668-5.20704094 1.34448897-10.36406397 2.16259766-15.53076172l.52368164-3.3347168L344 372l1.0078125-6.3046875 1.48510742-9.2487793 2.61254883-16.72387695.54882813-3.625 1.0390625-6.94921875.47460937-3.14453125.41479492-2.78686523C352 321 352 321 353 319l-2.1875-.625c-4.27987841-2.092385-6.76764644-5.34718317-8.93359375-9.55078125-1.16308654-3.73738473-1.24712939-7.32285607-1.25390625-11.19921875l-.07421875-2.2109375C340.52071025 289.8008091 341.76344245 286.60198027 345 282c2.1484375-2.14453125 2.1484375-2.14453125 4.375-3.8125l2.2109375-1.70703125c6.67928266-4.09619438 13.29768335-3.77256161 20.8984375-3.74609375z" fill="#1b1d24"/><path d="M474.306371688843 303.865778923035l2.67935979-.01350862 2.94624484.00055868 3.12780058-.01114148 10.42606294-.01868946 7.45472718-.01991272 22.40363592-.03872779 10.54778391-.01498887 35.05665779-.03874874 9.09627724-.00578594 2.28368933-.00146588 36.64479956-.0661148 37.61282011-.05427762 21.12224614-.03646117 19.86129952-.01723862 7.29859161-.01955604 9.94568825.00253295 2.93272531-.03324013c4.27292377.04122478 6.59487163.10381891 10.27265227 2.43428403l1.98056602 2.0867033 1.875 1.875c1.125 2.125 1.125 2.125 1.1875 4.9375-1.40338851 4.21016553-3.76230517 7.22870463-7.0625 10.1875h-2l-.68359375 1.65234375c-1.70787183 3.04578923-3.9871218 5.40065625-6.37890625 7.91015625-4.41764665 4.72482921-8.59060361 9.57700325-12.64453125 14.62109375-1.99930701 2.45570759-4.04951067 4.85613949-6.12451172 7.24780273-4.99100325 5.7737119-9.56819535 11.76186734-14.04345703 17.94360352-5.28342847 7.28406176-10.86124975 14.13400215-16.828125 20.86328125-3.62778016 4.100352-7.08705525 8.33205342-10.546875 12.57421875-4.45175936 5.44948363-8.99979704 10.75895273-13.75390625 15.94921875-2.72253995 3.05286769-5.23188698 6.25586365-7.76171875 9.46875-2.69501207 3.34049573-5.4898902 6.58560187-8.296875 9.83203125-3.94210346 4.56463779-7.78537702 9.16973411-11.4375 13.97265625-1.5 1.96484375-1.5 1.96484375-3.55821895 4.15048599-2.42515849 3.51495016-2.46498544 5.56250586-2.51027775 9.80892563l-.03815168 2.09735131-.05375201 6.93835425-.06504822 4.9829712-.1082375 13.52528667-.05202365 8.45634937-.12321764 26.47628761-.22950268 30.52887344-.14740169 23.62091112-.11092001 14.09699607-.0468216 13.26730347-.0599308 4.85536957c-.41211136 8.3377364-.41211136 8.3377364 2.88135457 15.69135761 3.52992937 3.15501308 7.5080195 5.32729701 11.72214961 7.46802044l4.4375 2.5625 7.8046875 4.12890625c9.27078456 4.96539112 18.12913092 10.93178777 24.40234375 19.57421875 1.33197143 2.03362931 1.33197143 2.03362931 4.35546875 2.734375 1.61734514.11341782 3.23839487.17788721 4.859375.2109375l2.8828125.0859375 5.96875.1328125c5.82146551.18829538 10.15513814.74562319 15.2890625 3.5703125 2.24863528 2.683855 2.91268825 4.42623708 3.4375 7.875-.5890248 4.20732003-2.08105362 6.59033044-4.4375 10.125-2.51813982 1.25906991-4.29494261 1.1519696-7.11376953 1.18945312l-3.24050903.05065918-3.52853394.0411377-3.64303589.05578613-11.59915161.16296387c-20.6748438.24093271-20.6748438.24093271-41.31884766 1.28613281-5.88702607.35404605-11.770757.36283531-17.66601562.34423828-2.02204815-.00538951-4.04387616.00000897-6.06591797.00634766l-4.01953125-.00390625-3.53173828-.00341797c-3.64414358-.0636899-7.25993373-.34350607-10.89331055-.62451172-7.09273872-.52770165-14.14851453-.67185394-21.25854492-.71582031l-7.72460937-.0859375-12.00805664-.10449219-11.70483399-.12207031-3.63319397-.00985718-3.38072204-.05020142-2.96070862-.02450561c-4.65656229-.67382254-7.25263126-2.93566043-10.52146912-6.20449829-2.1875-3.1875-2.1875-3.1875-2.9375-6.1875.93917899-3.75671597 2.13943919-5.30954125 5.15234375-7.69140625 4.02069943-2.02546513 8.30702567-2.63585183 12.734375-3.19604492 6.40988863-.87625529 10.35368945-3.8328072 15.23828125-7.80004883 4.53397026-3.44165621 9.44360406-6.10539562 14.41625977-8.84765625 4.41865514-2.44098572 8.73850945-4.97947001 13.02124023-7.65234375 7.53143797-4.69079635 15.25341307-8.84545654 23.1875-12.8125v-171l-4-2c-2.11328125-2.50390625-2.11328125-2.50390625-4.3125-5.5625l-2.41015625-3.30078125-2.27734375-3.13671875c-10.7808804-14.28279051-22.37049491-27.96751813-34.03515625-41.53125l-3.08984375-3.59375-1.53759766-1.7878418-8.77490234-10.5246582c-4.13949625-5.10112152-8.43684084-10.05227461-12.75439453-15.00219727-4.01900754-4.6188506-7.90900133-9.32078448-11.76123047-14.07983398-1.98236176-2.40228954-4.02532543-4.7287044-6.109375-7.04296875-2.74115924-3.04452865-5.33909248-6.15750469-7.875-9.375-4.13402608-5.22832711-8.57513934-10.13774318-13.0625-15.0625l-7-8-1.8359375-2.09765625c-1.5828508-1.91589407-2.98345061-3.71585054-4.1640625-5.90234375.53137603-4.46355868 4.00603678-7.7869663 7-11 2.77914486-.92638162 4.43821646-1.12751274 7.30637169-1.13422108z" fill="#191b22"/><path d="M423.259033203125 501.494384765625c10.88704176 7.69565817 19.76540089 18.23001348 22.7409668 31.50561523 3.16531129 18.76895852.12454451 35.87304696-10 52-8.91359086 12.14550543-19.58308192 18.32160938-34 22l-2.05078125.58203125c-12.96168847 2.77936006-28.98501281-1.56419485-39.94921875-8.58203125-12.88164281-9.06197262-22.36756148-21.14645275-26.5-36.5625-2.60483942-16.50777752.24826785-32.5151642 9.5-46.4375 2.78856446-3.57456916 5.7735593-6.81852711 9-10l1.9296875-1.9609375c19.39773289-18.43187067 48.21979255-16.72807076 69.3293457-2.54467773z" fill="#f2f1d3"/><path d="M412.640625 515.30078125c7.85695342 5.65856745 12.96686271 12.59886642 15.0390625 22.1875 1.73696305 13.6203322.40292612 27.10978725-7.91796875 38.51171875-7.20442194 8.17885595-15.87430386 12.25890061-26.671875 13.2734375-10.67539572.34394088-19.87311409-2.61975004-28.2109375-9.42578125C355.80350757 570.92319975 352.0609675 561.75317209 351.5 549.1875c.28925579-11.97781914 4.78304027-22.40717273 13.15625-30.859375 13.38847898-12.29305798 32.94466119-12.67237761 47.984375-3.02734375z" fill="#1c1e23"/><path d="M497 324h194c-.92011417 4.60057086-2.10440566 7.79672559-4 12l-126.34759521 1.12338257-8.67730713.00918579-13.73894501.00175095c-1.67686445-.00098535-3.35373068-.00043594-5.03059387.00183868-26.77930039.02994202-26.77930039.02994202-31.22509003-3.60490799L500.1875 330.5l-1.89453125-3.03125C497 325 497 325 497 324z" fill="#eff0dd"/><path d="M376 319l2.64892578.49389648c3.06173097.46240481 5.87821107.62111961 8.96826172.60375977l3.0859375-.00976563L393.875 320.0625l3.2421875-.01367188L405 320c1.43584013 2.87168026 1.52580175 5.65622157 1.90234375 8.84375l.25038147 2.07189941 1.04234314 8.76794434.76977539 6.41015625.45678711 3.86523438C410.09583305 354.66957728 411.06676258 359.3338129 412 364h-43l1.66430664-12.3046875.36378479-2.24291992.38206482-2.32739258.39927673-2.4543457L373.0625 337l.85351562-5.23828125L376 319z" fill="#f5f5dd"/><path d="M713 378h2l.734375 2.6328125c2.62480519 9.02529168 4.73767028 15.3964808 13.09375 20.265625C732.13458681 402.5754559 735.49006134 403.80912795 739 405c-1.3302559 3.08232028-2.59149791 4.73656041-5.3359375 6.65625l-1.9765625 1.41015625L729.625 414.5c-6.12635751 4.30722836-11.08557723 7.80566304-14.375 14.75l-1.296875 2.703125L713 434c-3.5565328-1.41215273-4.66397492-2.74913966-6.25-6.1875-4.71883124-8.88334194-12.32598868-12.9279112-21.08984375-17.234375C683 409 683 409 682 406l2.8515625-1.35546875L688.625 402.8125l1.87109375-.88476562C697.10097812 398.69481729 701.80637106 394.94280523 705.625 388.5c2.23393744-3.73371703 4.47947052-7.23809741 7.375-10.5z" fill="#15161b"/><path d="M364 420c3.9520518.58172725 6.22095053 2.55157741 9.25 5.0625l2.703125 2.22265625L378 429c-.50333129 4.52998163-2.14465832 6.74054419-5.125 10.125-3.85087441 4.54049217-7.1228276 9.16304341-10.2421875 14.2265625C360.19500717 457.30570608 357.5929725 461.14666626 355 465l-2 3h-2v2l-5.875.0625-3.3046875.03515625C339 470 339 470 337 469c-1.11466494-10.48610719 1.91066737-17.8867037 8.44921875-26.0625 3.20993351-3.60817638 6.34961237-7.0157141 10.1875-9.9609375 2.46536752-2.06194375 3.65247192-3.76531582 5.11328125-6.6015625l1.234375-2.3515625L364 420z" fill="#eceecd"/><path d="M351 618c2.73685982 2.6988779 3.89836442 4.3516437 4.49829102 8.17871094l.00561523 3.55566406.05664063 3.9296875L355.5625 637.75c.01831466 10.14388134.3268266 18.47303511 5.1875 27.5 1.42807732 3.1417701 1.29513845 4.51957206.25 7.75-9.56754577-1.47450793-16.3494979-8.54729938-22-16-3.19322072-5.07482368-2.44767882-11.04408062-2.48046875-16.84448242L336.375 633.90820312c-.07674408-9.81844515-.07674408-9.81844515 1.92578125-12.92822265C342.57548533 617.36182309 345.68689677 616.51233109 351 618z" fill="#eff1d1"/><path d="M635 347c3.69090531 2.29629614 7.03451014 5.06902028 9 9 .67846051 7.329598.81356458 13.19903755-4 19-4.71908034 2.76021681-8.57666117 3.66602407-14 3-4.33920834-1.44368398-7.34053103-3.30755758-10.5-6.625-2.03411966-4.57676925-2.30332084-8.44261006-1.5-13.375 4.63250916-8.93412482 10.96652006-12.86462902 21-11z" fill="#f2f5d8"/><path d="M602.8125 659.625l2.13256836-.00390625c4.7814141.10538871 4.7814141.10538871 7.05493164 2.37890625l1 2 3.0625.375c4.58315939.72748562 7.92796716 2.38591023 11.9375 4.625v4h-64c0-4 0-4 1.3125-5.75C567 666 567 666 570 666v-2c22.0373095-4.39402274 22.0373095-4.39402274 32.8125-4.375z" fill="#383c3c"/><path d="M602 384c3.2720097 1.72173436 5.44276546 4.08816166 7.375 7.25 1.0356156 4.55670865 1.89057735 9.28160119-.3203125 13.59375-3.73983839 4.79828322-7.1090355 5.90519813-12.9296875 6.65625-4.32981103-.0984048-6.57478268-1.93747428-9.6796875-4.796875-2.33141658-2.74729089-3.35427373-5.00516108-3.8203125-8.578125.61675469-5.13962238 3.19257531-8.08334015 7-11.4375 4.01988385-2.85623326 7.49683772-3.49448224 12.375-2.6875z" fill="#f5f7dd"/><path d="M571 351c3.44714432 2.05412024 5.77431755 4.66147632 8 8 .67697143 3.7411579.82922523 7.43405275-.98046875 10.8515625-3.42523184 4.278905-6.05704255 5.9303832-11.39453125 6.5234375-5.29966047-.54824074-8.18144987-2.65205307-11.5625-6.6875-1.4613366-3.69632198-1.06887646-5.86326947-.0625-9.6875 3.75086825-6.96589818 7.92730513-10.13300981 16-9z" fill="#f5f7de"/><path d="M412 438c2.5 1.5625 2.5 1.5625 4 4 .07566225 4.23708603-.36713925 6.25545794-3.125 9.5-3.77776182 1.97100617-5.82437247 1.64640402-9.875.5-2.48038907-3.7205836-2.46337203-5.59796571-2-10 2.88811487-4.5054592 5.88178937-4.73117295 11-4z" fill="#908d78"/><path d="M604 663c2.50861892 1.3919459 3.95754118 2.90772512 6 5l3 2v2l-9.6875.0625-2.76367188.02539062-2.68554687.00976563-2.4597168.01586914C592.85135327 671.9929791 590.48973863 671.559949 588 671c.3125-1.9375.3125-1.9375 1-4l3-1v-2c3.72380913-1.86190457 7.94580594-1.57294294 12-1z" fill="#bcb491"/><path d="M415.625 292.9375l2.4765625.02734375L420 293l.25 4.8125.140625 2.70703125C420 303 420 303 418.28125 304.75c-2.38303944 1.30577504-4.36925913 1.92858998-7.03125 2.4375l-2.421875.48046875L407 308l-.125-4.75-.0703125-2.671875c.20660525-2.72718926.72225409-4.29127908 2.1953125-6.578125 2.40545638-1.20272819 3.94996953-1.10071472 6.625-1.0625z" fill="#f4f2ec"/><path d="M363 294l5.4375-.0625 3.05859375-.03515625C374 294 374 294 375 295l.0625 4.5625-.02734375 2.50390625L375 304c-4.0188515 1.81242323-7.61110675 3.33501617-12 4-.94238698-2.82716095-1.13465647-4.63176123-1.125-7.5625l-.0078125-2.37890625C362 296 362 296 363 294z" fill="#e9e7c5"/><path d="M277 256l3 1-2.06030273 2.02856445-7.69921875 7.62109375-3.30761719 3.26660157C259.79315412 276.94557587 253.17575921 284.09316297 247 292l-1.41137695 1.77954102-4.9597168 6.32202148C239 302 239 302 237 303c1.875-6.75 1.875-6.75 3-9h3c1.61949011-2.57213134 2.04408751-3.67669159 1.625-6.75L244 285h3.25c3.73641311-.57686175 3.73641311-.57686175 5.10546875-2.84765625C253.34440343 280.12806229 254.2244757 278.11462836 255 276l3 1 1-5 4-1v-3l1.875-.1875L267 267c.70211894-1.65204456 1.36971413-3.31923769 2-5l3-1 1.5625-1.5625L275 258h2v-2z" fill="#e9e4bc"/><path d="M738 0h10l1 4 2 1c4.87128713 2.61386139 4.87128713 2.61386139 6 6l-3-1-3 1-2-1-1 5-8 1c-.6875-1.8125-.6875-1.8125-1-4l3-3c.71447643-2.10332891.71447643-2.10332891 1-4h-3l-2-5z" fill="#e7d597"/><path d="M612 0h15l-1 4h-3v2l4 1-2 5-5-1-.375 1.875C619 15 619 15 617 17c-2.125-.375-2.125-.375-4-1v-3l4-1-1-3V5l-3-1-1-4z" fill="#e6d599"/><path d="M604 662v1l-12 1v2l-3 2-1 3h5v1h-26l1-2 6.0625-1.125 3.34765625-.5078125L580 668v-2c7.95167745-4.35449003 15.13334104-4.1291261 24-4z" fill="#6e6f60"/><path d="M628.75 336.5l2.7265625.14453125L638 337v1l-2.65527344.07592773-9.93017578.29638672-4.26464844.125c-7.89929662.22577383-15.7453998.54223255-23.60791015 1.40136719C594.84568945 340.00615049 592.62870522 339.56835446 590 339c-1.4273883-.05413507-2.85720872-.0638654-4.28515625-.02734375l-2.35742187.03710937-4.8515625.1171875-2.35351563.03320313-2.12524414.05102539C571.65780152 338.96435003 570.05696587 338.17000934 568 337l15.57617188-.42724609 5.28320312-.14550782c13.32087699-.37086532 26.57623335-.67140393 39.890625.07275391z" fill="#2f2a26"/><path d="M166 501h1l.16772461 3.46899414.63183594 12.80908203.27050781 5.53125.39477539 7.97583008.1169281 2.4756012C168.81913632 537.894972 169.31247483 542.40608185 170 547c.06460929 2.4784122.08611087 4.95835823.0625 7.4375l-.02734375 3.74609375L170 561h-1c-2.18782953-10.55698783-2.83202369-21.23009571-3.54248047-31.96655273l-.66455078-9.35961915-.40234375-5.95898437-.21112061-2.8217926-.16290283-2.61204529-.15667724-2.2926178C164 504 164 504 166 501z" fill="#e5ddc0"/><path d="M204 349h3c-.53922212 5.07181381-2.31522582 9.00083324-4.6875 13.4375-3.52074135 6.76595332-6.41960402 13.60359707-9.0859375 20.74609375C192 386 192 386 190 387c.875-6.75.875-6.75 2-9h-2l-1 3-2-1 2-4h3v-2h2l.5859375-2.30078125L195.375 368.6875l.7734375-2.98828125C197 363 197 363 199 360h2c1.27253436-3.64793184 2.32829194-7.1936543 3-11z" fill="#e8dfb9"/><path d="M389.9375 294.625c3.0625.375 3.0625.375 5 2 1.42739363 3.19064458 1.00093266 5.05439213.0625 8.375l-2 2c-6.57692308-.57692308-6.57692308-.57692308-8-2v-8c2-2 2-2 4.9375-2.375z" fill="#e1e4cd"/><path d="M234 304h2c-1.68913332 5.04729124-4.59016895 9.21889923-7.5 13.625l-1.51171875 2.3125L221 329c-2.625.1875-2.625.1875-5 0l2-4 3 1v-4h-2l1-4c1.9375-.5625 1.9375-.5625 4-1l1 1 2-4h2l-.5625-2.3125C228 309 228 309 229 306c2-.625 2-.625 4-1l1-1z" fill="#dfdcb8"/><path d="M850 0c2.3828125-.29296875 2.3828125-.29296875 5.125-.1875l2.7578125.08203125L860 0v2l3 1-2 2-2.1875-.25c-3.87952071.34484629-5.44629068 2.28121623-8.1640625 4.9375C849 11 849 11 846 11l-2-4 1.875-1.8125C848.13676954 2.99188856 848.13676954 2.99188856 850 0z" fill="#e7d593"/><path d="M727 243c4.82034262.41317222 6.90992611 2.38019915 10 6v2l2.3125.8125c2.63114126 1.1625973 3.74487652 2.16041463 5.6875 4.1875l2.0625 1C749 258 749 258 751 261v3h2v2h4l1 4c-3 0-3 0-4.76171875-1.50390625L751.3125 266.4375c-2.69755006-2.80624256-5.41773904-5.46849256-8.375-8-3.83738353-3.30315955-7.39785798-6.82053571-10.9375-10.4375l-2.9375-2.9375L727 243z" fill="#d9d7b9"/><path d="M632 695h54l1 2-11.1875.5625-3.19726562.16992188-3.09570313.14648437-2.84057617.14282227C663.969785 697.99975493 661.64721254 697.54644296 659 697l-6.39453125-.31640625-3.64257813-.12695313L645.1875 696.4375l-3.83398438-.13085938L632 696v-1z" fill="#c4beac"/><path d="M820 492h2l.10986328 17.83447266.04101563 6.0703125.04443359 8.71240234.03128052 2.75265503.00045776 2.54763794.01345825 2.24752807C822 534 822 534 820 536l-.48217773-18.31665039-.16601563-6.23632813-.23071289-8.94311523-.08192444-2.83457947-.06089783-2.60853576-.06056213-2.30809021C819 493 819 493 820 492z" fill="#d3d3c7"/><path d="M570 664h14l-4 2v2l-12 3v2l-5-1c1.15173355-2.46800047 2.04783565-4.04783565 4-6h3v-2z" fill="#585c51"/><path d="M412 440l4 2c-.2381516 4.12796115-.39660892 6.34632633-3.25 9.4375-2.9311251 1.66541199-4.4446094 1.94025893-7.75 1.5625.4979837-3.73487777.87491756-5.81237635 3-9h3l1-4z" fill="#a4a188"/><path d="M604 663c4.6889493.55619669 8.19924267 1.88182673 12.375 4.0625l3.2109375 1.66015625L622 670v2c-4.09003859 1.14982602-8.03177051 1.11094256-12.25 1.0625l-2.2578125-.01367188L602 673v-1h11c-2.04248357-2.04248357-3.95993076-3.83194427-6.1875-5.625L604 664v-1z" fill="#807e68"/><path d="M271 759c4.08591433 1.64421131 6.93416198 4.56816075 10.0625 7.5625C289.26793993 774.27503364 297.90636672 781.35565477 307 788l-1 2-2.23046875-1.64453125L300.8125 786.1875l-2.91796875-2.14453125c-2.81365838-2.04758201-2.81365838-2.04758201-5.61328125-3.6328125-2.51880634-1.55700186-4.01242827-3.42295961-5.83203125-5.73046875-3.59278878-4.16414872-8.03414787-7.59580342-12.38671875-10.9296875C272 762 272 762 271 759z" fill="#dfddbd"/><path d="M434 700c-2 2-2 2-5.02734375 2.21289062L425.0625 702.15625l-2.13891602-.02453613L416 702l-2.33984375-.04980469L397 701.5l-4.984375-.14453125L380 701v-1l14.72167969-.42724609 4.9921875-.14550782C427.70851594 698.60189243 427.70851594 698.60189243 434 700z" fill="#313b37"/><path d="M200 480l3 1v6l-3 1 .09179688 3.15844727.33544921 11.82568359.14550782 5.07617187C200.88238013 518.71081289 201.07209737 529.34461021 201 540h-1c-1.2246763-10.47809608-1.15277639-20.95043977-1.13037109-31.484375l-.00634766-9.109375.00390625-5.8125-.00613403-2.73986816.009552-2.55114746.00241089-2.23205567C199.00378691 483.93824817 199.41710666 482.05124648 200 480z" fill="#e5e3d3"/><path d="M962 71v3l1-3 3-1c1 1 1 1 1.25 3.4375L967 76l-3 2c-3-1-3-1-5-3l1-2-1.1875 1.5C957 76 957 76 954.4375 76.375L952 76l-2-3c7.99739583-3.2421875 7.99739583-3.2421875 12-2z" fill="#e6d896"/><path d="M235 716c3.30184761 3.12766758 6.03488741 6.55583766 8.75 10.1875 4.16940517 5.50751146 8.55648409 10.73878308 13.25 15.8125l-2 2-6-5-2.3125-1.9375c-2.14491634-2.62156442-2.38504813-4.73552939-2.6875-8.0625h-2c-1.02611949-1.65071396-2.02308143-3.31970006-3-5l-1.625-1.5c-1.8474141-2.01536084-2.01531493-3.83833049-2.375-6.5z" fill="#dfdcc0"/><path d="M188 390c1.0068968 3.10531809.99674921 4.84752388-.109375 7.90625l-.78466797 2.23876953L186.25 402.5c-2.48117686 7.09338185-4.60886626 14.15808591-6.25 21.5l-4-2 1-2h1l.4375-3.1875c.43776966-2.96710549.94054866-5.88044366 1.5625-8.8125h3l.375-3.5625c.66404974-5.27498667 1.64433618-9.96650427 4.625-14.4375z" fill="#e6dfbf"/><path d="M580 461c1.97161865 1.15742493 1.97161865 1.15742493 4 3 .48101807 2.48674011.48101807 2.48674011.45410156 5.48120117l-.00091552 3.39677429-.06256104 3.66499329-.01715088 3.7537384-.09881592 9.86875916-.0793457 10.07476807L584 520h-1l-.03123474-1.75738525-.34107971-18.10345459-.125-6.75683594-.1862793-9.71044922-.05064392-3.05279541-.06044006-2.8505249-.04710389-2.50323487C582.00417657 473.05979878 581.55788637 471.13243403 581 469v-5l-1-3z" fill="#f4f3e4"/><path d="M593 173l1 1.4375c2.54078585 1.98498895 4.74209382 1.97204688 7.8828125 2.25390625C605.18638396 177.17292312 607.98799141 178.60555158 611 180l6 2v1c-6.81378606-.62070313-13.29003832-1.83519546-19.9375-3.4375l-2.86132812-.65820312-2.72851563-.65039063-2.46069336-.58374023C587 177 587 177 585 175l3.4375-.4375c3.37027201-.17421478 3.37027201-.17421478 4.5625-1.5625z" fill="#dcdabb"/><path d="M511.1875 198.9375l4.90820312.01367188L528 199v1c-31.11401495 2.59415759-31.11401495 2.59415759-46 1v-1c9.72851066-1.192371 19.40682617-1.11514301 29.1875-1.0625z" fill="#cac3ae"/><path d="M350 320h1c.73734599 24.66012713.73734599 24.66012713-6 32-.17499808-4.2874529.11783417-7.762213 1.42578125-11.84375 1.05375093-3.95694225 1.5275943-8.02188811 2.109375-12.0703125C348.94459784 325.36779585 349.43511014 322.68947563 350 320z" fill="#eeecdc"/><path d="M191 12c3 1 3 1 5 4v4l-9-2-1 4-1-2-3 1c.0625-2.3125.0625-2.3125 1-5 3.5-1.75 3.5-1.75 7-3l1-1z" fill="#e7d696"/><path d="M874 58l1 2 2.5.8125L880 62c.8125 2.625.8125 2.625 1 5l-2.4375.375L876 68l-1 2-5-2c1-2 1-2 3-4l-1-2 2-4zm0 2l1 2zm9 4l3 1zm-2 1l2 1z" fill="#e5d699"/><path d="M604 663c2.625 2 2.625 2 4 4l-3 1-3-2c-2.27912938-.45394552-2.27912938-.45394552-4.6875-.625l-2.44921875-.2265625L593 665l1 5 6 1v1c-4.16138263.08159574-7.9472484-.01751476-12-1 .3125-1.9375.3125-1.9375 1-4l3-1v-2c3.68362274-1.84181137 7.97911941-1.49936743 12-1z" fill="#a2997f"/><path d="M353 622l2 1v33h-1c-2.59415759-23.78877436-2.59415759-23.78877436-1-34z" fill="#fbf8e6"/><path d="M210 276v9l2 1c-1.75 2.0625-1.75 2.0625-4 4-2.25-.25-2.25-.25-4-1l2-1v-7h-2l-1-3c4.75-2 4.75-2 7-2z" fill="#ece1af"/><path d="M1006 176l1 6-2.875.9375c-2.98580408.93644742-2.98580408.93644742-5.125 2.0625l-3-2c.1875-1.8125.1875-1.8125 1-4 3.34811134-2.53370588 4.70124217-3 9-3z" fill="#e4d695"/><path d="M481 854c14.04093755-.12311627 27.98696157.08432888 42 1v1c-10.19857119 1.38285711-20.30711885 1.16531088-30.5625.625l-2.05688477-.09326172C486.73896202 856.31164087 484.18163453 855.73591163 481 854z" fill="#f0e8bf"/><path d="M303 237l-7.38671875 6.66015625-4.5078125 4.0859375C289.5625 249.125 289.5625 249.125 287 251l-3-1v-2l1.9375-.3125L288 247l1-3 2 1-1-3c3.75-2 3.75-2 6-2v-3c4.75-1.125 4.75-1.125 7 0z" fill="#e5e1b9"/><path d="M792 706l2 2c-1.66724936 3.5726772-3.1571422 6.28636301-6 9l-1 3c-1.875 1.75-1.875 1.75-4 3l-3-1 12-16z" fill="#e2dbb4"/><path d="M216 256l4 1-1 6-5 1v3l-2 1v-3h-4l2-7 2 3v-2l4-1v-2z" fill="#ece1ae"/><path d="M715.0234375 376.18359375C717 377 717 377 717.9765625 378.78515625L718.625 381.0625l.71484375 2.4375L720 386l.62890625 2.375L722 394l-2 1c-2.45417612-5.673142-4.46246904-10.81839396-5-17l-1.875 1.5C711 381 711 381 709 381v-2h2v-2c2-1 2-1 4.0234375-.81640625z" fill="#ececde"/><path d="M48 0l-1 3-2-1-1 6c-1.875.625-1.875.625-4 1-2.35953094-2.35953094-2.49141413-3.77895617-3-7 3.63423209-2.32590854 6.77088331-2.16265833 11-2z" fill="#e5d695"/><path d="M480 0h8v3l-2 2v3l-2 1-2-2h-3l-1-5h2V0z" fill="#e8d796"/><path d="M592 664v2l-3 2-1 3h5v1h-22v-1l2.125-.26171875c6.00571725-.88943367 10.36823405-2.15545169 15.31640625-5.71484375C590 664 590 664 592 664z" fill="#7b7b6b"/><path d="M806 746l1 2h2l-2 4h-2l-1 2h-4l-1 2-1-8h3l3-1v2h2v-3z" fill="#e9e0af"/><path d="M215 760l2 3-3 5-5-2v2l-4-1c1.04874998-2.62187494 1.64931313-3.79371361 4.125-5.25L211 761l3 2 1-3z" fill="#ebe2b4"/><path d="M211 681h2l1.5390625 2.78125c3.48478103 6.23016029 6.87045193 12.21275262 11.52734375 17.66796875L227 703l-1 3c-2.22189824-2.22189824-2.92598892-4.08482708-4-7h-2l-1.9375-3.8125-1.08984375-2.14453125C216 691 216 691 215 688h-2l-2-7z" fill="#dfddc0"/><path d="M664 673l9.6875-.125 2.76367188-.05078125C681.06848227 672.79063831 684.81932331 672.76443815 689 675l-2 2c-1.67713009-.27590495-3.34213131-.62535308-5-1l-10.38085938-.51757812C666.21603626 675.21603626 666.21603626 675.21603626 664 673z" fill="#4f4b3e"/><path d="M800 328c1.875.125 1.875.125 4 1l2 6 3 2v4l3 1 1 6-2 1-4.375-8.25-1.25-2.35546875-1.2109375-2.28515625-1.11083984-2.09472656L800 328z" fill="#dfd9be"/><path d="M197 654c3.08126158 2.68060218 4.83749855 5.89376013 6.8125 9.4375l1.95703125 3.43359375C207 670 207 670 206.19921875 672.41015625L205 674l-1.8125-3.625-1.10546875-2.203125L199.375 662.625c-1.24450469-2.69335469-1.24450469-2.69335469-3.375-4.625.375-2.125.375-2.125 1-4z" fill="#e2dec1"/><path d="M816 452h1l1.5 9.5.43359375 2.6875C819.75865611 469.53076099 820.15157107 474.59396514 820 480c-2.48541655-1.86572824-2.97407594-2.84960086-3.51171875-5.96875L816.3125 470.5l-.1953125-3.7578125C815.96320094 461.82488344 815.90965365 456.91885708 816 452z" fill="#c9c7b8"/><path d="M162 364c2.27521866 2.16687491 4.15794162 4.45620509 6 7l-2 4h-2v-3l-1.9375-.375L160 371l-1-2 3-5z" fill="#ebe2b2"/><path d="M634 862h9l-2 6h-2l-1 2v-2h-2l-4-4h2v-2z" fill="#eae1b2"/><path d="M805 680l3 1-4.375 7.375-1.25 2.1171875-1.2109375 2.03125-1.11083984 1.87255859C799 696 799 696 797 698c-.75-1.625-.75-1.625-1-4l4-6 .5625-2.3125L801 684l3-1 1-3z" fill="#28261f"/><path d="M210 425h1c1.45988598 9.0583287 1.45988598 9.0583287-.3125 12.6875L209 440l-2 7-2 3c.61419174-8.59868438 2.80907021-16.69484752 5-25z" fill="#c7c5bc"/><path d="M134 81l1 4h-4v4c-2 1.75-2 1.75-4 3l-3-2 2-5h3l1-3c2.0625-.6875 2.0625-.6875 4-1z" fill="#e6d799"/><path d="M977 24h5c0 3 0 3-1 6h-2v2l-6 1 4-9z" fill="#e8d594"/><path d="M728 16l5 1c1 3 1 3 .0625 5.1875L732 24c-3 0-3 0-5.1875-2L725 20l3-4z" fill="#e6d799"/><path d="M1021 721l2 1c.484375 2.21484375.484375 2.21484375.75 4.9375l.296875 2.71484375C1024 732 1024 732 1022 734c-2.4375-.8125-2.4375-.8125-5-2l-1-3 2-2h4v-2h-2l1-4z" fill="#e5d698"/><path d="M593 666c4.08718695-.24042276 7.17679443.57741188 11 2v2l3 1h-13l-1-5z" fill="#d0c59f"/><path d="M29 960c1.85776765 3.13498292 2.20140476 5.37471432 2 9l-3 1v2h-2v-4l-1-1v-4l4-1v-2z" fill="#e7d696"/><path d="M20 931l1 3 2 1-1 4-5 1-2-4 3-3h2v-2z" fill="#e6d696"/><path d="M180 603c2.11434065 3.17151097 3.01955937 5.86432861 4.125 9.5l1.0703125 3.46875C186 619 186 619 186 622l-3-1c-1.125-2.8125-1.125-2.8125-2-6l-.5625-2c-1.6548913-7.56521739-1.6548913-7.56521739-.4375-10z" fill="#d2cab2"/><path d="M745 256c3.16115776 1.36983503 3.9927092 1.9890638 6 5v3h2v2h4l1 4c-4.02517565 0-4.8207439-1.38781109-7.625-4.1875l-2.4140625-2.35546875C745.88858666 260.86040042 745.33616581 259.26312673 745 256z" fill="#eae6c3"/><path d="M846 572h2c-.46086748 7.16770219-1.06724671 14.06482643-3 21l-2 1c.62272232-7.4071181 1.70487966-14.68194135 3-22z" fill="#e0dbbe"/><path d="M198 498h1l1 38h-1c-2.23379493-8.29384097-2.06405839-16.09848602-1.625-24.625l.171875-3.91015625L198 498z" fill="#252924"/><path d="M270 266l2 1c-.8125 1.9375-.8125 1.9375-2 4l-3 1c-1.09166275 1.93330603-1.09166275 1.93330603-2 4l-2 2-4-1 11-11z" fill="#302f28"/><path d="M570 664h5l-1 3-6 1v5l-5-1c1.15173355-2.46800047 2.04783565-4.04783565 4-6h3v-2z" fill="#3a3e3e"/><path d="M619 641l2.25.9375c2.62867962 1.09435708 2.62867962 1.09435708 5 1.5625l1.75.5 1 2c2.8986087 1.75986957 5.67277559 2.4454626 9 3l1 3c-4.10698435-.62892934-7.40807505-1.97266873-11.125-3.8125l-3.1328125-1.51953125C622.03109046 645.01891115 620.67220961 643.65823666 619 641z" fill="#ebeadb"/><path d="M166 501h1v24h-1l-1.125-10.3125-.33984375-2.95898438-.29296875-2.84179687-.28564453-2.6184082C164 504 164 504 166 501z" fill="#eee9c5"/><path d="M607 404v3c-3.49385874 3.13242507-6.55237611 4.13848564-11.1875 4.0625L592 411l1-3 2.046875-.11328125L597.75 407.6875l2.671875-.17578125C603.32303774 406.9358819 604.79225607 405.92403852 607 404z" fill="#fbfaf3"/><path d="M649 827c-3 2-3 2-6 2l-1 2c-2.14453125 1.140625-2.14453125 1.140625-4.8125 2.25l-2.64453125 1.140625c-3.0721202.73617627-3.87874649.11159925-6.54296875-1.390625l8.8125-3.5625 2.52539062-1.03710938 2.43164063-.96679687 2.23754883-.90454102C646 826 646 826 649 827z" fill="#d9d5b0"/><path d="M977 0h8l-1 5h-3c-2.16666667.83333333-2.16666667.83333333-3 3l-2-4h2l-1-4z" fill="#e8d593"/><path d="M834 620c.97004667 3.16734934 1.04793039 5.7703692.75 9.0625l-.203125 2.59765625C833.91292606 634.37255207 833.01897042 635.1631532 831 637l-1 3h-2c1.77910928-6.75052102 3.70438191-13.40620337 6-20z" fill="#cfcbae"/><path d="M171 454h1c.33853295 8.16240568-.70098079 15.95072024-2 24h-1c-1.43150464-8.6062749-.35194842-15.64194602 2-24z" fill="#e0dcbe"/><path d="M418 180v2l-7.75 2.5625-2.2109375.74804688-2.1484375.69335937-1.96777344.65063477C401.66555462 187.06008636 400.16526518 186.69296911 398 186l1.9375-.3125L402 185l1-3 1.86328125-.18359375L407.3125 181.5625l2.42578125-.24609375C412.67685223 180.90531083 414.98795076 180 418 180z" fill="#e7e2bd"/><path d="M680 812c-4.75 4-4.75 4-7 4l-1 2-7 2-2 1c1.34043117-4.0212935 3.82244356-4.88950169 7.375-6.75l1.7890625-.99609375C676.62238231 810.87412744 676.62238231 810.87412744 680 812z" fill="#dfdcb2"/><path d="M849 458l2 1c.37890625 2.1796875.37890625 2.1796875.5625 4.875.21378346 2.99296839.48178957 5.2578687 1.4375 8.125l-.4375 4.6875-.30859375 2.44921875L852 481h-1c-1.35709504-7.73059495-2.31918373-15.14453364-2-23z" fill="#e7e2c7"/><path d="M221 392l2 1-.9375 1.9375c-1.38185403 3.98299104-1.7161543 7.87900849-2.0625 12.0625l-3 1v2h-2c1.76463072-6.10737442 3.69557475-12.07433507 6-18z" fill="#dad8c9"/><path d="M2 98l2 1c.125 7.75.125 7.75-1 10H1l-1 3V99l2-1z" fill="#e4d49c"/><path d="M114 1015h3l-1 3h-2l1 2v3c-2.95664519 1.4783226-5.74229737 1.06032783-9 1 1-2 1-2 3.4375-2.8125 2.79579232-.97214531 2.79579232-.97214531 3.875-3.8125L114 1015z" fill="#e4d89a"/><path d="M961 841c5.78461538 4.43076923 5.78461538 4.43076923 6.875 7.3125L968 850c-3.71599191.20086443-4.77208445.1519437-8-2-.25-3.0625-.25-3.0625 0-6l1-1z" fill="#e5d697"/><path d="M3 540h1l2 8H4l.625 1.875L5 552l-2 2c-1.546875-1.21484375-1.546875-1.21484375-3-3 .109375-2.19140625.109375-2.19140625.75-4.5625l.609375-2.37890625C2 542 2 542 3 540z" fill="#e6d699"/><path d="M837 406h2l1.5 5.625.84375 3.1640625c.64743596 3.16781168.7723792 5.98835217.65625 9.2109375-2.40118527-2.40118527-2.75220861-4.05496042-3.625-7.3125l-.7890625-2.86328125C837.02520352 411.12148098 836.8898124 408.74968152 837 406z" fill="#e8e2c7"/><path d="M592 337h20l-1 2-7.875.8125-2.22265625.19335938C598.7578125 340.14453125 598.7578125 340.14453125 595 340l-3-3z" fill="#27221f"/><path d="M336 197h5l1 5c-2.90600261 1.25664978-4.79604584 2-8 2v-4h2v-3z" fill="#eee4b4"/><path d="M454 0h13c-2 4-2 4-3.9375 4.8125C461 5 461 5 458 4l-4-4z" fill="#e7d698"/><path d="M101 881c2.23551759 3.35327639 2.17283528 3.90743657 1.625 7.6875l-.3359375 2.44921875L102 893l-5-5c.97608217-2.92824652 2.10786631-4.61426621 4-7z" fill="#e5d795"/><path d="M131 670l4 4-2 1-2 6-4-5c1.75-4.875 1.75-4.875 4-6z" fill="#ebe1ac"/><path d="M535 660h5c-2.72190812 2.79631108-5.52058784 5.36764674-8.5625 7.8125l-2.31640625 1.89453125L527 671l-3-1 4-1v-2c1.875-2.125 1.875-2.125 4-4h2l1-3z" fill="#f3f5da"/><path d="M367 516l2 1-3.875 5.375-2.1796875 3.0234375C361 528 361 528 359 530c-.77734375-1.671875-.77734375-1.671875-1-4 1.87109375-2.578125 1.87109375-2.578125 4.4375-5.25l2.55859375-2.703125L367 516z" fill="#282925"/><path d="M693 397h5c-6.525 6.8875-6.525 6.8875-11.75 7.125L684 404v-2l1.71484375-.5859375L687.9375 400.625l2.21484375-.7734375C692.18682116 399.14728587 692.18682116 399.14728587 693 397z" fill="#f7f7e7"/><path d="M437 374c2.41130185 2.51177277 2.98881639 3.70922621 3.125 7.25L440 385l1 8-2 1c-1.25841946-6.74153283-2.26404456-13.13484138-2-20z" fill="#f3f0e0"/><path d="M409 294l2 1-2 9 7 1v1l-9 2-.125-4.75-.0703125-2.671875c.20391748-2.6917108.82979529-4.27717474 2.1953125-6.578125z" fill="#c6cbb3"/><path d="M440 816c13.6332574.59453303 13.6332574.59453303 20 4-4.39844322 1.37344385-7.92504555.24307502-12.25-.9375l-2.2578125-.59179688L440 817v-1z" fill="#d0d1be"/><path d="M7 789l3 4-4 4-1-2-1 2-3-1 1-5 1.9375-.4375C5.97545146 790.18992819 5.97545146 790.18992819 7 789z" fill="#e5d494"/><path d="M604 663c4.6889493.55619669 8.19924267 1.88182673 12.375 4.0625l3.2109375 1.66015625L622 670v2c-2.96175123-.61277612-4.38058783-1.25372522-7-3-2.29547574-1.04748982-4.61547166-2.02226723-6.94140625-3C606 665 606 665 604 663z" fill="#6d6d5c"/><path d="M415 445c-.3358407 3.10652645-.59049279 4.60414303-2.875 6.8125C410 453 410 453 407 453c1.34419488-4.14460087 3.12199734-8 8-8z" fill="#b0af99"/><path d="M610 392c2 2 2 2 2.1953125 5.2578125L612.125 401.125l-.0546875 3.8828125L612 408l-3 1c-1.125-3.75-1.125-3.75 0-6l.5625-5.625.25390625-3.0390625L610 392zm-4 18l2 1-2 1v-2z" fill="#181514"/><path d="M704 346h3c-1.33586054 2.88164201-2.83637331 5.25276708-4.875 7.6875l-1.4921875 1.82421875C698.77522902 357.20487499 697.45260887 357.60184921 695 358l6-8 1.51171875-2.265625L704 346z" fill="#e4e3cc"/><path d="M508 199v1l-9 1v1l-17-1v-1c8.69980864-1.01286753 17.25492893-1.10621544 26-1z" fill="#b2ad9c"/><path d="M602 843c-2.66465881 1.77643921-4.00732393 2.38801429-7 3.0625L588 848l-6-1c6.32453722-3.68931338 12.87262743-4.25454902 20-4z" fill="#d3d0a9"/><path d="M840 599l1 2 2 1-4 12h-2l.9375-5.25.52734375-2.953125L840 599z" fill="#cecbb2"/><path d="M174 578h1l1.5 6.75.84375 3.796875C178 592 178 592 178 596l-3-1c-1.22517308-5.66642551-1.09228867-11.23708518-1-17z" fill="#d4cdb7"/><path d="M200 480l3 1v6l-3 1v12h-1l-.0625-7.75-.02539062-2.2109375C198.89608316 486.51329442 199.04707287 483.38965084 200 480z" fill="#c5c3b8"/><path d="M412 438c-3.28804981 2.91227269-5.59885603 4.49701212-10 5v6h-1c-.48076923-6.25-.48076923-6.25 1.5625-9.4375 3.25620797-2.0873128 5.64745016-1.8540423 9.4375-1.5625z" fill="#5f5e54"/><path d="M186 400h2c-1.74259681 11.70615034-1.74259681 11.70615034-5 16-1.49828872-3.88235819-.43110582-6.43449288.9375-10.25l1.15234375-3.265625L186 400z" fill="#2f2e2b"/><path d="M560 353h2l-.8125 1.5c-1.34558262 2.83280551-2.32607384 5.71968078-3.30859375 8.6953125C557 365 557 365 554 367c.4585429-5.73178619 1.85478-9.85478 6-14z" fill="#dbdec5"/><path d="M825 1016c2.4375.75 2.4375.75 5 2 .8125 2.125.8125 2.125 1 4l-7 1-1-3 2-2v-2z" fill="#e6d796"/><path d="M1001 777l3 1-2 2c-.6425235 2.06874034-.6425235 2.06874034-1 4-1.875.625-1.875.625-4 1l-2-2v-2l6-4z" fill="#e3d595"/><path d="M1004 734l3 1-2 5 2 1-2 1-1 3-3-1 .9375-4.4375.52734375-2.49609375C1003 735 1003 735 1004 734z" fill="#e5d696"/><path d="M820 365h2v3l3 1c.984375 1.70703125.984375 1.70703125 1.75 3.8125l.796875 2.08203125c.51369458 2.38690844.21594769 3.81184648-.546875 6.10546875l-3.5-6.875-1.01171875-1.97265625C820 367.2265625 820 367.2265625 820 365z" fill="#dfdac1"/><path d="M842 329l1 2 3 1-1 5-3-2c-2.15274948.30840599-2.15274948.30840599-4 1l-2-3 2-1v2c3.24849977-1.72226496 3.24849977-1.72226496 4-5z" fill="#e9e1b2"/><path d="M411 294l2 1-1 6 3 2v2l-6-1c-.25-6.625-.25-6.625 2-10z" fill="#f6f9e0"/><path d="M10 184l4 1 1 5-7 3c.875-7.875.875-7.875 2-9z" fill="#e5d697"/><path d="M996 702h4l1 3h-2l-.375 1.9375L998 709l-2 1-2-6 2-2z" fill="#e5d699"/><path d="M205 582h2l1 4.75.5625 2.671875C209 592 209 592 209 596h-2c-1.90608098-3.21182149-2.22266247-5.53882603-2.125-9.25l.0546875-2.703125L205 582z" fill="#292b2d"/><path d="M386 188l3 1c-1 3-1 3-2.70703125 3.984375L384.1875 193.75l-2.08203125.796875c-2.38690844.51369458-3.81184648.21594769-6.10546875-.546875l1.6796875-.8046875L379.875 192.125l2.1796875-1.0546875C384.15135019 190.03442457 384.15135019 190.03442457 386 188z" fill="#e4e1b7"/><path d="M60.0625 22.9375L63 23v3h-2l-1 3h-4v-5c1-1 1-1 4.0625-1.0625z" fill="#e7d794"/><path d="M831 0h13l-1 3-3-1c-2.6569191.87914688-2.6569191.87914688-5 2l-4-4z" fill="#e8d593"/><path d="M258 745c3.80635497 3.20760251 7.54563567 6.40746109 11 10l-1 3v-2l-3-1v-2l-5-1-.4375-1.8125c-.4497439-1.74900404-.99142341-3.47427023-1.5625-5.1875z" fill="#e3e0c0"/><path d="M590 666h3l1 4 6 1v1c-4.16138263.08159574-7.9472484-.01751476-12-1 .875-3.875.875-3.875 2-5z" fill="#a9a285"/><path d="M177 426h1c.2396943 5.63281599-.61470179 10.54538831-2 16h-2l.375-5.75.2109375-3.234375c.3868848-2.81768932.97092416-4.5986616 2.4140625-7.015625z" fill="#e7e2c1"/><path d="M376 319l6 1-1.953125 1.11328125c-2.80242135 2.58314793-2.63580507 4.32934286-2.796875 8.07421875l-.171875 3.29296875L377 335h-1c-.82622671-5.60563042-1.06795656-10.42289352 0-16z" fill="#e6e4d4"/><path d="M965 143l5 2-3 6-3 1-1-3h2l-.5625-1.875C964 145 964 145 965 143z" fill="#e5d59b"/><path d="M883 7l5 5v2c-1.8125.625-1.8125.625-4 1l-3-2 2-6z" fill="#e8d795"/><path d="M78 853l2 1-.625 2.375L79 859l2 2-1 3v-2l-4-1v-6l2-2z" fill="#e4d695"/><path d="M862 669c2.15473199 1.5801368 4.10646634 3.10646634 6 5-4.46236469 1.80619523-7.31034294 2.11658501-12 1v-3l5 1 1-4z" fill="#eae0af"/><path d="M2 604l4 1v2H3l1 8c-2.67927341-4.01891012-2.15601248-6.24161923-2-11zm0 11l1 2h2v2l-4 1 1-5z" fill="#e6d595"/><path d="M437 382h1l2 16-4-3c-.36827609-4.5666235-.11436226-8.54255094 1-13z" fill="#3b3b39"/><path d="M387 295c2.8125-.25 2.8125-.25 6 0 1.875 1.75 1.875 1.75 3 4v4l-3-1 1-4-8-1 1-2z" fill="#b6b6a5"/><path d="M1000 711l-1 4-6 1-1-5c3.28696233-.79953138 4.71023192-1.09658936 8 0z" fill="#e5d699"/><path d="M576 359h3v9l-3 1v-10z" fill="#f6f5ee"/><path d="M213 336c.65234375 1.734375.65234375 1.734375 1 4-.99609375 2.140625-.99609375 2.140625-2.4375 4.25l-1.43359375 2.140625L209 348c-1.1171875-3.71875-1.1171875-3.71875-.0625-6.25L210 340h2l1-4z" fill="#ebe2be"/><path d="M430 276c3.11650396 1.50053894 6.13149298 3.06181958 9 5l1 3-2 2-1.2421875-1.49609375L435.125 282.5625l-1.6171875-1.93359375C432.0777243 278.89194996 432.0777243 278.89194996 430 278v-2z" fill="#ebe9de"/><path d="M710 272c3.66060821.58536753 5.54535164 2.083239 8.25 4.5625l2.140625 1.94140625L722 280l-3 1-2-1v-2l-3-1-4-5z" fill="#eeedd8"/><path d="M318 219l3 3 3-1c-.625 1.9375-.625 1.9375-2 4-3.125.75-3.125.75-6 1l2-7z" fill="#e9e1b5"/><path d="M449 170l3 4-10 2c.6875-2.4375.6875-2.4375 2-5 2.625-.8125 2.625-.8125 5-1z" fill="#dcdbae"/><path d="M640 159l4 1v2h2l1-2v4h-2c-1.62514468 1.45833358-1.62514468 1.45833358-3 3l-1-5-2 1 1-4z" fill="#ece1b3"/><path d="M981 108l1 4h-2l-1 5h-3l-2-5 3 1 4-5z" fill="#e5d594"/><path d="M1 988l2 1c.67375452 2.088639 1 3.80363095 1 6l1 2-1 2-3-1c-.95024979-3.69541586-.95024979-6.30458414 0-10z" fill="#e5d796"/><path d="M780 780h3c.36474164 5.47112462.36474164 5.47112462-1.25 7.8125-1.91591802 1.30008722-3.47970466 1.79606977-5.75 2.1875l1-4h2v-2h2l1-3-2-1z" fill="#ebe3b1"/><path d="M590 664h2v2l-3 2-1 3h5v1h-7l-2-2 6-6z" fill="#85846e"/><path d="M126 460c-.25 1.875-.25 1.875-1 4-2.0625 1.25-2.0625 1.25-4 2l-1-6c2.49092811-1.24546405 3.41080733-.7767578 6 0z" fill="#ece1b6"/><path d="M161 352c2 1 2 1 4 4l-8 7v-3l3-1-1-3c.9375-2.1875.9375-2.1875 2-4z" fill="#ece2b0"/><path d="M234 304h2c-1.01176437 3.40320742-1.64843582 4.75725331-4.625 6.8125L229 312v-6l1.9375-.4375c2.03795146-.37257181 2.03795146-.37257181 3.0625-1.5625z" fill="#e9e1b9"/><path d="M814.6875 279.375L817 280v3c-3.28976808 1.09658936-4.71303767.79953138-8 0v-2c3-2 3-2 5.6875-1.625z" fill="#ebe0b2"/><path d="M1 169l3 2c0 3.76687864-.23537317 4.91190305-2 8-2-2-2-2-2.1875-5.5625C0 170 0 170 1 169z" fill="#e3d699"/><path d="M1 39l4 2H3l.2890625 2.30078125L3.625 46.3125l.3515625 2.98828125C4 52 4 52 2 55l-1-7-.32421875-2.2109375L0 40l1-1z" fill="#e6d699"/><path d="M231 17l5 2-1 5h-5l1-7z" fill="#e7d697"/><path d="M27 863c1.9375.25 1.9375.25 4 1l2 3-7 3v-6l1-1z" fill="#e6d897"/><path d="M711 790l-9 6 1-5c3.27505596-1.89608503 4.35487529-2.21504157 8-1z" fill="#2b271e"/><path d="M816 730h3l-3 9h-2c-1-3-1-3 .4375-6.1875L816 730z" fill="#ebe0af"/><path d="M3 700l5 1-1 6c-1.9375-.75-1.9375-.75-4-2-.8125-2.0625-.8125-2.0625-1-4l1-1z" fill="#e8d797"/><path d="M691 672.5625c2.79724672 2.01052108 3.15065585 4.18168077 4 7.4375l-2 1-.75-1.75c-1.41683317-2.5502997-3.12627537-4.26785701-5.25-6.25 2-1 2-1 4-.4375z" fill="#eae9de"/><path d="M845 438c2.59513109 3.89269663 4.24290607 7.13772011 3.625 11.875L848 452c-3.2102122-3.2102122-2.98974759-6.37460314-3.0625-10.8125L845 438z" fill="#dbdbb7"/><path d="M614 358c2.85585054 2.85585054 3 6.04110311 3 10l1 3-2 1c-1.90608098-3.21182149-2.22266247-5.53882603-2.125-9.25l.0546875-2.703125L614 358z" fill="#e6e7e0"/><path d="M723 304h6c1.64826111 2.96687001 2.44271087 5.65626525 3 9l-9-9z" fill="#e3e6d9"/><path d="M249 288l1 2c-1.70847138 4.13629913-3.67356033 7.01767477-7 10l-1-3c1.43359375-2.26171875 1.43359375-2.26171875 3.4375-4.6875l1.99609375-2.44921875L249 288z" fill="#353225"/><path d="M785 0h8l-2 5c-2.4375-.8125-2.4375-.8125-5-2l-1-3z" fill="#e7d697"/><path d="M13 892l3 2-5 5-2-4 4-3zm-5 6l2 1z" fill="#e6d594"/><path d="M837 614h2l-1.375 5.9375-.7734375 3.33984375L836 626l-2 1 .375-4.25.2109375-2.390625C835.01507113 617.914123 835.78600638 616.15163097 837 614z" fill="#e6e5c3"/><path d="M405 442l2 1-2 3c-.16699232 3.12521833-.16699232 3.12521833 0 6l-3-1v-8l3-1z" fill="#76746b"/><path d="M798 273l1 3-5 5c-.6875-1.8125-.6875-1.8125-1-4 1.4375-1.75 1.4375-1.75 3-3l2 1v-2z" fill="#ece1b5"/><path d="M757 271h3v2h4v6c-5.875-4.625-5.875-4.625-7-8z" fill="#ddd9ba"/><path d="M798 258l5 1c-1.15173355 2.46800047-2.04783565 4.04783565-4 6v-3h-2l1-4z" fill="#ebe0b1"/><path d="M335 110l3 1-2 7-4-1 1-5h2v-2z" fill="#ecdfb0"/><path d="M1001 87l6 1c0 3 0 3-2 6v-2h-2v-2h-3l1-3z" fill="#e6d799"/><path d="M42 61c1.12733524 3.94567332 1.32234763 7.03295711 0 11h-2l-.125-4.375-.0703125-2.4609375C40 63 40 63 42 61z" fill="#e6d798"/><path d="M897 0c-.3125 1.9375-.3125 1.9375-1 4-3 1-3 1-5.1875.0625L889 3c2.46612788-3.1151089 4.10843984-3.31553191 8-3z" fill="#e5d590"/><path d="M646 658h4v2l1.875.25c2.125.75 2.125.75 3.375 2.8125L656 665c-3.566745 0-4.10543677-.63691955-6.6875-2.9375l-1.88671875-1.65234375L646 659v-1z" fill="#d1d3af"/><path d="M167 480h1v16h-3l2-16z" fill="#ede5c7"/><path d="M383.125 361.4375l2.7578125.30859375L388 362v2c-8.57142857.28571429-8.57142857.28571429-12-2 2.62315032-1.31157516 4.23033436-.89649988 7.125-.5625z" fill="#eef6f3"/><path d="M346 348l2 1-1 13h-1l-.5625-4.75-.31640625-2.671875c-.11566051-2.46244951.1425193-4.24350564.87890625-6.578125z" fill="#d8d7ce"/><path d="M2 344l2 1v10H0l2-11z" fill="#e4d598"/><path d="M2 124l2 1-2 3 3 1v2H3l-1 4-2-8 2-3z" fill="#e3d595"/><path d="M51 963l2 1h2l-1 5h-6c1.875-4.875 1.875-4.875 3-6z" fill="#e5d792"/><path d="M917 824l-2 4v-2l-2.375 1.5625L910 829l-2-1c2.64712686-3.90766346 4.13216265-5.62261245 9-4z" fill="#e4d79b"/><path d="M719 785l1 2-10 6v-3c2.95079533-2.22948981 5.48579624-3.82859875 9-5z" fill="#e4dfb2"/><path d="M191 386l2 3-1 1-1 7h-2l-1 2c.54855348-4.571279 1.41744803-8.67435795 3-13z" fill="#2c2a27"/><path d="M94 7l1 2h2l1-2v2l3 1-2 3-2-1v-2h-2l-1 3c-1.125-3.75-1.125-3.75 0-6z" fill="#e4d38f"/><path d="M578 0h9l-3 4-4-1V1l-2-1z" fill="#e5d697"/><path d="M1023 1015h1v9h-7v-1l5-1-2-2 3-5z" fill="#f1e4a9"/><path d="M969 962h4l1 4-4 2-2-5 1-1z" fill="#e6d492"/><path d="M563 851c-2.87299742 2.87299742-6.12618444 2.70850497-10 3h-3v-2c4.39436211-.85743651 8.52572076-1.08948558 13-1z" fill="#ece5bf"/><path d="M827 640l2 3c-.99799764 3.99199058-2.55799862 5.82006579-6 8 1.2125738-3.72433382 2.50859979-7.37802806 4-11z" fill="#d1cbb0"/><path d="M3 631l3 2-2 6H2l-1-7 2-1z" fill="#e6d595"/><path d="M808 420c2.32101984 3.48152976 2.69903201 5.86169011 3 10l-2 2c-1.26237731-2.52475462-1.09856404-4.31200466-1.0625-7.125l.02734375-2.7578125L808 420z" fill="#ccc8b9"/><path d="M815 355c1.875.5625 1.875.5625 4 2 1.25 3.625 1.25 3.625 2 7l-2 1-2-3.875-1.125-2.1796875C815 357 815 357 815 355z" fill="#d6d1b8"/><path d="M730 316l2 4-5 4-2-2 5-6z" fill="#d9d8cb"/><path d="M223 317l2 3c-1 2-1 2-3 3l-3-1c.3125-1.9375.3125-1.9375 1-4l3-1z" fill="#ebe4b3"/><path d="M1004 119l1 3 2 2c-1.875 1.0625-1.875 1.0625-4 2l-2-1v-4l3-2z" fill="#e5d696"/><path d="M214 24h6l-1 5-1-2-4 2v-5z" fill="#e7d796"/><path d="M738 21l1 2 3 1-1 4-5-1 2-6z" fill="#e6d69a"/><path d="M333 4l7 1-3 5h-2V7l-3-1 1-2z" fill="#e7d798"/><path d="M294 0l5 2-4 5-2-5 1-2z" fill="#e6d597"/><path d="M944 976l2 1 1 7-5-1 2-7z" fill="#e5d596"/><path d="M524 854h15v1l-2.80859375.1484375L532.5625 855.375l-3.62109375.2109375L526 856l-1 2-1-4z" fill="#f3e9be"/><path d="M740 816l3 1v4l-4 1c0-3 0-3 1-6zm-3 6l2 1z" fill="#ebe1ae"/><path d="M615 666c4.1666604.47348414 6.92884715 1.04696841 10 4v2h-3v-2l-2.375-.875C617 668 617 668 615 666z" fill="#4f5349"/><path d="M340 659l3.4375 2.875 1.93359375 1.6171875C347 665 347 665 348 667h-3l-1-2-4-2v-4z" fill="#151614"/><path d="M431 590c0 3 0 3-1 6l-7 2 8-8z" fill="#312e2f"/><path d="M341 470h10v2l-7 1v-2l-3-1z" fill="#444633"/><path d="M29 442l5 2v2h-2l-1 2h-1l-2 1v-6l1-1z" fill="#e4d79a"/><path d="M210 425h1l1 10-3 2-.0625-4.3125-.03515625-2.42578125C209 428 209 428 210 425z" fill="#d7d6c6"/><path d="M354 319c1.60080151 4.00200378.29279692 7.04556236-1 11h-1l-.125-4.375-.0703125-2.4609375C352 321 352 321 354 319z" fill="#121319"/><path d="M440 288c3 2 3 2 3.51171875 3.9453125L444 298l-2 1-2-11z" fill="#f5f6e3"/><path d="M364 197l2 3c-4.30769231 3.07692308-4.30769231 3.07692308-7.8125 2.6875L356 202l1-2 7-1v-2z" fill="#ebe5bf"/><path d="M2 19l3 1c.6875 2.0625.6875 2.0625 1 4l-5 2 1-7z" fill="#e6d48e"/><path d="M46 12l2 1-4 2 2-3zm-7 3l4 1-1 3-4-1 1-3z" fill="#e6d797"/><path d="M649 7l6 2-1 5-5-4V7z" fill="#e3d498"/><path d="M35 1016l3 1v2h-2v4l-3-1v-4h2v-2z" fill="#e6d897"/><path d="M930 984c2.625.375 2.625.375 5 1l-2 1-1 3-5-1c1-2 1-2 3-4z" fill="#e5d695"/><path d="M2 899h2c.08226668 3.04386724-.02391783 5.07175348-1 8H0c.875-6.875.875-6.875 2-8z" fill="#e6d699"/><path d="M78 825l2 2-1 2.875c-1.10159191 2.89562452-1.10159191 2.89562452-1 5.125h-2l-1-6 2-1 1-3z" fill="#e5d79a"/><path d="M49 733h3v2h2l-1 3-3 1-2-5 1-1z" fill="#e4d79b"/><path d="M505 674l3 1-1.2421875 1.42578125L505.125 678.3125l-1.6171875 1.86328125C501.8359553 682.13498212 501.8359553 682.13498212 500 685c.45336079-4.87362847 1.7089159-7.39042389 5-11z" fill="#f7f4e1"/><path d="M625 668l3 1v4h-10v-1h7v-4z" fill="#303133"/><path d="M216 621h2l3 9-3-1c-1.4477922-2.89558441-2-4.74188938-2-8z" fill="#383738"/><path d="M2 514h2l1 6-3 2-1-7 1-1z" fill="#e5d693"/><path d="M362 452c1.28485596 5.13942384.22194431 6.37835584-2 11l-3-2 5-9z" fill="#292823"/><path d="M704 424h2l4 9-2 1v-3h-2c-1.4606285-2.64738916-2-3.89448334-2-7z" fill="#e5decc"/><path d="M445 420l4 1v2l3 1 1 5c-2.93200474-2.85276137-5.64315404-5.65079784-8-9z" fill="#e5e2dc"/><path d="M331 421l3 1-7 7-1-3 3-1c1.20882096-2.00016466 1.20882096-2.00016466 2-4z" fill="#fbf8df"/><path d="M726 416l3 2-2 1-2-1-1 4h-5c4.75-4.875 4.75-4.875 7-6z" fill="#dfddcd"/><path d="M237 353l3 1-4 8-2-3 3-6z" fill="#262620"/><path d="M814 264h2l3 4h-2l-1 3-3-2 1-5z" fill="#eae0b0"/><path d="M983 8l7 1-1 3h-5l-1-4z" fill="#e6d695"/><path d="M230 8h2l3 5c-3.51716303 0-4.37121748-.82445585-7-3l2-2z" fill="#e8d797"/><path d="M874 948c2 3 2 3 2 6h-4l-1 2-1-2 1.4375-1.3125c1.79936957-1.71059613 1.79936957-1.71059613 2.5625-4.6875z" fill="#e6d798"/><path d="M328 804c3.82097239.53069061 6.06171403 1.49701566 9 4l-1 2-3-1v-2l-1.9375-.375L329 806l-1-2z" fill="#e1debd"/><path d="M806 776h2l.375 1.9375L809 780l2 1-3 2c-1.5625-1.25-1.5625-1.25-3-3 .3125-2.1875.3125-2.1875 1-4z" fill="#eae0b2"/><path d="M717 746l1 4-3 2-2-2 4-4zm-6 8l2 1z" fill="#2b2a27"/><path d="M279 719l5 5-1 3c-2-1.75-2-1.75-4-4v-4z" fill="#e0dbcc"/><path d="M320 684c1.875.25 1.875.25 4 1 1.125 1.9375 1.125 1.9375 2 4l2 2c-3 0-3 0-5.6875-2.375C320 686 320 686 320 684z" fill="#191716"/><path d="M532 671c-2.61973266 2.61973266-4.35166422 2.70813314-8 3-2.375-.9375-2.375-.9375-4-2 4.41225737-1.47075246 7.48281619-2.36884358 12-1z" fill="#3c3d33"/><path d="M604 662h9l2 4-11-3v-1z" fill="#3e403e"/><path d="M816 572h2c-.75 6.625-.75 6.625-3 10-.125-6.625-.125-6.625 1-10z" fill="#2c2e2e"/><path d="M323 429h2c-.54226981 3.79588866-2.20127563 5.47211993-5 8 .54723683-3.37462715 1.0549-5.08235 3-8z" fill="#f2eed6"/><path d="M367 420h5l.3125 1.9375L373 424l3 1-3 1c-3.1875-2.375-3.1875-2.375-6-5v-1z" fill="#282421"/><path d="M163 392l3 2v2l2 1-5 1-1-5 1-1z" fill="#eae2b2"/><path d="M578 368l1 4-2 3c-2.625.1875-2.625.1875-5 0l6-7z" fill="#242425"/><path d="M800 328l4 1 2 9c-2.52349243-3.12432397-4.27256146-6.38060496-6-10z" fill="#d7d3b8"/><path d="M284 250l2 2-6 5-1-2 5-5z" fill="#d9d6b2"/><path d="M665 155l3 3c-1.75 2.0625-1.75 2.0625-4 4-2.25-.25-2.25-.25-4-1l3-1c1.21869929-2.50447516 1.21869929-2.50447516 2-5z" fill="#ebe0b5"/><path d="M182 9l2 1-1 4h-3v2l-2-1 2-4h2V9z" fill="#e4d696"/><path d="M697 862l4 1-1 3h-2l-1 2c-1-3-1-3 0-6z" fill="#eae0b3"/><path d="M937 830l2 3-2 4-4-3 4-4z" fill="#e3d699"/><path d="M785 713l1 2-5 7-2-2 3-4h2l1-3z" fill="#2a241b"/><path d="M659 668h3v2l7 1v1h-8l-2-4z" fill="#eff0d5"/><path d="M147 396h6c-2.1385485 2.1385485-3.13275314 2.42655063-6 3v-3zm-3 2l3 1v3l-3-1v-3z" fill="#ece1b2"/><path d="M432 340l.375 1.9375L433 344l2 1-1 7c-2.60018816-3.90028225-2.15085514-7.47434569-2-12z" fill="#f1f2e1"/><path d="M751 266l7 6-2 2v-2l-1.9375-.75C752 270 752 270 751 266z" fill="#31302a"/><path d="M339 215l-7 4-3-1c5.625-4.3125 5.625-4.3125 10-3z" fill="#d8d4b2"/><path d="M654 198c4.27343092-.36629408 6.48812804.59185923 10 3-1.625.6875-1.625.6875-4 1-3.25-1.4375-3.25-1.4375-6-3v-1z" fill="#d6d3b7"/><path d="M226 57l-6 3-2-1v-2c3.28976808-1.09658936 4.71303767-.79953138 8 0z" fill="#e5d698"/><path d="M926 1018c2.15473199 1.5801368 4.10646634 3.10646634 6 5l-4 1-3-4 1-2z" fill="#e4d899"/><path d="M920 1009l4 1-1 4-4-1 1-4z" fill="#e6d798"/><path d="M876 998h5l1 3-4 1-2-4z" fill="#e6d894"/><path d="M983 974l2 1-1 4h-3l-1-3h3v-2z" fill="#e6d797"/><path d="M890 971h6l-2 4-4-1v-3z" fill="#e5d699"/><path d="M287 849l3 1-3 6-1-3-2-1 3-3z" fill="#ece1b3"/><path d="M716 828l3 1-2 4h-3v-4l2-1z" fill="#ece1b4"/><path d="M691 824v2l-2 1c-.65555119 2.52733235-.65555119 2.52733235-1 5l-3-3h2l-1-3c3-2 3-2 5-2z" fill="#ede4b3"/><path d="M782 816l5 1-2 1v2l-4-1 1-3z" fill="#ecdfae"/><path d="M2 768h2v8l-2-1c-.6875-3-.6875-3-1-6l1-1z" fill="#e7d797"/><path d="M328 692l8 2v3c-5.75-1.625-5.75-1.625-8-5z" fill="#21221c"/><path d="M903 598l4 1-2 5-3-2 1-4z" fill="#eadfaf"/><path d="M198 524c2.60018816 3.90028225 2.15085514 7.47434569 2 12h-1l-1.0625-4.875-.59765625-2.7421875C197 526 197 526 198 524z" fill="#494a45"/><path d="M615 454l2 1c-2.625 4.875-2.625 4.875-6 6 1.07401108-2.91517292 1.77810176-4.77810176 4-7z" fill="#e4e8d4"/><path d="M139 440l3 1-1 4-4-1 2-4z" fill="#ede2b6"/><path d="M837 411c2.4294516 3.6441774 2.16179575 5.71241272 2 10-1.5625-1.625-1.5625-1.625-3-4 .3125-3.25.3125-3.25 1-6z" fill="#302f2f"/><path d="M593 408h4v2l3 1h-8l1-3z" fill="#eeefef"/><path d="M735 404l4 1c-1.75 3.875-1.75 3.875-4 5l-1-5 1-1z" fill="#222522"/><path d="M693 397h5l-5 5-1-3 1-2z" fill="#eeefde"/><path d="M701 391l2 1c-1.36983503 3.16115776-1.9890638 3.9927092-5 6v-4h3v-3z" fill="#e0dfcc"/><path d="M718 386l2 1 2 7-2 1-3-6 1-3z" fill="#e4e3dd"/><path d="M707 382h2c-1.625 5.75-1.625 5.75-5 8 1.875-6.875 1.875-6.875 3-8z" fill="#f0f2d7"/><path d="M694 358c1 3 1 3 0 6l-5 1 5-7z" fill="#e1e3d0"/><path d="M201 358l3 1-3 5h-2v-4h2v-2z" fill="#dddab8"/><path d="M492 355l7 6-1 2h-2l-.875-1.9375c-.95323451-2.21456079-.95323451-2.21456079-3.125-3.0625v-3z" fill="#edecd7"/><path d="M346 343l2 1c.36923077 4.55384615.36923077 4.55384615-1.5 6.8125L345 352c-.125-6.75-.125-6.75 1-9z" fill="#f2f2db"/><path d="M760 220l4 1-1 5-3-1v-5z" fill="#e9e1b0"/><path d="M781 211l2 3-5 3-1-3 4-3z" fill="#eae0af"/><path d="M722 8h3l1 4-6 2v-2h2V8z" fill="#e7d59a"/><path d="M74 0h6l-2 1-1 3h-4l1-4z" fill="#e6d594"/></svg>