<?xml version="1.0" standalone="no"?>
<!DOCTYPE svg PUBLIC "-//W3C//DTD SVG 20010904//EN"
 "http://www.w3.org/TR/2001/REC-SVG-20010904/DTD/svg10.dtd">
<svg version="1.0" xmlns="http://www.w3.org/2000/svg"
 width="512.000000pt" height="512.000000pt" viewBox="0 0 512.000000 512.000000"
 preserveAspectRatio="xMidYMid meet">

<g transform="translate(0.000000,512.000000) scale(0.100000,-0.100000)"
fill="#000000" stroke="none">
<path d="M1818 4982 c-147 -147 -155 -161 -124 -220 23 -45 248 -258 278 -264
33 -6 83 14 97 41 23 42 13 80 -35 131 l-47 50 979 0 c754 1 983 3 995 13 44
34 50 93 15 134 l-24 28 -977 3 -976 2 40 47 c31 34 41 54 41 80 0 47 -45 93
-91 93 -29 0 -50 -17 -171 -138z"/>
<path d="M887 4736 c-114 -48 -175 -105 -223 -210 -34 -74 -43 -182 -21 -256
9 -30 201 -500 426 -1045 226 -544 409 -991 407 -993 -2 -2 -21 5 -43 16 -89
46 -183 67 -298 67 -130 -1 -181 -19 -245 -92 -117 -133 -54 -363 164 -601 75
-82 127 -151 290 -387 241 -348 408 -532 625 -690 281 -204 402 -299 514 -402
152 -139 172 -151 223 -135 22 7 405 164 853 350 654 271 818 343 834 364 20
26 20 30 4 125 -9 54 -18 116 -22 138 -3 22 -10 202 -15 400 -13 491 -29 623
-95 821 -39 115 -554 1363 -580 1405 -13 19 -46 56 -74 82 -149 134 -378 122
-523 -26 -30 -31 -42 -38 -46 -27 -11 32 -100 114 -157 143 -56 30 -67 32
-165 32 -93 0 -111 -3 -162 -27 -32 -15 -80 -49 -106 -75 l-49 -49 -33 48
c-35 52 -129 121 -188 138 -147 44 -292 9 -400 -96 -50 -48 -54 -50 -62 -30
-36 95 -328 792 -347 829 -34 69 -103 133 -181 170 -57 27 -80 32 -157 35 -77
2 -99 -1 -148 -22z m228 -175 c22 -10 52 -32 68 -48 19 -21 137 -293 387 -899
198 -478 370 -891 382 -917 35 -77 93 -97 147 -51 23 19 31 34 31 59 0 19 -57
170 -140 369 -76 185 -142 352 -146 371 -10 58 19 136 70 183 86 79 196 81
285 6 43 -37 37 -24 237 -507 118 -288 129 -310 159 -324 61 -29 125 8 125 73
0 22 -36 121 -97 267 -92 219 -97 236 -98 304 0 65 3 75 31 109 49 61 78 77
142 82 73 5 138 -20 174 -69 14 -19 76 -157 139 -308 104 -252 115 -274 145
-288 59 -29 124 10 124 74 0 19 -24 94 -54 166 -66 161 -70 181 -55 243 26
100 140 171 235 145 51 -14 99 -44 119 -75 9 -14 82 -184 161 -378 80 -194
199 -481 264 -638 130 -315 172 -437 195 -567 18 -103 35 -394 35 -613 0 -146
10 -308 25 -445 l7 -61 -173 -71 c-96 -40 -430 -178 -744 -308 -313 -131 -577
-239 -586 -242 -11 -3 -45 21 -95 67 -116 106 -288 242 -469 371 -116 82 -193
146 -280 233 -139 139 -202 218 -384 481 -118 171 -203 282 -350 458 -52 62
-107 163 -117 215 -17 84 32 119 151 108 150 -14 267 -74 396 -207 65 -67 83
-94 114 -167 41 -97 71 -132 116 -132 39 0 89 48 89 85 0 14 -239 603 -531
1308 -293 705 -534 1300 -536 1322 -11 88 41 180 122 216 51 24 129 24 180 0z"/>
<path d="M4119 4551 c-44 -44 -40 -81 17 -141 l46 -50 -982 -2 -982 -3 -24
-28 c-33 -39 -31 -81 5 -118 l29 -29 978 0 977 0 -47 -50 c-37 -39 -46 -56
-46 -85 0 -51 36 -85 90 -85 40 0 48 6 162 118 193 189 193 181 10 364 -121
121 -142 138 -171 138 -23 0 -41 -9 -62 -29z"/>
</g>
</svg>
