<svg xmlns="http://www.w3.org/2000/svg" width="1024" height="1024" xmlns:v="https://vecta.io/nano"><path d="M0 0h1024v1024H0V0z" fill="#d8d6ce"/><path d="M662 188c2.18408179 1.14604503 2.18408179 1.14604503 4 3 .49679399 2.674514.49679399 2.674514.49219131 5.97577953l.02413393 3.8076126-.03530717 4.20639974.01035666 4.45017749-.02711224 12.25916082-.00839091 13.20855415-.03295135 22.89484214-.04795197 33.10234581-.07321045 53.70279374-.08203125 52.17578125-.00318452 3.24710073-.01524762 16.12640903L666 550l2.80615234.86816406c3.8062105 1.34884512 6.6278379 3.48825981 9.81884766 5.88183594 7.32336662 5.26463866 15.10092329 9.34895667 23.1875 13.3125l1.84228516.90332031 9.03417968 4.40771485c11.45608884 5.62752277 22.64907524 11.76538366 33.78564454 17.99609375L768 605c-.77168367 7.5625-.77168367 7.5625-3.6875 10.9375l-1.44921875 1.77734375C760.08183053 619.6332867 758.32510474 619.41865726 755 619c-2.45625187-1.05432098-4.63380506-2.12188781-6.9375-3.4375l-1.99291992-1.09912109c-4.96859491-2.76619304-9.82430867-5.71232265-14.67114258-8.68603516-6.31063026-3.82229231-12.82295133-7.25254309-19.3359375-10.71484375-7.36727097-3.92232898-14.65375896-7.8775927-21.6875-12.375-10.62112228-6.78885809-21.20211367-13.12539076-33.02514648-17.59301758-3.8188819-1.4469492-7.38097135-3.09759825-10.97485352-5.03198242-12.60749742-6.46408502-26.73108244-9.93489329-40.32421875-13.71606445-6.91022634-1.95190619-13.70473034-4.18097551-20.48828125-6.53393555l-2.92529297-1.00952148C577.89926024 537.13517763 573.49542307 535.24771154 569 533c-2.55881965-.8376284-5.10381836-1.62686323-7.6875-2.375-6.75296355-2.03175584-12.93073795-4.58606569-19.3125-7.625l-12-5V238l32.93359375-13.8671875 3.02868652-1.21713257L575.4375 219.125l3.30105591-1.32116699c14.17135253-5.66745202 28.37886265-11.16865016 42.74337768-16.32653809C631.14646648 197.99713448 640.58062418 194.08958755 650 190c4.26339123-1.83746157 7.30104127-2.42717807 12-2z" fill="#fafbfb"/><path d="M379.81884765625 189.51953125c3.53809607.77937912 6.94227868 1.80792034 10.36865234 2.98046875l2.3413086.78979492c6.90456215 2.39279981 13.57252214 5.25698052 20.26049804 8.19189453 6.37503737 2.78071747 12.80882288 5.30495731 19.33569336 7.70581055 10.91655245 4.02103247 21.71196529 8.31225185 32.50244141 12.65692139l33.81933594 13.22369384 2.99853515 1.13891602 2.60986328.98364258C505.99999999625 238 505.99999999625 238 506.99999999625 239c.09745033 1.4109126.12555435 2.82668139.12584114 4.24095535l.00790227 2.78956723-.00675976 3.10064197.00472724 3.26638484-.00231635 10.92764592.00531005 7.7991333.00058736 19.04888454-.00147618 15.49587712.00046434 2.22532486.00097259 4.47553788-.00580036 42.03740573.00091876 36.01939907.00438773 41.82799602-.00094306 4.47036671-.0004675 2.22160329.00294705 15.44723522-.00489425 20.85115051.00126266 7.63681793c.01950025 24.71540751.01950025 24.71540751-1.13266373 35.11807251l-26.3125 10.625c-8.83739443 3.39869609-8.83739443 3.39869609-17.5625 7.0703125-3.53662553 1.47654116-7.12595777 2.53705741-10.8125 3.5546875-7.41250549 2.10855953-14.67204754 4.54851446-21.92065429 7.16308594-5.64076675 2.02257165-11.33068308 3.81609557-17.06274414 5.56225586-23.0583993 7.09710339-44.33467156 16.06433946-64.94580079 28.58959961l-14.25830078 8.37255859-3.09399414 1.80615234-14.36694336 8.31494141c-8.78602284 5.03135617-17.28511568 10.25282415-25.6640625 15.94140625-4.28254918 2.85233936-7.70355409 5.01421305-13 4-3.41936464-2.09316247-5.70277519-4.1083256-7-8-.12781786-2.67394964-.04391871-5.32095857 0-8l1.84155274-.85107422c10.78584417-5.00840273 21.42497451-10.06774565 31.59838867-16.23852539 6.02345117-3.6418056 12.17458609-7.01286141 18.37255859-10.34790039l3.08447266-1.66210937 6.12255859-3.29541016 13.79296875-7.47998047 2.49414063-1.36279297c5.27733081-2.91032456 10.35346364-5.98289064 15.30664062-9.42236328 3.00680663-1.68794546 6.07057655-2.43306913 9.38671875-3.33984375l-.08923983-1.94990587c-.83078729-18.6843292-1.06700424-37.33914075-1.07080293-56.03907538l-.01613521-12.07248115-.02401066-26.21397972-.01150418-16.38949013-.02587509-45.47714996-.00066535-2.92154172-.00066145-2.92778108-.00133967-5.87187624-.000671-2.94196182-.04468852-47.42074192-.03734193-48.80897337-.02481961-27.358459-.0122619-23.22896594-.01105734-11.84948712.00059071-10.83331543-.02142206-5.79631895.01996923-3.45103884-.00180936-2.98995924c.37374615-2.45749712.37374615-2.45749712 1.66725588-4.30772877 2.50843352-1.69008726 4.65577588-1.11667004 7.52533793-.6302371z" fill="#f9fafa"/><path d="M662 188c2.18408179 1.14604503 2.18408179 1.14604503 4 3 .49679399 2.674514.49679399 2.674514.49219131 5.97577953l.02413393 3.8076126-.03530717 4.20639974.01035666 4.45017749-.02711224 12.25916082-.00839091 13.20855415-.03295135 22.89484214-.04795197 33.10234581-.07321045 53.70279374-.08203125 52.17578125-.00318452 3.24710073-.01524762 16.12640903L666 550l2.80615234.86816406c3.8062105 1.34884512 6.6278379 3.48825981 9.81884766 5.88183594 7.32336662 5.26463866 15.10092329 9.34895667 23.1875 13.3125l1.84228516.90332031 9.03417968 4.40771485c11.45608884 5.62752277 22.64907524 11.76538366 33.78564454 17.99609375L768 605c-.77168367 7.5625-.77168367 7.5625-3.6875 10.9375l-1.44921875 1.77734375C760.08183053 619.6332867 758.32510474 619.41865726 755 619c-2.45625187-1.05432098-4.63380506-2.12188781-6.9375-3.4375l-1.99291992-1.09912109c-4.96859491-2.76619304-9.82430867-5.71232265-14.67114258-8.68603516-6.31063026-3.82229231-12.82295133-7.25254309-19.3359375-10.71484375-7.36727097-3.92232898-14.65375896-7.8775927-21.6875-12.375-10.62112228-6.78885809-21.20211367-13.12539076-33.02514648-17.59301758-3.8188819-1.4469492-7.38097135-3.09759825-10.97485352-5.03198242-12.60749742-6.46408502-26.73108244-9.93489329-40.32421875-13.71606445-6.91022634-1.95190619-13.70473034-4.18097551-20.48828125-6.53393555l-2.92529297-1.00952148C577.89926024 537.13517763 573.49542307 535.24771154 569 533c-2.55881965-.8376284-5.10381836-1.62686323-7.6875-2.375-6.75296355-2.03175584-12.93073795-4.58606569-19.3125-7.625l-12-5V238l32.93359375-13.8671875 3.02868652-1.21713257L575.4375 219.125l3.30105591-1.32116699c14.17135253-5.66745202 28.37886265-11.16865016 42.74337768-16.32653809C631.14646648 197.99713448 640.58062418 194.08958755 650 190c4.26339123-1.83746157 7.30104127-2.42717807 12-2zm-31.03125 32.44921875l-2.03747559.77119446L622.5 223.6875l-4.2265625 1.60742188-10.31802368 3.95245361-5.64559937 2.16619873L586.1875 237.75c-7.89903143 3.19833438-15.88962501 6.15111461-23.88793945 9.09082031l-2.9909668 1.10839844-2.66235352.97924805C553.69348845 250.1241147 550.84932511 251.57533744 548 253v123l4-2c4.20365883-.57903708 7.91614049-.42411894 11.875 1.125 3.19684498 2.82074557 4.88086645 5.52286711 5.328125 9.83203125-.1600757 4.18597964-1.25101164 6.61803496-4.265625 9.54296875-4.06354021 3.09164193-6.95010836 3.08186236-11.9375 2.5l-3-1c-2.25503793 5.42645772-2.27155541 10.27472586-2.22705078 16.04443359l-.00088501 3.01739502.03262329 9.83660889.00857544 6.83486938.04940796 17.96200562.03967285 18.33984375L548 504l4.26643372 1.91346741 2.39986896 1.07632541c3.18721491 1.37967651 6.43183525 2.51706842 9.72041607 3.63130093l2.01313782.68678284L572.6875 513.4375l8.26171875 2.80859375 2.04467773.69378662 13.51782227 4.75933838c4.84018145 1.7386726 9.65900952 3.30016927 14.61328125 4.67578125 7.57217411 2.14429314 14.97069641 4.69559428 22.36376953 7.39013672l2.44091797.87939453 2.16357422.79223633c2.05489122.70487726 2.05489122.70487726 4.90673828.56323242V218c-4.94373317 0-7.49252936.71394781-12.03125 2.44921875z" fill="#1f1f1e"/><path d="M379.81884765625 189.51953125c3.53809607.77937912 6.94227868 1.80792034 10.36865234 2.98046875l2.3413086.78979492c6.90456215 2.39279981 13.57252214 5.25698052 20.26049804 8.19189453 6.37503737 2.78071747 12.80882288 5.30495731 19.33569336 7.70581055 10.91655245 4.02103247 21.71196529 8.31225185 32.50244141 12.65692139l33.81933594 13.22369384 2.99853515 1.13891602 2.60986328.98364258C505.99999999625 238 505.99999999625 238 506.99999999625 239c.09745033 1.4109126.12555435 2.82668139.12584114 4.24095535l.00790227 2.78956723-.00675976 3.10064197.00472724 3.26638484-.00231635 10.92764592.00531005 7.7991333.00058736 19.04888454-.00147618 15.49587712.00046434 2.22532486.00097259 4.47553788-.00580036 42.03740573.00091876 36.01939907.00438773 41.82799602-.00094306 4.47036671-.0004675 2.22160329.00294705 15.44723522-.00489425 20.85115051.00126266 7.63681793c.01950025 24.71540751.01950025 24.71540751-1.13266373 35.11807251l-26.3125 10.625c-8.83739443 3.39869609-8.83739443 3.39869609-17.5625 7.0703125-3.53662553 1.47654116-7.12595777 2.53705741-10.8125 3.5546875-7.41250549 2.10855953-14.67204754 4.54851446-21.92065429 7.16308594-5.64076675 2.02257165-11.33068308 3.81609557-17.06274414 5.56225586-23.0583993 7.09710339-44.33467156 16.06433946-64.94580079 28.58959961l-14.25830078 8.37255859-3.09399414 1.80615234-14.36694336 8.31494141c-8.78602284 5.03135617-17.28511568 10.25282415-25.6640625 15.94140625-4.28254918 2.85233936-7.70355409 5.01421305-13 4-3.41936464-2.09316247-5.70277519-4.1083256-7-8-.12781786-2.67394964-.04391871-5.32095857 0-8l1.84155274-.85107422c10.78584417-5.00840273 21.42497451-10.06774565 31.59838867-16.23852539 6.02345117-3.6418056 12.17458609-7.01286141 18.37255859-10.34790039l3.08447266-1.66210937 6.12255859-3.29541016 13.79296875-7.47998047 2.49414063-1.36279297c5.27733081-2.91032456 10.35346364-5.98289064 15.30664062-9.42236328 3.00680663-1.68794546 6.07057655-2.43306913 9.38671875-3.33984375l-.08923983-1.94990587c-.83078729-18.6843292-1.06700424-37.33914075-1.07080293-56.03907538l-.01613521-12.07248115-.02401066-26.21397972-.01150418-16.38949013-.02587509-45.47714996-.00066535-2.92154172-.00066145-2.92778108-.00133967-5.87187624-.000671-2.94196182-.04468852-47.42074192-.03734193-48.80897337-.02481961-27.358459-.0122619-23.22896594-.01105734-11.84948712.00059071-10.83331543-.02142206-5.79631895.01996923-3.45103884-.00180936-2.98995924c.37374615-2.45749712.37374615-2.45749712 1.66725588-4.30772877 2.50843352-1.69008726 4.65577588-1.11667004 7.52533793-.6302371zM392.99999999625 218v318c7.87657697-1.96914424 15.55037348-4.00329135 23.25-6.5l3.20361328-1.03149414 30.06298829-10.17163086L488.99999999625 505V396l-10 1c-3.60249471-1.67258683-5.35251465-2.91104736-7.375-6.3125-1.11196214-4.78143721-1.53284467-8.22846391 1.125-12.5 3.49855492-3.40137283 3.49855492-3.40137283 6.25-4.1875 3.55316023.31168072 6.61773432.87257811 10 2V253l-12-4-6.4609375-2.41015625-3.38452148-1.29492188-3.52954102-1.35742187-23.97265625-8.99609375-2.06298828-.75172424-9.86621093-3.57273865-3.59423829-1.30444336-3.15405273-1.13671875c-3.09436183-1.22301572-6.00670158-2.67589125-8.97485352-4.17578125-2.15146418-.73369106-4.31920023-1.42124102-6.5-2.0625-4.20002074-1.24500615-8.34027048-2.5509235-12.5-3.9375z" fill="#1c1c1b"/><path d="M519 200l12.75-.3125 3.59765625-.12695312C543.71173058 199.44628356 550.75412794 200.59799652 558 205c3.26855781 3.65246322 4.94979163 7.23693376 6 12l2.1953125-.25390625C571.3349182 216.20472195 575.91365942 215.76278202 581 217c-2.98565957 1.99043971-5.7568833 3.22083551-9.07421875 4.57421875l-3.69189453 1.51464844L564.3125 224.6875l-7.91015625 3.24609375-1.95489502.80361938c-6.2829901 2.59152456-12.48959939 5.33621776-18.67401123 8.15341187C533 238 533 238 530 238l1 278h-1v-10h-24V239l-21-8-15.3125-6-3.75976562-1.48046875L457 220v-1l2.375-.375c2.76557822-.41617993 2.76557822-.41617993 4.625-2.625l3 1 .8125-1.625L469 213l1.375-3.125c1.81681364-3.2143626 2.26255614-3.6574105 5.625-4.875 2.72659572-.35901858 5.38694782-.6270538 8.125-.81640625l2.37548828-.1860199L494 203.4375l7.49951172-.57078552 4.66113281-.34732056c2.78346471-.21059421 5.45290651-.41859352 8.15966797-1.12461853C516 201 516 201 519 202v-2z" fill="#e2ad36"/><path d="M757 238c3.0783585 2.66013726 4.70069367 4.4060711 5.45754528 8.43661618.18338115 3.06163752.19892865 6.08658792.16391468 9.1536243l.01936007 3.5584358-.01651478 9.75291931.00774431 10.52761889-.01911324 20.61191989-.01969409 23.99869171-.05125004 42.81271298-.04101563 41.55566406-.0153594 45.24700678-.00314996 2.41584485-.00633317 4.80370076-.00611755 16.73448598-.03194636 20.38456226-.01316244 10.40338062-.0304985 11.26654244.01614523 3.33623659-.02744436 3.04241979-.00476122 2.62747443C761.90787459 531.56737408 761.09406609 532.95189827 759 535c-7.07713103-.09028725-13.58153434-2.13649657-20.3125-4.1875l-3.18505859-.94897461L726 527l-10.125-3.0625-2.40625-.72827148c-8.94154995-2.68624463-17.95334562-5.11398584-26.97192383-7.52661133L677 513l1-18c6.18955759.55559085 11.85531128 1.59018687 17.8125 3.328125l2.46240234.699646L706 501.25l5.08203125 1.44921875L743 512V261l-13 4-7.1394043 1.97802734c-11.3181151 3.10197591-22.37962992 6.86228408-33.4387207 10.77050782l-3.62109375 1.27490234-3.24487305 1.15380859C680 281 680 281 678 281v-19c17.18789776-6.61072991 34.64046037-12.43859004 52.24609375-17.8359375l8.0390625-2.578125 2.16796875-.70825195 4.05859375-1.35498047C748.81531381 238.12887598 752.50348699 237.31266837 757 238z" fill="#1d1d1c"/><path d="M289 239c3.64639541.85370731 7.18712319 1.97562093 10.75 3.125l3.2734375 1.03149414L315 247l5.38867188 1.73681641L349.3125 258.12109375l2.56915283.83552551C357.76822784 260.88411392 357.76822784 260.88411392 360 262v19l-4.06640625-1.23046875-14.92808533-4.36898804L307.6875 265.5l-2.32983398-.7355957C300.27816392 263.13908196 300.27816392 263.13908196 298 262l-1 250 16-5 10.1875-2.9375 5.3203125-1.50390625 2.71191406-.76611328 8.64746094-2.50732422 2.88989258-.84204102 5.49169922-1.61474609 2.50512695-.72680664 2.19750977-.64599609C355 495 355 495 359 495l1 18-7.5 1.875c-10.70977935 2.75558989-21.23430129 6.10302467-31.76367188 9.47021484-7.78572049 2.48012798-15.58838863 4.74467436-23.50219726 6.78247071-3.5374868.95413605-6.9685609 2.0835035-10.40209961 3.35668945C285 535 285 535 281 535c-2.529443-4.85193009-2.28953076-9.51112952-2.2784729-14.84326172l-.01755273-3.02743721-.02282203-10.05898857-.03044128-7.21118164-.0473671-15.55584717-.06833128-22.61189866L278.421875 424.84375l-.10449219-35.515625-.00745924-2.19550109-.02987196-8.74483883-.17888584-56.2076093-.01140511-3.86221886-.03940093-18.43609046-.16132939-28.78044701-.11853087-10.57432366-.12965512-6.98263168-.03668786-4.10354614-.06061363-3.51272583C278.59485087 239.18400611 282.89493099 238.30679495 289 239z" fill="#1b1b1b"/><path d="M416 252l3.81079102.43652344 2.14356994.24554443c2.85944942.4444141 5.32496194 1.44043688 7.98313904 2.56793213 5.17062513 2.08386402 10.33372427 3.78903413 15.6875 5.3125 5.75030884 1.63992661 11.38558255 3.41890048 16.98046875 5.54296875C465.37816269 267.14127122 468.19203871 268.0640129 471 269v101c-11.84270472-.56393832-23.06659931-1.12246802-34.734375-2.5234375C429.86124104 366.72673793 423.43510232 366.37742554 417 366c-1.10886046-12.71201532-1.12982297-25.3690527-1.09765625-38.12109375l.00428772-6.59449768.02470398-17.20701599.01983643-17.6184082L416 252z" fill="#1e1e1f"/><path d="M620 252v113c-18.59460212 2.32432526-34.47946258 4-53 4V268c46.66666667-16 46.66666667-16 53-16z" fill="#1b1c1c"/><path d="M220 275c3.23300654.72742647 6.35293357 1.71728231 9.5 2.75l5.3046875 1.66015625 2.64746094.82470703c3.69510225 1.10966371 7.42292008 2.04873262 11.17285156 2.95263672 5.8620017 1.42091116 11.61826579 3.01352056 17.375 4.8125v17c-7.59609067-.65455675-14.8349911-2.19254587-22.25-3.9375l-3.5078125-.80273438C235.26856266 299.10250765 230.7625467 297.90501868 226 296v195l12-3 7.6875-1.5625 12.5-2.625C262 483 262 483 266 483c.67585277 3.970635 1.06091937 7.72258108 1.03125 11.75390625l-.01367188 2.42016602L267 499l-3.453125.79443359-12.77001953 2.94091797-5.51074219 1.26855469L237.3125 505.8359375l-2.45996094.5652771-11.28295898 2.71304321C219.32015525 510.16869412 216.34212034 510.44157156 212 510c-2.04961897-1.74576705-2.882956-3.18991949-3.26938128-5.8644315-.12016475-2.42251556-.13015332-4.82668388-.11156965-7.25216091l-.01418173-2.82530588.00694907-9.39428335-.01593018-6.72599793.00113726-18.28443455-.0041585-19.1102798.01877801-34.14918207-.00275628-30.97522284-.01316321-35.95960325-.00460947-19.03949839.01468277-17.8939209-.00378799-6.58030128.01704025-8.95576859-.02027929-2.65354305c.05767008-5.88050377.05767008-5.88050377 1.70021606-8.05852544C213.233894 274.07328857 216.52982473 274.57819421 220 275z" fill="#222120"/><path d="M829 275c2.65824681 3.98737022 2.2741443 7.45049809 2.24723816 12.07899475l.00731641 2.84960359-.01163465 9.4935208.00575257 6.78953552-.01295305 18.47035528-.00663924 19.29588007-.02326965 32.40516663-.02050782 33.36425781.00012108 2.07603032.00012229 2.07239103-.01279181 36.02946371-.00589371 15.35997391-.01716614 18.07115936-.00357246 6.64928627-.01240921 9.04236984.00469273 2.68801838C831.11417885 507.77164229 831.11417885 507.77164229 830 510c-5.50496616.16087677-10.37152936-.29801317-15.7265625-1.64453125l-2.15194702-.51652527L805.375 506.1875l-8.8515625-2.14453125-2.16656494-.52688599C787.59703289 501.88046379 780.80772301 500.42539511 774 499l1-17c8.99829681 1.1247871 8.99829681 1.1247871 13.27734375 2.12109375l2.80664063.64648437L793.9375 485.4375l5.65234375 1.30859375 2.49584961.58374023L814 490V296c-13.39466251 3.10987799-13.39466251 3.10987799-26.26171875 7.1171875C783.548942 304.46781613 779.33132184 305.23564909 775 306v-18l7.234375-2.046875 7.06005859-2.00585938 4.84667969-1.37304687 7.03076172-1.99609375 2.31216431-.65892029c5.44172456-1.56801741 10.8003955-3.31534612 16.12973022-5.23487854C823.20995505 273.65300757 825.45467434 273.84391555 829 275z" fill="#232322"/><path d="M417 405c18.00308616 0 36.01729086.14368052 54 1v85l-17 4-10.5625 3c-8.76152607 2.59918133-17.55204768 4.77863692-26.4375 7V405z" fill="#1d1e1e"/><path d="M620 405v99c-7.87981859 0-7.87981859 0-12.01171875-1.1015625l-2.76855469-.7277832L602.3125 501.375l-3.02832031-.80932617C588.4548134 497.64119782 577.64363608 494.54787869 567 491v-84c15-2 15-2 53-2z" fill="#1a1b1b"/><path d="M726 286v86l-42 5-.05181217-27.25362968-.02362728-12.65750313-.01943779-12.23517227-.01085282-4.64748383C683.8669033 312.07493011 683.99377307 304.08463301 685 296l3.5234375-.91796875L693.375 293.8125l2.57250977-.67260742 13.18139648-3.58520508 2.44970703-.69458008 4.63183594-1.33544922C719.64790901 286.54528563 722.39263975 286 726 286z" fill="#201f1e"/><path d="M314 286c13.8974522 3.04006767 27.2933767 7.00223487 41 11v80c-19.72346939-1.16020408-19.72346939-1.16020408-29.5-2.5l-3.06640625-.39453125C315.13266693 373.13266693 315.13266693 373.13266693 314 372c-.09512944-2.67787973-.12555279-5.32988869-.11352539-8.00805664l-.00044251-2.54228211.01631165-8.3598175.00428772-5.78013611.02470398-15.2447052.01983643-15.54351806L314 286z" fill="#1c1c1c"/><path d="M685 405l9.06640625.55859375 2.43933105.1817627L705.5625 406.4375 726 408v79c-8.93133649-1.27590521-16.97154902-2.56592354-25.5-5.0625l-5.59375-1.59765625-2.42773438-.70727539C689.67164238 478.91619636 686.8585323 478.4626396 684 478l-.05181217-28.11109066-.02362728-13.05175114-.01943779-12.58517646-.01085282-4.81214524-.00779533-6.71693611-.00672913-3.86924744C684 406 684 406 685 405z" fill="#1f1e1d"/><path d="M355 407l1 70-25.5 6.1875-3.4921875.82617188-3.3515625.77929687-3.00585938.70385742C318 486 318 486 314 486v-77c23-2 23-2 41-2z" fill="#1e1e1d"/><path d="M431 273c5.94277429 1.78283229 11.74152484 3.54197267 17.5625 5.625l3.62890625 1.2890625C455 281 455 281 456 282c.09436529 2.23929886.11742327 4.4816175.11352539 6.72290039l.00044251 2.12849426-.01631165 6.9962616-.00428772 4.83848572-.02470398 12.75898742-.01983643 13.00994873L456 354l-25-3v-78z" fill="#f6f7f7"/><path d="M605 273v78c-15 2-15 2-24 2v-72c18.66666667-8 18.66666667-8 24-8z" fill="#f7f9f9"/><path d="M581 420h24v65c-18-4-18-4-24-6v-59z" fill="#f6f7f8"/><path d="M432 420h24v59l-24 6v-65z" fill="#fafbfb"/><path d="M266 409v13l-12 1v37h11v10l-10.375 2-2.984375.578125-2.8515625.546875-2.63427734.5078125C244 474 244 474 242 474c-1.01002178-3.34645731-1.120977-6.38276515-1.11352539-9.87011719l.00022888-3.57855224.01564026-3.84820557.00428772-3.95123291.02470398-10.37670898.01983643-10.59783936L241 411l7.12890625-.9921875 2.01721191-.28588867C255.49485903 408.99128419 260.61237029 408.83422678 266 409z" fill="#222321"/><path d="M241 315c5.83001737.64777971 11.29256873 1.34930821 17 2.5l2.01953125.39453125c4.8536352.9786352 4.8536352.9786352 5.98046875 2.10546875.14310287 3.6691577.04221662 7.32715441 0 11l-13-1v39l12 1 1 13c-8.65109835-.51392663-16.3860852-1.43383367-25-3v-65z" fill="#1f1f1e"/><path d="M799 315v65c-16 2-16 2-23 2v-13l11-1v-39l-5 1c-2.33301986.03824623-4.66711508.04574284-7 0l1-11 8.6875-2 2.47460938-.578125 2.41210937-.546875 2.20581055-.5078125C794 315 794 315 799 315z" fill="#202121"/><path d="M776 408l23 2v63c-16-2-16-2-18-4-2.57061311-.64767793-2.57061311-.64767793-5-1l-1-10 4.25.4375 2.390625.24609375C784 459 784 459 788 460v-38h-12v-14z" fill="#202223"/><path d="M433 572c2.15699832 1.53781292 4.03087512 3.21404953 6 5-1.2574083 4.53190907-2.78671499 7.33014667-6 10.75l-2.4296875 2.6015625-10.25 10.28515625c-1.99225865 2.02915232-3.78222113 4.09486954-5.5703125 6.30078125-5.03085305 5.93226498-11.57230308 10.40138055-17.75 15.0625-3.23861303-1.44424635-5.61969163-3.25772247-8.25-5.625l-2.140625-1.9140625L385 613c1.35428461-3.10412761 2.77134253-4.91475724 5.375-7.0625 10.27110328-8.73318407 19.84026064-18.05294522 29.30200195-27.65136719l2.39331055-2.41894531 2.14892578-2.18408203C427.34735904 570.72652958 428.94929802 570.71114028 433 572z" fill="#191a19"/><path d="M490 232c13.92179643 1.19961058 13.92179643 1.19961058 17.6765213 4.45240402 2.09842182 4.03930262 1.69371916 8.01431077 1.62413788 12.49663162l-.01101208 3.05144454-.08847522 10.02002763-.03992463 7.07060623-.10378265 14.67770005-.10800171 20.13194275-.10192871 25.46588134-.01626158 3.27496457-.03320169 6.64177871-.08408165 17.4920702-.15937186 32.8360312-.18137502 37.50471806L508 504h20l-.00558662-4.11739922-.09654404-96.67658948-.00773262-11.88911677-.00158976-2.39090206-.04285255-38.36831459-.0338714-39.34480073-.02765594-24.2942406-.01038243-18.60244011-.01219559-7.65067673-.00209808-10.40254974-.01765359-3.09510505.01206696-2.79878342-.00230133-2.42790878C528 240 528 240 530 238l1 278h-1v-10h-24V239l-16-6v-1z" fill="#d2a444"/><path d="M609 575c9.16552941 4.91942958 17.12562943 13.07799714 24.3984375 20.421875 1.93117086 1.91377292 3.87241425 3.74305692 5.8984375 5.55078125l1.71484375 1.53710937 3.5234375 3.1171875C647.51429351 608.31502525 649.28871307 610.03749485 650 614c-1.16623175 1.04506481-2.35930265 2.06021606-3.5625 3.0625l-2.00390625 1.72265625C640.87932571 620.55943773 638.7875589 620.03184044 635 619c-2.81640625-1.9765625-2.81640625-1.9765625-5.5625-4.625l-1.51831055-1.44799805c-4.83799247-4.68358055-9.41922416-9.62994809-13.93505859-14.62280273-3.29752718-3.62296338-6.69621527-6.89408506-10.49267578-9.99414063C601.34546038 586.425068 600.08244959 584.63847088 599 582c.125-2.6875.125-2.6875 1-5 3.51377378-2.34251585 4.86348255-2.44301432 9-2z" fill="#191919"/><path d="M327 304c5.02186763 1.25546691 10.00758962 2.63303049 15 4 1.12355916 9.95847083 1.15381318 19.87908979 1.13037109 29.88525391l.00634766 8.30615234-.00390625 5.28515625.00613403 2.50601196C343.11500409 359.76999183 343.11500409 359.76999183 342 362l-4.6875-.375-2.63671875-.2109375C332 361 332 361 327 359v-55z" fill="#e1e1dd"/><path d="M510 593l18 1c1.26144591 6.30722954 1.29789306 12.48004281 1.35009766 18.88427734l.08203125 4.4921875.09130859 6.50634766.06005859 3.91845703C529 631 529 631 526.6394043 632.91772461c-2.9116612 1.19391306-5.06139339 1.5154075-8.2019043 1.51977539l-2.81640625.05859375C512.1467819 633.83851163 511.14949838 632.79237588 509 630c-.4699707-3.31225586-.4699707-3.31225586-.42578125-7.21484375l.00996399-2.09925842L508.6875 614.0625l.02929688-4.44335938C508.77037667 603.93876303 508.88073012 598.59634941 510 593z" fill="#131515"/><path d="M713 304l.05493164 23.44360352.02050781 7.98242187.0222168 11.44506836.01564026 3.62998962.00022888 3.33656311.00672913 2.95408631C713 359 713 359 712 360l-13 1v-54c12-3 12-3 14-3z" fill="#e8e8e5"/><path d="M698 420l16 1v49l-16-4v-46z" fill="#e1e1dc"/><path d="M343 421l.05493164 18.68896484.02050781 6.36132813.0222168 9.12939453.01564026 2.88522339.00022888 2.66897583.00672913 2.35519409C343 465 343 465 342 467l-5.875 1.625-3.2421875.7890625C330 470 330 470 327 470v-48c11-1 11-1 16-1z" fill="#e3e5e1"/><path d="M519 200l12.75-.3125 3.59765625-.12695312C543.51562726 199.44896257 551.07339353 200.30813551 558 205c1.32714844 2.67456055 1.32714844 2.67456055 2 5h-7v2c-5.77759884.12036664-11.27959989-.1679418-17-1v-2l-3.25390625.4921875c-5.55699215.69202586-11.0912429.65366651-16.68359375.6328125l-3.13085938.01171875C506.87960476 210.12905309 500.99574974 209.81371421 495 209c-9.46417218-1.51784046-9.46417218-1.51784046-18 2-5.18781414 3.90901372-5.18781414 3.90901372-9 9h4l1 3c3.50294871 1.71567661 3.50294871 1.71567661 7 3v1c-5.85983633-.51665968-10.60893883-1.75281077-16-4.0625l-2.05859375-.85351562L457 220v-1l2.375-.375c2.76557822-.41617993 2.76557822-.41617993 4.625-2.625l3 1 .8125-1.625L469 213l1.375-3.125c1.81681364-3.2143626 2.26255614-3.6574105 5.625-4.875 2.72659572-.35901858 5.38694782-.6270538 8.125-.81640625l2.37548828-.1860199L494 203.4375l7.49951172-.57078552 4.66113281-.34732056c2.78346471-.21059421 5.45290651-.41859352 8.15966797-1.12461853C516 201 516 201 519 202v-2z" fill="#dcc08b"/><path d="M774 530c12.14433511 1.18125227 22.65287374 6.65216317 33.375 12.1875l2.54223633 1.29663086 2.35620117 1.24633789 2.10693359 1.10620117C816 547 816 547 817 550l-4 4-1.25 1.75c-3.01919135 2.15656525-6.23534475 1.76740312-9.75 1.25-4.36706884-1.45495848-8.50761017-3.32984021-12.6875-5.25l-3.37695312-1.48828125C780.78103396 547.94543074 776.23418845 545.81835606 772 542c-.55859375-2.25390625-.55859375-2.25390625-.4375-4.5625l.06640625-2.31640625C772 533 772 533 774 530z" fill="#1d1d1b"/><path d="M266 529c2.13586678 3.20380017 2.23132175 4.01939967 2.125 7.6875l-.0546875 2.44921875L268 541c-7.49341545 4.35980535-15.21426595 8.19391338-23 12l-2.86328125 1.40625C234.63741339 557.93533487 234.63741339 557.93533487 231 557c-3.91382777-3.58767546-4.59287177-6.80911501-5-12 6.55850017-4.35905175 13.36555298-7.63600423 20.5625-10.8125l3.32617188-1.52148438C260.4247426 527.99813619 260.4247426 527.99813619 266 529z" fill="#1b1c1d"/><path d="M466 223c12.41598353 4.28556592 24.7180236 8.74188153 36.72265625 14.09326172l2.43383789 1.084198L507 239l.10213066 101.55835324.00773262 11.97924442.00158976 2.40902699.04285255 38.65930829.0338714 39.643124.02765594 24.4784974.01038243 18.74344633.01219559 7.70872879.00209808 10.48137283.01765359 3.11868656-.01206696 2.81989491.00230133 2.44631946C507 505 507 505 505 507l-1.12338257-195.27072525-.00918579-10.37194443-.00175095-16.27377128-.00183868-5.84737015C503.85107353 266.12912884 504.27280922 253.08694614 505 240l-3.80419922-.91455078c-3.71247091-.89249878-6.9007617-2.23703527-10.32080078-3.96044922-5.83322919-2.79749965-11.60944047-4.60949769-17.87890625-6.16796875C470.05917665 228.01890258 468.23004794 227.11009426 466 225v-2z" fill="#3e2805"/><path d="M640 558c4.51891317.56655031 8.03713926 1.76241859 12.125 3.75 4.22928396 2.02124329 8.45120336 3.90850574 12.8125 5.625 7.06087635 2.88295487 13.52577044 6.72810353 20.0625 10.625l-1 3h-3l-1 3 2.4375.875C685 586 685 586 686 588c-4.50174432-1.37780659-8.58660211-3.20992339-12.75-5.375-8.64747227-4.41638011-17.45997812-8.45929471-26.28808594-12.49951172l-3.25097656-1.48876953-2.89697266-1.3215332C637.84826333 565.9290816 634.9218424 564.47603511 632 563c2.07553648-.5534764 3.84365964-1 6-1l2-4z" fill="#dcdeda"/><path d="M528 557v20c-3.04982258 1.52491129-6.22122539 1.14361434-9.5625 1.125l-2.11523438.01171875C511.12663994 578.12663994 511.12663994 578.12663994 510 577l-.09765625-4.69140625.00976563-2.86132813L509.9375 566.4375l.01367188-3.02148438L510 556c5.62052436-2.81026218 12.36791327-.40802168 18 1z" fill="#131819"/><path d="M490 232c13.92179643 1.19961058 13.92179643 1.19961058 17.6765213 4.45240402 2.09842182 4.03930262 1.69371916 8.01431077 1.62413788 12.49663162l-.01101208 3.05144454-.08847522 10.02002763-.03992463 7.07060623-.10378265 14.67770005-.10800171 20.13194275-.10192871 25.46588134-.01626158 3.27496457-.03320169 6.64177871-.08408165 17.4920702-.15937186 32.8360312-.18137502 37.50471806L508 504l23 1v11h-1v-10h-24V239l-16-6v-1z" fill="#d9b059"/><path d="M731 378c2.93596696 1.70182156 5.46885299 3.93770598 7 7 .40416554 5.25415201-.27226441 8.48874498-3 13-2 2-2 2-5.75 2.4375-4.87236883-.09762488-6.91380354-2.01993289-10.25-5.4375-1.66031165-3.3206233-1.8907218-6.45619969-1-10 3.48756837-4.51182996 7.06494688-7.81928502 13-7z" fill="#141415"/><path d="M317 380c2.8125 2.5 2.8125 2.5 5 5l1 1c.69087003 6.79355532.69087003 6.79355532-1.046875 9.828125-2.69010426 3.2597734-4.51232672 4.97540251-8.703125 5.546875-4.5253858-.5221599-6.0171103-2.21729378-9.25-5.375-1.60306924-3.20613847-1.48740461-6.52139997-1-10 3.60229874-5.91806222 7.23776816-8.07007097 14-6z" fill="#131313"/><path d="M547.5 205.375c4.12594664 1.51404303 8.22321373 2.61412324 12.5 3.625-2.33317216.77772405-4.61435923 1.42415568-7 2v1c-5.77759884.12036664-11.27959989-.1679418-17-1v-2l-3.2734375.48828125c-5.44694489.67637887-10.8687832.70267792-16.3515625.69921875l-3.19726562.00195312C505.29081498 210.13626115 497.7526555 209.52869263 490 208c4.11893234-4.11893234 10.85798677-3.19348183 16.3984375-3.31640625l2.40542603-.06297302L516.375 204.4375l5.0625-.13085938 4.8984375-.12304687 2.27035522-.05677795c14.79333307-.34465348 14.79333307-.34465348 18.89370728 1.2481842z" fill="#ddba79"/><path d="M542 234v3c-4.02933725 2.57877584-5.51534435 2-11 2v266h-1V238c10-4 10-4 12-4z" fill="#4c3107"/><path d="M242 387c2.875 1.5625 2.875 1.5625 5 4 1.14009771 3.91908586 1.40888632 6.03158504-.1875 9.8125-1.95269112 2.35669618-2.87225434 3.37076509-5.8125 4.1875-4.16734046-.07441679-6.26644159-.36048754-9.4375-3.125-1.99764338-3.67566382-2.22600721-5.74651069-1.5625-9.875 3.42064988-4.87183468 6.14429035-5.94109619 12-5z" fill="#101012"/><path d="M801.5 385.3125c4.40093281.86446895 5.89836569 2.06097945 8.5 5.6875.60416132 3.62496791.26767838 5.43915006-1.3125 8.75C807 402 807 402 804 404c-3.94225057-.0857011-5.71719955-.78482574-8.875-3.1875C793 398 793 398 792.375 395.0625c1.12051364-5.49051685 3.55718444-8.65632194 9.125-9.75z" fill="#121214"/><path d="M226 298h1c.62262388 13.65625805 1.09453379 27.29282149 1.02734375 40.96484375l-.01669312 3.48574829-.1065979 14.02523804C227.77546359 371.13195543 228.15012929 385.45107297 230 400h-2v50l-2 1V298z" fill="#ededec"/><path d="M573.5625 215.75l2.31640625-.015625C578 216 578 216 581 218l-2.46826172.97460938C563.22194653 225.03028099 547.95839906 231.10859664 533 238l-1-2 4-1v-2c3.50776784-1.60355101 6.14354879-2.22036864 10-2l1-3c2.31939207-.7136591 4.65523449-1.3747292 7-2 1.68756133-.96432076 3.35666496-1.96210419 5-3l2.75-1 2.25-1 1-3c2.8569455-1.88370033 5.17778154-2.27290842 8.5625-2.25z" fill="#d1a652"/><path d="M531.875 206.8125l2.78759766-.0390625c4.86575886-.00719388 8.7744068.32998 13.33740234 2.2265625l2.875 1.125L553 211v1c-5.77759884.12036664-11.27959989-.1679418-17-1v-2l-3.234375.48828125c-5.66438782.70492932-11.3147111.69575104-17.015625.69921875l-3.2578125.03710938-3.1328125.00585937-2.82910156.01245117C503.89419789 209.98984243 502.26188871 209.33889219 500 208c10.62211965-.64516128 21.23208701-1.11564911 31.875-1.1875z" fill="#deb568"/><path d="M488 206l-1 2-3 .1875c-5.37001901.59913435-9.17600439 4.23306225-13 7.8125-1.03444629 1.30678945-2.04645841 2.63305588-3 4h4l1 3c3.50294871 1.71567661 3.50294871 1.71567661 7 3v1c-5.85983633-.51665968-10.60893883-1.75281077-16-4.0625l-2.05859375-.85351562L457 220v-1l2.375-.375c2.76557822-.41617993 2.76557822-.41617993 4.625-2.625l3 1 .75-1.75c4.44150401-7.99470721 11.706197-9.69967384 20.25-9.25z" fill="#e3c579"/><path d="M567 392c.94842031 2.54245205 1.18742484 3.58934151.0390625 6.10546875L565.625 400.1875l-1.3984375 2.10546875C563 404 563 404 562 405c-4.54950416.26247139-7.88439805-.00455663-12-2l-1 7h-1c-.1799928-5.21979128.02905192-9.07262981 2-14l3 1c5.16466867.62311942 5.16466867.62311942 9.85546875-1.1171875C564.69778629 394.373989 564.69778629 394.373989 567 392z" fill="#d0d6db"/><path d="M429 274h2v76h-1c-1.14760848-5.45509366-1.11123697-10.72667637-1.0625-16.26953125l.01147461-3.01335144.0715332-12.68367004.04199219-9.30297852.00976562-3.05130005c-.00486105-7.44220229-.35083815-14.80820013-.95117187-22.224823-.11662271-3.32680382.20399588-6.20383989.87890625-9.4543457z" fill="#0a1511"/><path d="M519 200l12.75-.3125 3.59765625-.12695312C543.95593829 199.44294739 550.33516441 201.09269588 558 205v2l-6-1-1-3-6.125-.0625-3.4453125-.03515625c-3.40398156.01897445-3.40398156.01897445-6.6171875.62890625-3.4617557.57695928-6.3782366.08691741-9.8125-.53125v-2l-6 1v-2z" fill="#dbc59a"/><path d="M298 342h1l.07592773 2.77880859.29638672 10.34375.125 4.45117188c-.48767277 13.67984836-.48767277 13.67984836 2.58251953 26.55664062C303 388 303 388 302.3125 390.125 301 392 301 392 298 394v-52z" fill="#f4f3f1"/><path d="M463 534l2 1-1 4-12.8125 3.625-2.83203125.7890625C446 544 446 544 444 544v-2l-2-1 1.71240234-.53491211L451.375 538.0625l2.6953125-.84179688 2.578125-.81054687 2.38037109-.74584961C461.0430762 535.03602462 461.0430762 535.03602462 463 534z" fill="#cecac4"/><path d="M352 587l2 1-2.16015625 1.46875c-5.45549363 3.81811129-10.12358092 7.55716138-14.34765625 12.7109375C335.48984816 604.62233182 333.2627913 606.80006402 331 609l-1.8125 1.8125L328 612c-.39587863-3.33497756-.17727231-4.73041539 1.6953125-7.578125C336.2579596 597.20507337 343.28586812 591.45076628 352 587z" fill="#f0f2ee"/><path d="M479 530c-1.49165038 4.25259332-3.99718458 5.38771562-7.9375 7.3125l-3.21484375 1.61328125C465 540 465 540 462 539l2-2 .625-1.9375c2.9656983-4.44854745 9.30126598-5.53816256 14.375-5.0625z" fill="#e2e3dd"/><path d="M466 223c10.79061231 3.72454427 21.43321148 7.67958893 32 12l5 2v1c-4.83612362.31665095-7.71661452-.54274524-12-2.75-5.88250373-2.87033764-11.66151619-4.71637009-18.00390625-6.29296875C470.05917665 228.01890258 468.23004794 227.11009426 466 225v-2z" fill="#2a1b03"/><path d="M817 548l5 3c-.875 4.875-.875 4.875-2 6l-7.5625.5625-2.15429688.13085938L805 558v-1l7-1 .8125-2.4375L814 551l3-1v-2z" fill="#999a93"/><path d="M434 546l-2.4375.8125L429 548l-1 3c-2.21484375 1.38671875-2.21484375 1.38671875-4.9375 2.6875l-2.71484375 1.32421875C418 556 418 556 416 556l1-5-3-1 7.75-2.5625 2.2109375-.74804688 2.1484375-.69335937 1.96777344-.65063477C430.33444538 544.93991364 431.83473482 545.30703089 434 546z" fill="#cccac6"/><path d="M458 539l4 2c-3.07535738 3.07535738-6.90636098 3.73041452-11 5l-2.67578125.89453125L445.6875 547.75l-2.42578125.796875C440.8003061 549.04000776 439.35453201 548.79741588 437 548l5-2v-4h2v2l6.4375-1.9375 3.62109375-1.08984375C456.85867545 540.29110858 456.85867545 540.29110858 458 539z" fill="#e7e6e1"/><path d="M324 422h3l.05493164 14.99633789.02050781 5.09472656.0222168 7.3503418.01564026 2.27674866C327.11377171 456.24941493 326.74476436 460.52883681 326 465h-1l-.5625-8.9375-.16992188-2.57617188-.14648437-2.45117187-.14282227-2.26928711C324 447 324 447 325 446c.0991918-1.61083745.1307982-3.22595644.1328125-4.83984375l.00390625-2.97070313L325.125 435.0625l.01171875-3.11523438-.00390625-2.97460937-.00341797-2.74194336C325.14496576 423.96104141 325.14496576 423.96104141 324 422z" fill="#0f120e"/><path d="M226 386l1 2h2l1 12h-2v16c-2-2-2-2-2.22705078-4.79736328l.03173828-3.52294922.01953125-3.80859375L225.875 399.875l.02734375-4.01953125L226 386z" fill="#f5f5f5"/><path d="M443 543c-.12890625 1.859375-.12890625 1.859375-1 4-2.65234375 1.265625-2.65234375 1.265625-5.9375 2.25l-3.27734375 1.015625C430 551 430 551 428 551v-4l6-1v-2c5.625-2.125 5.625-2.125 9-1z" fill="#ccc9c3"/><path d="M695 604h5c3.46197309 5.33720852 3.95472424 10.80365251 3 17-1.23046875 2.2890625-1.23046875 2.2890625-3 4-2.26171875.609375-2.26171875.609375-4.6875.75l-2.44921875.171875L691 626c2.33214148-1.20628008 4.49642139-2.1654738 7-3l1-2h2l-.3125-4.75-.17578125-2.671875C699.93309954 610.66294426 698.84740512 609.27830122 697 607v-2l-2-1z" fill="#f2f2ed"/><path d="M573.5625 215.75l2.31640625-.015625C578 216 578 216 581 218l-6.25 2.5-3.515625 1.40625C568 223 568 223 564 223c.25-2.375.25-2.375 1-5 2.86571569-1.86811622 5.17738682-2.27291109 8.5625-2.25z" fill="#dec285"/><path d="M507 506h23v2c-5.20173095.86809439-10.16978816 1.12515348-15.4375 1.0625l-2.21679688-.01367188L507 509v-3z" fill="#fefada"/><path d="M485 392l3 1 3-1v20h-2v-16l-5 2h-5l-1-2h7v-4z" fill="#12121b"/><path d="M472 393l3.0625 2c3.71812891 2.15499716 6.62665491 2.35190572 10.9375 2l-2 5c-6.625.25-6.625.25-10-2-1.1875-3.625-1.1875-3.625-2-7z" fill="#c4dbe4"/><path d="M580 539c9.28771641.35449299 9.28771641.35449299 12 2.8125L594 544c3.26144026 1.53204598 6.60969153 2.78362978 10 4l-1 2c-2.35171131-.59861742-4.6859378-1.26924352-7-2l-1-2c-1.91203452-.80259198-1.91203452-.80259198-4.1875-1.4375-3.81880834-1.19566523-7.27900865-2.65985081-10.8125-4.5625v-1z" fill="#dadbd5"/><path d="M353 408h2v19c-3-3-3-3-3.328125-6.03125L351.75 417.5l.046875-3.46875C352 411 352 411 353 408z" fill="#2e2f2a"/><path d="M400 565l-1.57299805.68676758L391.3125 568.8125l-2.47460938 1.08007812C384.72376935 571.70812152 380.78939942 573.55348347 377 576l-1-2c4.1916539-2.96482836 8.21006331-5.06721853 13-7l1.859375-.88671875C394.41076447 564.43623622 396.27143201 563.79776021 400 565z" fill="#edede9"/><path d="M685 405l20 2v1h-19v12h-1v-15z" fill="#252522"/><path d="M254 330l5 1-1.48388672 1.23510742c-1.88330283 2.19233432-1.85863602 3.15548762-1.77392578 6.00317383l.04296875 2.48632813L255.875 343.3125c.13971641 5.37086317.24761264 10.39394962-.875 15.6875h-1v-29z" fill="#f4f4f3"/><path d="M463 210l2 1-2.4375 2.3125c-2.73049024 2.48180898-2.73049024 2.48180898-3.5625 5.6875l-7-1c3.3621637-3.65882521 6.36050852-6.14420341 11-8z" fill="#d8c9a7"/><path d="M567 392c.6875 1.6875.6875 1.6875 1 4-1.4375 2.75-1.4375 2.75-3 5l-10-2v-1l3.75-.75c3.76439673-.9210758 5.78077893-2.16347366 8.25-5.25z" fill="#99a1a3"/><path d="M436 583l4 1-1.43359375 1.21484375C433.11819815 589.89839107 428.02642997 594.86885274 423 600l-2-1 2.7734375-2.73828125L427.375 592.6875l1.828125-1.80273438 1.7578125-1.74804687 1.61865234-1.6027832C434.21501465 585.8489902 434.21501465 585.8489902 436 583z" fill="#e0e6e5"/><path d="M592 542c5.46864457 1.01591421 10.76390013 2.07091057 16 4l-1 2c-5.27754845-.53852535-9.30037439-1.65018719-14-4l-1-2z" fill="#bcbdb8"/><path d="M490 232c5.52106237.4757378 10.80923483.98725432 16 3 1.19140625 2.07421875 1.19140625 2.07421875 2 4-6.10737442-1.76463072-12.07433507-3.69557475-18-6v-1z" fill="#c2a050"/><path d="M542 234v3c-3.63423209 2.32590854-6.77088331 2.16265833-11 2v7h-1v-8l4.875-2 2.7421875-1.125C540 234 540 234 542 234z" fill="#402b0b"/><path d="M488 206l-1 2-3.1875.375c-4.22661574.69288783-6.38187942 2.15176191-9.8125 4.625h-2c1.02613084-2.97577944 1.96631091-3.97754061 4.625-5.75 4.12368017-1.52728895 7.00823514-1.47586715 11.375-1.25z" fill="#debe7d"/><path d="M375 577l-7.875 4.0625-2.26171875 1.18164062-2.16796875 1.10351563-1.99951172 1.03149414L359 585l-2-1c12.5-8.83333333 12.5-8.83333333 18-7z" fill="#ecede9"/><path d="M267 485c2.26954631 3.40431947 2.36549949 5.16524202 2.625 9.1875l.2265625 3.29296875L270 500h-3v-15z" fill="#e4e5e7"/><path d="M741 488h1v23l-5-1 3-2c.50702517-2.12106795.50702517-2.12106795.51171875-4.5703125l.10742187-2.71484375L740.6875 497.875l.10351562-2.86328125L741 488z" fill="#eee"/><path d="M226 386l1 2h2v10l-3 1v-13z" fill="#fcfcfa"/><path d="M563 225c-1 3-1 3-2.671875 3.94921875C556.43666975 230.33170943 553.19816517 231.39357798 549 231c3.707004-3.2436285 8.97506166-6 14-6z" fill="#3d2c0b"/><path d="M730 266c-2.46301423 2.46301423-4.27360036 2.76766521-7.625 3.625l-3.0390625.7890625L717 271v-3c4.53701494-1.45184478 8.18061476-2.23509196 13-2z" fill="#e2e2df"/><path d="M678 558c3.21852831.63065757 5.50801069 1.78020695 8.25 3.5625l2.140625 1.37890625L690 564l-2 2-5-2.875-2.8125-1.6171875L678 560v-2z" fill="#101214"/><path d="M472 393l3.25 1.9375c2.55822182 1.46851273 4.80340886 2.59104542 7.75 3.0625v2c-2.6875.3125-2.6875.3125-6 0-2.875-2.375-2.875-2.375-5-5v-2z" fill="#9caebb"/><path d="M818 550l4 1-1 5-3 1v-7z" fill="#55554e"/><path d="M460.25 539.875L462 541c-3.00617269 3.00617269-5.82381598 2.59585316-10 3 2.29845177-3.44767766 4.0255569-5.76783898 8.25-4.125z" fill="#edeeea"/><path d="M463 534l2 1-1 4-4 1-2-3 5-3z" fill="#d8d7d1"/><path d="M717 384h1l1 12-3-1-.0625-4.375-.03515625-2.4609375C716 386 716 386 717 384z" fill="#ece9eb"/><path d="M609 575c-3 2-3 2-5 2.9375-2.08295994 1.10657247-3.4218806 2.32656866-5 4.0625.3125-2.375.3125-2.375 1-5 3.4352048-2.29013653 4.985331-2.17842973 9-2z" fill="#4d4d4d"/><path d="M434 546l-2.4375.8125L429 548l-1 3-5 1c.93322896-3.22388187 1.41299771-4.66015657 4.375-6.375 2.70823761-.64481848 4.04885222-.57912881 6.625.375z" fill="#bcb8b6"/><path d="M550 396l3 1v2h-2l-2 11h-1c-.1799928-5.21979128.02905192-9.07262981 2-14z" fill="#bcbfc4"/><path d="M558 399l7 2-2 3c-2.625.1875-2.625.1875-5 0v-5z" fill="#bdc7cc"/><path d="M566 224l-3.75 1.5625-2.109375.87890625c-2.44075284.63691178-3.7809905.36108206-6.140625-.44140625 7.65957447-4.89361702 7.65957447-4.89361702 12-2z" fill="#d6ae5d"/><path d="M467 223c5.26053037-.31563182 8.44573816.33409063 13 3v1c-4.71403788-.47939368-8.66579301-.96834048-13-3v-1z" fill="#cdae65"/><path d="M237 536h5c-2.35468455 2.72647685-4.5408417 3.98756342-8 5-2.3125-.375-2.3125-.375-4-1 2.64738916-1.4606285 3.89448334-2 7-2v-2z" fill="#e3e4e1"/><path d="M785 362h1v6c-2.40545638 1.20272819-3.94996953 1.10071472-6.625 1.0625l-2.4765625-.02734375L775 369v-1l10-2v-4z" fill="#eef1f0"/><path d="M646 610c2.125.375 2.125.375 4 1l-1 4h-3l-2-3 2-2z" fill="#262729"/><path d="M443 543l-1 4-5 1c.3125-1.9375.3125-1.9375 1-4 3-1 3-1 5-1z" fill="#d8d5ce"/><path d="M656.5625 188.9375L660 189v3h-6l-2-2c1-1 1-1 4.5625-1.0625z" fill="#0d100d"/><path d="M572 534l9 3c-4 2-4 2-6.75 1.125L572 537v-3z" fill="#c4c5be"/><path d="M299 374h1l.1484375 2.046875L300.375 378.75l.2109375 2.671875C300.99850055 383.99066382 301.71160957 385.75841015 303 388l-4-1v-13z" fill="#eeece8"/><path d="M314 286l4 2h-2v8c-2-2-2-2-2.1953125-3.9453125L314 286z" fill="#151614"/><path d="M463 210l2 1-6 7-2-1c1.39332574-3.36720387 2.9789286-4.9859524 6-7z" fill="#e1cfa2"/><path d="M321 382h3l2 10h-2c-3-6.625-3-6.625-3-10z" fill="#e9e9e8"/><path d="M620 252v2h-3v2l-5-2c3.22791555-2.1519437 4.28400809-2.20086443 8-2z" fill="#202221"/><path d="M809 397l4 1c-1.24546405 3.73639216-2.63404953 4.18756513-6 6l2-7z" fill="#dcdede"/><path d="M297 261l7 3v2l-5 1v-4h-2v-2z" fill="#dededc"/><path d="M506 235c1.1875 2.0625 1.1875 2.0625 2 4l-7-2-1-2c3-1 3-1 6 0z" fill="#d2a54c"/><path d="M580 539l8 1 1 3c-5.53846154-.61538462-5.53846154-.61538462-7.875-2.5625L580 539z" fill="#eaebe3"/><path d="M476 530h3c-1.36983503 3.16115776-1.9890638 3.9927092-5 6l-3-1 1.9375-.8125c2.39381686-1.07417752 2.39381686-1.07417752 3.0625-4.1875z" fill="#f3f4f0"/><path d="M229 388h3l-2 9h-1c-1.125-6.75-1.125-6.75 0-9z" fill="#e3e3e3"/><path d="M457 219c2.75-.25 2.75-.25 6 0 2.375 2 2.375 2 4 4l-10-3v-1z" fill="#c4ae80"/><path d="M440 210c2.9375.8125 2.9375.8125 6 2l1 3-9-3 2-2z" fill="#ceccc2"/></svg>