<svg xmlns="http://www.w3.org/2000/svg" width="1024" height="1024" xmlns:v="https://vecta.io/nano"><path d="M0 0h1024v1024H0V0z" fill="#e4e4de"/><path d="M525 165l2.48974609.04248047C594.01443633 166.34006642 664.31192053 191.71741299 715 235l3.22265625 2.6640625C724.92223984 243.24020244 731.26978906 249.08947168 737.4375 255.25l1.96948242 1.96704102C754.48590228 272.47019413 767.84760273 289.6846809 779 308l2.671875 4.28125C806.85916203 353.03137978 822.39133127 396.45014352 828 444l.32128906 2.703125c1.07498255 10.68047176.92168835 21.44899524.92871094 32.171875l.00305176 3.22869873C829.24189757 499.58985288 828.50935866 516.67204566 826 534l-.40576172 2.95019531C823.392594 552.46578304 818.93706412 567.15849028 814 582l-.90478516 2.81054688C805.71952415 607.61646569 794.64920958 630.26428765 781 650l-1.24414062 1.80664062C776.90357597 655.9207637 773.96799027 659.96890319 771 664l-2.2421875 3.08203125C753.67394714 687.56065984 736.10191994 707.34812341 716 723l-3.6953125 2.953125C677.94306133 753.12413929 638.18174961 772.49223437 596 784l-3.55029297.97045898c-9.2445964 2.45581312-18.47634616 4.13090388-27.95117187 5.41259766l-6.78369141.94702148C543.90410608 793.2702624 530.31475492 794.20962029 516.375 794.1875l-2.32357788-.00283813C473.49593112 794.07805988 434.99877424 787.21791686 397 773l-2.05175781-.76074219C369.2992635 762.64810203 344.83298447 748.44553914 323 732l-2.57421875-1.91015625c-9.0207782-6.85060894-17.78578637-14.18558804-25.6640625-22.328125C293.05939094 706.05939094 291.29505349 704.52950873 289.4375 703c-3.15669679-2.65304405-5.78870964-5.56279321-8.44921875-8.70703125-1.42018085-1.6378117-2.88698864-3.23565856-4.3828125-4.8046875C260.64168258 672.72981173 247.81182325 652.83363234 236 633l-1.04101562-1.71728516C217.64392888 602.57992404 206.37483727 570.00161314 201 537l-.47119141-2.83789062c-2.16947489-13.22657302-3.67276104-26.27640248-3.73193359-39.69726563l-.02139282-3.23826599C196.54744274 446.58735227 196.54744274 446.58735227 200 428l.60205078-3.33203125c5.74611674-30.95585886 15.53673871-60.77822233 30.31445313-88.625l2.27246093-4.3359375c6.5011725-12.51368653 13.90798625-24.05364669 22.18896485-35.46044922l4.34863281-6.15673828C268.46996208 277.51545013 278.52478713 266.15050175 289 255l1.859375-1.98828125c4.10583193-4.25246879 8.60774203-7.943722 13.21484375-11.640625 1.90164114-1.54111639 3.78099119-3.11030119 5.6328125-4.7109375C334.25902233 215.47333318 364.09386653 199.23554431 394 187l2.19726562-.90039062c20.69353724-8.33918665 42.17381304-13.41421425 64.19995118-16.67675782 2.5021786-.40650721 4.95881541-.91654783 7.43481445-1.45800781 6.23648048-1.27690003 12.51195595-1.67877229 18.85546875-2.08984375l3.85522461-.25512695C502.04592321 164.90960361 513.48098196 164.72722072 525 165z" fill="#f7c52b"/><path d="M548 228.625c3.80653681 3.01350831 6.61085882 5.72896359 7.3458252 10.72650146.1165915 2.84715922.10378764 5.66674615.0447998 8.51568604l-.01715088 3.13552856L555.25 260.875l-.0546875 6.7109375L555 284l1.8271637.3789978 2.42112732.51699829 2.38966369.50399781c3.67818578.93433175 6.93733546 2.49335106 10.29954529 4.2250061l2.09375 1.06860352c14.45930253 7.60633636 24.71287611 18.55207811 30.28125 33.93139648C605 328 605 328 605 336h19c-2.18011717-12.3539973-4.8471119-22.42695308-11.04345703-33.31494141-.83771406-1.47572803-1.63321864-2.97525353-2.42138672-4.47802734-3.47597329-6.3373542-8.08407839-11.35478979-13.046875-16.54296875C593.32423323 277.20585096 590.89237643 274.34979083 591 268c2.28224014-4.34917461 4.83171273-6.62447909 9.5-8.125 7.45407349.26621691 12.50260425 4.99858371 17.5 10.125 7.61980398 8.57620501 13.7214564 17.84061129 19 28l1.4609375 2.76171875c4.58481341 9.29466719 7.66950256 19.60296315 7.58276367 30l-.01911926 2.97924805L646 336l2.59017944-.02018738 24.27229882-.13524914 12.47590065-.07088184 12.06010818-.05831337 4.58049774-.03255844c21.2690433-.21792195 21.2690433-.21792195 29.33351517 7.62969017l2.36328125 2.23828125L736 348l2.625 2.75390625c2.93265871 3.58992967 3.95836397 7.43178394 5.0625 11.87109375l.60351562 2.21484375C744.9170437 367.2166979 745.46446216 369.60111453 746 372l.53656292 2.37687492c1.96586708 10.0522281 1.75228989 20.09067414 1.73809528 30.28767586l.01548767 6.2225647.0114367 16.8092637.00860543 14.0609659.00548583 33.17478383.02757007 34.17781841.02036225 29.40222526.01471454 17.53577435-.00241088 16.48339081.00862312 6.03451919C748.45909549 598.11502261 748.45909549 598.11502261 745 606l-.93810558 2.15704536c-.878584 1.94142685-1.82751828 3.82812569-2.81189442 5.71795464l-1.06713867 2.07763672L737 622l-1.69140625 3.203125C724.03907259 645.51541856 706.40404041 663.05669499 688 677l-3.125 2.53515625C678.01449074 685.07249449 671.12602692 689.49927858 663 693l-2.296875.99316406L652.9375 697.25l-2.46899414 1.03564453c-11.15795795 4.47925225-22.10943336 5.00877553-34.00244141 4.97314453l-4.6062622.01062012c-4.13821653.00905507-8.27633244.00560901-12.41455055-.00075817-4.34575157-.00509312-8.691495-.00035965-13.03724694.00277233-7.29202305.00362887-14.58400547-.00113228-21.87602234-.01068115-8.41671106-.01089474-16.83332529-.00734724-25.25003403.00365281l-21.73844016.00512266c-4.3193914-.00310923-8.63873733-.00355766-12.95812577.00307298-4.05895313.00579685-8.11778182.00173394-12.17672157-.00978852-1.4850373-.00263357-2.97008515-.00190386-4.45511818.00252533C480.6476745 703.28510131 473.98511082 703.24909668 467 701l-3.0546875-.97265625C453.48205919 695.98406443 444.84406787 689.2962008 440 679c-3.99227526-10.01071347-4.60378672-19.41762183-4.609375-30.01171875l-.05024719-5.20701599-.0788002-14.41802216-.07606602-12.34039306L435 406l-2.35253906-.45507812c-3.34596845-.68869436-6.5170791-1.75340472-9.75683594-2.82617188-2.56565858-.63794754-4.94923476-.98741655-7.57128906-1.26367188l-2.45220948-.26159667L411 401l.02018738 3.70458984.13524914 34.60490418.07088184 17.78962707.05831337 17.17584229.03255844 6.5447998.023386 9.18414307.03268433 2.71806335C411.32477814 502.64415953 407.7323124 509.77783651 401 517c-12.20786705 11.26137103-24.78990995 11.62809126-40.70263672 11.140625-9.40118392-.57546035-17.01321671-4.9533127-23.33239746-11.81930542-11.10831175-13.12284484-11.05243551-24.66896939-10.74621582-41.31350708l.03430176-7.20413208.19763183-18.8296814.15869141-19.26696777L327 392l-2.79394531-.40429688c-11.31798643-2.102946-23.13042117-11.81471923-29.67871094-20.92773437C285.32983605 357.18615979 281.56189728 344.37948061 283 328c2.96639851-15.39137057 11.42513007-28.44680348 23.6640625-38.1015625 5.90100629-3.95141129 12.21969117-6.76274635 18.78125-9.44140625 1.87221486-.76740235 3.74163281-1.55154785 5.54735374-2.46449184 5.60986122-2.77548555 9.99430025-3.51739227 16.20118142-3.27208043l2.64076233.05177308 5.63718032.14106559 8.99363327.17900277 25.55996704.517807c32.1824244 1.54700289 32.1824244 1.54700289 61.44732667-10.02841186 4.61382759-2.8875561 9.56595364-5.10804009 14.47259521-7.44888306l6.03051758-2.9765625L503 240l2.52581787-1.22668457 12.51293945-5.94671631 5.08477784-2.42376709C530.91006967 226.86035956 539.92304497 224.5303954 548 228.625z" fill="#06121b"/><path d="M601 357h18c-2.15923689 12.95542133-9.22092116 20.74916856-19.5 28.5L596 388c-1.55030118 1.55030118-1.24405099 3.03676001-1.3125 5.1875.0519228 4.65821708 1.18601429 7.25178017 4.3125 10.8125 3.23622605 2.37323244 6.06855147 2.59342619 10 2 14.47186392-6.80538706 24.3555571-22.90411508 29.91455078-37.38183594C640.23297088 364.7672621 641.21826375 360.995495 642 357l22.66343689.02846622 10.52552795.01621151 12.12353516.05297852 3.78564453-.04319763c5.94956937.09822737 9.93753447.31147038 14.53466797 4.31053161L709 365l1.77685547 1.51234436c7.42997036 6.45011381 12.29785132 15.93698207 13.05241644 25.72705722.16154541 3.88687171.16945371 7.76505561.15241754 11.65464139l.06185913 5.25782776.06572748 14.14949941.08437323 14.86296702.09126282 24.92941284.1524623 28.78284538.1522767 27.76894676.07349014 11.78646088.03715706 13.87338448.03176689 5.07918548c.183364 15.40725893.183364 15.40725893-5.15122127 21.36956406-3.25713889 2.56695087-6.44247468 2.35866072-10.40994549 2.32765007l-3.63165283-.01979065-3.92987061-.03465271-4.03973389-.0186615-17.14434814-.10462952-10.49486542-.05486869-5.91388702-.05012703C655.29864732 573.70954602 655.29864732 573.70954602 647 576c-2.34295182 3.51442773-3.38840271 6.8411384-4 11l-3.16796875-.97265625c-5.99193528-1.49039324-12.00111167-1.43410958-18.14453125-1.46484375l-3.57226562-.09960938-3.41601563-.02148437-3.09887695-.04077148c-2.81522053.36225997-2.81522053.36225997-4.46044922 2.97021484C605.77263535 590.52441421 605.7438391 591.81772573 607 595c2.37184313 2.34824795 3.71954845 2.96742308 7.06860352 3.35644531l3.56030273-.02832031 3.88476563-.015625 2.01342773-.03125 6.09594727-.046875C636.41898899 598.3357131 636.41898899 598.3357131 643 597v16c-2.70122415 1.35061208-4.07318657.61832608-7 0-3.99773655-.23934199-7.99577552-.23088676-12-.25l-3.2734375-.0625-3.1640625-.015625-2.87109375-.02832031C611.48325233 613.06843719 609.59908499 614.10186018 607 616c-.74601562 1.92529949-.74601562 1.92529949-.5625 4l-.00390625 2.0625C607.24606169 624.84170068 608.54685239 625.51551265 611 627c2.71714982.4589338 2.71714982.4589338 5.68359375.3984375l3.31054687.01171875L623.4375 627.375l3.43164062.03515625 3.31445313-.01171875 3.01733398-.01025391C636.42710677 626.94076757 638.29742232 625.76281705 641 624h2l.38452148 18.30444336.14355469 6.21777344c.55638005 19.44524875.55638005 19.44524875-3.68041992 25.20043945-3.55009187 3.67817518-7.82929916 6.02741784-12.91902637 6.65766048l-3.32213879.00736332-3.83569336.03001404-4.17045593-.01364136-4.42184449.02079773-11.9817698.01105762c-3.33974991-.0030948-6.67945777.00300406-10.01920169.00903875l-23.64993793.00109809c-8.118459-.01147191-16.23658729.00257988-24.3550027.02939648l-20.94583452.02292358c-4.164743-.00336284-8.32927421-.00099986-12.49398738.01625103-3.91948092.01552667-7.83847442.01145082-11.75793648-.00730514-1.43301237-.00367061-2.8660613-.00062223-4.29903984.00988579-9.57223317.06479656-17.40114589-.3375476-24.48828697-7.26719666-11.74435202-17.44875157-9.35067504-39.12743508-9.50390625-59.30859375l-.06324768-7.00042725-.15297699-18.55584335-.09304047-11.51224136L458 416c5.34794414 1.03819558 10.66467576 2.09088891 15.92578125 3.515625l3.13305664.8449707L480.3125 421.25l3.41967773.92651367 24.32958985 6.86938477c4.62759303 1.34645058 9.24829933 2.47612036 13.9633789 3.47167968C524 433 524 433 526.59375 434.10546875c3.34594903 1.24386742 6.34817101 1.19635701 9.90625 1.20703125l3.90625.05078125C545.96317327 434.80154879 549.43386876 432.20294038 553 428c1.40168222-3.86550874 1.22525324-7.98385102 1.31640625-12.046875l.06297302-2.3369751L554.5625 406.25l.13085938-5.00390625L555 389l1.78491211-.54736328L564.9375 385.875l2.80664062-.859375C577.50306235 381.86537658 584.74690447 376.78380635 591.875 369.5l1.6796875-1.64453125 1.625-1.63671875 1.42919922-1.43945312C598.52028675 362.45589746 598.52028675 362.45589746 601 357z" fill="#e8ebe9"/><path d="M525 165l2.48974609.04248047C594.01443633 166.34006642 664.31192053 191.71741299 715 235l3.22265625 2.6640625C724.92223984 243.24020244 731.26978906 249.08947168 737.4375 255.25l1.96948242 1.96704102C754.48590228 272.47019413 767.84760273 289.6846809 779 308l2.671875 4.28125C806.85916203 353.03137978 822.39133127 396.45014352 828 444l.32128906 2.703125c1.07498255 10.68047176.92168835 21.44899524.92871094 32.171875l.00305176 3.22869873C829.24189757 499.58985288 828.50935866 516.67204566 826 534l-.40576172 2.95019531C823.392594 552.46578304 818.93706412 567.15849028 814 582l-.90478516 2.81054688C805.71952415 607.61646569 794.64920958 630.26428765 781 650l-1.24414062 1.80664062C776.90357597 655.9207637 773.96799027 659.96890319 771 664l-2.2421875 3.08203125C753.67394714 687.56065984 736.10191994 707.34812341 716 723l-3.6953125 2.953125C677.94306133 753.12413929 638.18174961 772.49223437 596 784l-3.55029297.97045898c-9.2445964 2.45581312-18.47634616 4.13090388-27.95117187 5.41259766l-6.78369141.94702148C543.90410608 793.2702624 530.31475492 794.20962029 516.375 794.1875l-2.32357788-.00283813C473.49593112 794.07805988 434.99877424 787.21791686 397 773l-2.05175781-.76074219C369.2992635 762.64810203 344.83298447 748.44553914 323 732l-2.57421875-1.91015625c-9.0207782-6.85060894-17.78578637-14.18558804-25.6640625-22.328125C293.05939094 706.05939094 291.29505349 704.52950873 289.4375 703c-3.15669679-2.65304405-5.78870964-5.56279321-8.44921875-8.70703125-1.42018085-1.6378117-2.88698864-3.23565856-4.3828125-4.8046875C260.64168258 672.72981173 247.81182325 652.83363234 236 633l-1.04101562-1.71728516C217.64392888 602.57992404 206.37483727 570.00161314 201 537l-.47119141-2.83789062c-2.16947489-13.22657302-3.67276104-26.27640248-3.73193359-39.69726563l-.02139282-3.23826599C196.54744274 446.58735227 196.54744274 446.58735227 200 428l.60205078-3.33203125c5.74611674-30.95585886 15.53673871-60.77822233 30.31445313-88.625l2.27246093-4.3359375c6.5011725-12.51368653 13.90798625-24.05364669 22.18896485-35.46044922l4.34863281-6.15673828C268.46996208 277.51545013 278.52478713 266.15050175 289 255l1.859375-1.98828125c4.10583193-4.25246879 8.60774203-7.943722 13.21484375-11.640625 1.90164114-1.54111639 3.78099119-3.11030119 5.6328125-4.7109375C334.25902233 215.47333318 364.09386653 199.23554431 394 187l2.19726562-.90039062c20.69353724-8.33918665 42.17381304-13.41421425 64.19995118-16.67675782 2.5021786-.40650721 4.95881541-.91654783 7.43481445-1.45800781 6.23648048-1.27690003 12.51195595-1.67877229 18.85546875-2.08984375l3.85522461-.25512695C502.04592321 164.90960361 513.48098196 164.72722072 525 165zm-140 53l-4.0546875 1.96875C366.14674093 227.2017294 352.17262825 235.08528241 339 245l-1.70751953 1.27050781c-6.61297452 4.92701686-12.95551201 10.05594946-19.02685547 15.64746094-2.07454536 1.90643565-4.18828431 3.74968735-6.328125 5.58203125-7.21381163 6.2975412-13.75805537 13.19584474-19.9375 20.5l-2.3046875 2.67578125c-9.66488091 11.36602038-18.003155 23.35171028-25.48730469 36.25244141l-3.93457031 6.64599609C247.04196352 355.87360803 236.38446002 379.80980122 230 405l-.62353516 2.38134766c-8.79625191 34.22094375-11.09644617 71.15546415-6.67089843 106.17773437.29370907 2.43491152.52310984 4.86949138.74365234 7.31201172C224.69107212 533.15441134 227.5707718 544.91361332 230.75 556.8125l.61865234 2.34936523C234.38467489 570.52430291 238.30659108 581.2294758 243 592l1.30126953 3.07202148c8.02909058 18.86716755 18.05702628 36.02645589 30.48632813 52.31860352 1.77164673 2.35173082 3.45355003 4.76550307 5.14990234 7.171875C284.88844947 661.38020091 290.43861555 667.67964122 296 674l2.41796875 2.76171875C306.94604439 686.37655801 315.91441275 695.03278576 326 703l3.17578125 2.5859375C362.80214256 732.80001303 401.32036088 750.90086395 443 762l2.45361328.66308594C478.32455733 771.28998119 513.68948915 771.77144859 547.25 768.25l2.2975769-.23706055C576.00397891 765.20882958 602.39529135 758.04775 627 748l2.35009766-.95849609C650.086185 738.43927098 669.95480998 727.36244786 688 714l1.69824219-1.24755859c8.22280884-6.07448576 16.01907624-12.62635946 23.70751953-19.35791016L717.75390625 689.625c8.92673887-7.82312014 16.61107561-16.66223664 24.0390625-25.8984375l4.3828125-5.265625C770.24655051 630.15747525 785.6514956 593.58391756 795 558l.75683594-2.8125C806.07264332 516.27072318 808.52953382 471.62553578 801 432l-.5859375-3.33691406C795.92364292 403.27974193 788.4440813 379.11575597 777 356l-1.46923828-2.97607422C761.07744649 323.99561166 743.49280026 296.6006686 720 274l-7.32421875-7.39453125C707.09970993 260.90036438 701.36045954 255.8067595 695 251l-2.02050781-1.54785156C682.07485029 241.11778442 671.01844794 233.62246596 659 227l-2.15136719-1.21630859C626.91710717 208.89117861 595.11578535 199.39471617 561.4375 193.75l-2.34448242-.3961792C500.1231113 183.45201742 438.66717701 191.51157914 385 218z" fill="#051018"/><path d="M511.125 189.5625l2.76940918-.00067139C526.04669922 189.59334815 537.96245167 190.33582669 550 192l2.19451904.30319214L567.625 194.6875l2.34960938.38922119C590.92550208 198.59373863 610.4920001 204.6055755 630 213l2.39892578 1.02050781C642.20665825 218.20690641 651.73355383 222.70163937 661 228l3.46484375 1.9453125c15.50625291 8.88043564 29.69833661 19.84353349 43.02441406 31.71142578l4.34667969 3.80810547c4.41821405 3.8808637 8.48911903 7.83542791 12.2734375 12.3359375 2.27671382 2.6483262 4.67986721 5.16049158 7.078125 7.69921875 29.38448297 31.67141091 62.66266684 83.99256927 65.5 127.6875l.19921875 2.79296875L797 418c-6.79508611-3.04964649-11.41325968-9.36472106-16.1875-14.90625l-5.75-6.46875c-2.77493068-3.1111242-5.41839741-6.28939671-8-9.5625-2.72382343-3.44733903-5.54049422-6.7527645-8.5-10-6.30493837-6.93326556-12.21290777-14.09696333-17.625-21.75C734.31135789 346.12774856 727.51657787 338.92143784 716 337c-2.32939662-.11309678-4.66145314-.17591022-6.9934082-.20532227l-2.07115174-.02999877-6.73622131-.08108521-4.68681335-.06297302-12.30506897-.15284729-12.56866455-.16113282L646 336l-.40330505-3.34303284-.53590393-4.37791443-.26436615-2.19913482C642.4221639 306.79449512 633.16222006 289.89062684 621 275l-1.6171875-2.078125c-4.33695646-5.39189181-9.51068018-10.68057126-16.5078125-12.109375-3.67176277.17766594-4.55139041.22035381-7.3125 2.25-2.84438248 3.26063357-3.65017823 4.64126679-3.5625 8.9375 1.38791592 4.46115833 3.97415302 7.06918612 7.25 10.25 14.45959105 14.06247789 23.67833104 33.656207 24.75 53.75h-19l-.75-5.4375C601.87119366 316.48789585 594.29171135 305.59085607 583 297c-8.87720716-5.89336121-17.95705306-9.55919905-28-13l-.01104736-1.743927-.19647217-18.00704956-.06347656-6.71582032-.11962891-9.66601562-.00372314-3.02151489C554.48164709 238.931 553.922266 235.51449381 550 231c-5.37969646-4.03477234-11.56903054-3.83650556-18-3-5.51254486 1.82978822-10.65639883 4.27987962-15.875 6.8125l-4.41162109 2.07324219c-9.92412587 4.67343493-19.76010583 9.53260409-29.53759766 14.50488281-8.12729117 4.12332529-16.33678812 8.13512745-24.65991211 11.84887695-2.77796782 1.39100937-5.14319937 2.82386096-7.70556641 4.54248047-19.22638098 11.98288126-40.91067235 9.27290201-62.68481445 8.62359619l-25.23986626-.54651832-8.71010017-.25668907C341.89641483 275.31361587 333.9734529 276.56844289 324 282l-5.1875 2.4375-2.04296875.99609375C315 286 315 286 312 285v-2c-1.55705194-1.57840572-1.55705194-1.57840572-3.5-3.125l-1.96875-1.6328125L305 277c.86509589-5.49518658 5.09505548-8.3764311 9-12l1.81640625-1.6875C332.55303853 248.27483471 351.07068232 235.38988361 371 225l2.02587891-1.06103516C377.64220989 221.53718627 382.30425262 219.24210394 387 217l2.30322266-1.10546875C401.89670422 209.89836615 414.62414808 204.95867531 428 201l2.68212891-.80029297C456.98402112 192.54351267 483.80984195 189.53170173 511.125 189.5625z" fill="#fbce39"/><path d="M741 355l1.73828125 2.2109375L749.1875 364.625c4.03299322 4.44951547 7.84247837 9.0418722 11.6171875 13.7109375 2.06905767 2.51084934 4.20156872 4.93809504 6.3828125 7.3515625 2.41786667 2.67964358 4.64556479 5.38132238 6.75 8.3125 2.9077769 3.9823901 6.28917456 7.32382781 9.8203125 10.75390625 2.7269761 2.73172693 5.1938078 5.63140745 7.63671875 8.6171875C793.14033985 415.14238861 794.71515034 416.0467818 797 417h1l2.4375 13.3125.69726562 3.76757812.67382813 3.72070313.61889648 3.38012695c1.25973231 8.40340829 1.73862939 16.77831549 1.81079102 25.26831055l.02967834 2.91923523C804.52474698 501.21664117 802.25953661 531.08071339 794 562l-.76025391 2.91308594C785.6839764 593.37720096 772.58543209 623.23030004 755 647l-1.16259766 1.58203125c-4.90725921 6.64415278-10.08890075 12.94838034-15.69287109 19.0234375C736.00320162 669.99642515 734.0299147 672.46483437 732.0625 675c-6.51257821 8.22438237-13.99915009 15.16362487-22.1953125 21.6796875-1.90720015 1.543429-3.77821075 3.13270645-5.609375 4.765625C673.08674224 729.14374364 634.45988624 746.83167761 595 759l-2.75390625.85595703C568.96058457 766.95280463 540.42759219 772.06768989 516 770l-1-1 .06713867-5.11621094c.11204515-6.43954663.11204515-6.43954663-2.93432617-11.82519531-1.69994523-.9097151-3.4331204-1.75887656-5.1875-2.55859375-3.47232972-1.76840134-6.0905451-4.08525204-8.8828125-6.75l-1.51977539-1.43359375-3.0402832-2.890625C491.11855285 736.16352757 488.68381678 733.95827636 486.25 731.75l-2.734375-2.48828125L477 723.5625c-18.51408476-16.22368252-18.51408476-16.22368252-21-27.5625l2.6328125 1.05859375L462.125 698.4375l3.4453125 1.37109375c5.36038968 1.86209436 10.36482011 2.31702145 16.01733398 2.33184814l3.96678162.01730347 4.31666565.00338745 4.57484436.01504517 12.4042511.02401066 7.76651001.01150417 24.34750557.02720189 28.01401043.0510006 21.7103939.03304052 12.93880177.02481961 12.19381523.00986099 4.44270706.01345826C644.35924472 702.53647714 668.18032052 692.59996318 688 676l3.28515625-2.671875C714.08925002 654.53528221 742.20599147 626.94322894 747 596c.09871735-2.84650805.14782972-5.66863711.14717102-8.51502991l.01114148-2.5935573.01868945-8.60259443.01991272-6.17079163.04136658-20.27818298.01235008-6.99804497.04161197-32.91081816.07650089-37.87899875.04828012-29.33857715.03646118-17.49009425.01723862-16.49551773.01955604-6.00738716c.09061122-13.87274259-.36771329-28.4777381-5.62125683-41.53035832C741 359 741 359 741 355z" fill="#e6910b"/><path d="M531 253l-1 159c-11.3589046-2.67268344-22.44619414-5.49469957-33.5625-8.9375l-4.13085938-1.26367188-10.29473876-3.17547607-5.86297608-1.80743408C465.03440872 393.37888736 454.04591256 389.68197085 443 386v-93l28.6875-13.375 5.01953125-2.25 2.59619141-1.1640625c14.09609864-6.32958983 28.10466139-12.7546053 41.83105468-19.85888672l2.60400391-1.33251953 2.2824707-1.18432617C528 253 528 253 531 253z" fill="#ebeeea"/><path d="M411 401l4.31933594-.03662109 2.42962646-.02059937c2.68664802.0682935 4.9559071.58103443 7.5010376 1.43222046l2.390625.7734375L435 406l.5 75.25.01802588 2.79911327L436.0625 624.125l-.00259399 2.91346741L436 660h-1l-.83411503-24.14776421-.38683224-11.21209907-.36956596-10.81509781-.14482498-4.13143158-.19459343-5.7751503-.11439514-3.32418823C433 598 433 598 434 596l-2.375-.125c-8.70312355-2.10075396-15.52646199-8.26709116-22.37207031-13.76611328-4.38464526-3.49889447-8.91056064-6.57431181-13.69433594-9.51123047-2.48728668-1.55313015-4.86360035-3.20157946-7.24609375-4.91015625-3.63436563-2.58688127-7.35181249-4.96323165-11.15771484-7.28442383C351.83386195 544.93574443 351.83386195 544.93574443 347 533c-.24636612-2.70017269-.09065666-5.28030006 0-8h-2l1-2 4.98046875 2.24609375C361.29561327 529.09681501 377.68390975 528.60342474 388 525c7.99465343-3.72164901 15.91632044-10.02257946 20-18 1.9851195-5.7197566 2.30439055-10.85557122 2.31884766-16.88256836l.03044128-2.9291687.06477356-9.52810669.0586853-6.62879944.12814331-17.40464783.14129639-17.7770996L411 401z" fill="#e6990a"/><path d="M516 190l-.75 8.8125-.1875 2.52539062c-.58283785 6.04694267-.58283785 6.04694267-2.625 8.66601563-3.49151627 1.42682155-6.96587387 1.79713221-10.6875 2.12109375l-2.40869141.24023438c-5.23242641.50297803-10.46828144.84704483-15.71630859 1.13476562-5.69938996.31600578-11.16607232.99618326-16.7734375 2.0390625-2.92041367.47206687-5.77398451.67233819-8.7265625.8359375-9.81665403.74524337-18.79743196 3.68102288-27.421875 8.3359375-3.3665392 1.60543054-6.84265266 2.72883021-10.390625 3.8515625-5.21992748 1.65779247-9.63756228 3.59587119-14.3125 6.4375l-4.8125 1.8125c-4.77179102 1.84085735-8.57236222 4.37958219-12.68359375 7.390625-7.89703859 5.66714158-16.65762622 10.51762232-25.44140625 14.671875-6.01189048 2.97030162-11.37826406 7.03186277-16.65234375 11.14453125C339.38008619 275.41854247 332.20289898 278.72463751 324 282l-7.23046875 3.43359375C315 286 315 286 312 285v-2c-1.55705194-1.57840572-1.55705194-1.57840572-3.5-3.125l-1.96875-1.6328125L305 277c.86509589-5.49518658 5.09505548-8.3764311 9-12l1.81640625-1.6875C332.55303853 248.27483471 351.07068232 235.38988361 371 225l2.02587891-1.06103516C377.64220989 221.53718627 382.30425262 219.24210394 387 217l2.30322266-1.10546875C401.89670422 209.89836615 414.62414808 204.95867531 428 201l2.68212891-.80029297C458.40283281 192.13051203 487.19687238 188.85673956 516 190z" fill="#ebe6d6"/><path d="M349 395l39 1 .20724869 40.08134842.09450912 18.61054611.07775116 17.95384979.04341126 6.8561554.03118133 9.58892059.0435791 2.87498474c-.04045611 6.4168503-.04045611 6.4168503-2.40380859 9.60784912-4.86730252 3.31560688-10.64790879 2.74961144-16.34387207 2.86384583l-2.77734375.13867188c-6.13882332.10070822-9.63172677-1.0029684-14.40527344-4.88842774-2.83658593-3.05441099-3.8183925-5.78992536-3.80789184-9.92718506l-.0083313-2.54090881.02178955-2.76164246-.00088501-2.92784118.03262329-9.57704163.00857544-6.6416626.04940796-17.47875976.03967285-17.83660889L349 395z" fill="#e6eae9"/><path d="M716 374c5.28730303 4.93473617 7.12397766 10.4933515 7.49497533 17.68269837.11670301 3.88148314.13660231 7.76072212.14613795 11.64371765l.06053162 5.25561523.10344934 14.2123692.08431471 11.8839323.1691848 28.03821998.21873486 28.89329964.18085074 24.84657371.11326612 14.82275063.0739727 13.93474388.04627227 5.10336113c.2283821 15.48638891.2283821 15.48638891-5.10917282 21.43964482-3.3281383 2.61426498-6.69580281 2.37951457-10.75048637 2.40420627l-3.8527832.02911377-4.16674805.01287842-4.27026367.01727295-8.94750977.01983643-11.47007751.05797195-8.81718445.02536392-4.22943115.02418518-5.9100647.00868988-3.39770508.01104737C651 574 651 574 649.11450195 572.66522217 648 571 648 571 648 568l-3.2253418.06347656-11.88085937.15625-5.13574219.08203125-7.39477539.08886719-2.30802917.06256104c-3.74016817.00156863-5.83622706-.31264875-9.01545716-2.3526001-2.41629799-2.48830975-2.95705657-3.48004831-3.41479492-6.91308594C606 556 606 556 607.6875 553.125c4.72255623-3.02956437 8.51977023-2.56633188 14.015625-2.24853516l8.203125.33056641 12.51953125.4765625 2.66918945.11108398c2.22980832.15759886 4.45238914.42024731 6.66650391.72778321 4.56133746.59061082 9.03827394.53358491 13.62915039.43457031l5.3359375-.06445313 8.32128906-.13940429 8.09277344-.10864258 2.51275635-.07206726c3.80565423-.01733981 5.7292553-.00552311 8.91204834 2.22709656C700 557 700 557 699.8125 560.5625 699 564 699 564 698 567l5-1v-2l3.25-1.5c4.51829704-2.63795524 6.11417044-5.62787136 7.75-10.5 2.16000715-9.83096104 2.27633097-19.62023122 2.22705078-29.62231445l.00088501-4.88253784-.02514791-13.13156915-.01605082-13.76914191-.04269898-26.01881236-.04339087-29.64483875L716 374z" fill="#cdd2d3"/><path d="M499.642333984375 463.466552734375l2.60351562-.02610779 8.50024415-.00685119 5.92164611-.01878357 12.4047699.0087738 15.88128567-.0414896 12.22743511-.01223469 5.85477829-.02077103 8.19226265.01980782 2.43269348-.03543091c4.02768839.06796565 6.61609788.47289911 9.84429932 2.9872284 2.49473572 2.67930603 2.49473572 2.67930603 3.18223572 6.17930603-.84390262 4.2962315-2.36653464 5.74602871-5.6875 8.5l-1 1c-2.71210034.11645538-5.39907656.16801072-8.11230469.17700195l-2.57705689.01991272-8.48251342.04136658-2.92032624.01235008-15.30623626.04453468-15.82139206.0851717-12.15270615.03810978-5.83213806.03503799-8.16544342.01648522-2.43429566.03881836c-3.77708434-.0351633-5.94568634-.34699185-9.14901733-2.42097473-2.02957276-2.07047472-3.23093839-3.31466745-4.04656982-6.08781433.07757127-3.72342101.45285198-5.41606413 3.01844787-8.15415955 3.87941057-2.40169304 7.19868758-2.41516973 11.62388611-2.37928772z" fill="#050c16"/><path d="M618.361083984375 463.498291015625l2.54882812-.01637268 8.33618165.02198791 5.79859924-.00440979 12.15281677.03395081 15.56890774.01290989 11.97511578.01325703 5.74003219.0009346 8.02795601.03539848 2.39167786-.01364136c4.52925881.06119107 7.50574595.58874939 11.09880066 3.41769409 1.57455739 3.14911479 1.34799118 5.52008816 1 9-1.62744754 2.59839617-2.64706692 4.17429983-5 6-3.0800031.61271645-5.38164005.83362779-8.45874024.79223633l-2.54440307.03672791-8.30545044.00306701-5.78712464.02458191c-4.04104926.01335136-8.08130469.00451223-12.12229919-.01945495-5.17352143-.02857232-10.3447634.00146025-15.51808071.04863453l-11.94949627.0119791c-1.90695345-.00215094-3.81395013.0063317-5.72080612.02573013-2.66987125.02256377-5.33579068.00021328-8.00546456-.03360939l-2.37602234.04769898c-3.34485644-.08347207-5.41158843-.29697052-8.07156563-2.42562294-2.95932691-3.25645815-4.11196107-4.66868973-4.26554679-9.19946862 2.45236637-7.22085654 6.37921384-7.90104193 13.48608398-7.81420898z" fill="#030a13"/><path d="M498.672119140625 519.854736328125l2.81509399-.01902771 3.04794312-.00367737 3.1968689-.01283264 10.33047485-.00669861 3.53469849.00183106c14.95926321.02109275 29.89862561.18158159 44.84030151.93566894l2.19387817.09292603 6.05221558.32894897 3.36108398.19042969c3.58809309.77423372 5.34447731 2.09312138 7.95532227 4.63769531 1.25 2.875 1.25 2.875 1 6-2.37895619 3.03055892-5.26333426 5.52739218-9.02034378 6.5498066-2.24755685.20631103-4.42482582.22769305-6.68131638.17895317l-2.55015564.01725769c-2.76328701.01105472-5.52417252-.02087725-8.2872467-.05461121l-5.78573608-.00416565-12.09902955-.06980896-15.49802589-.06016445-11.93649483-.03900432-5.71491241-.01768113-7.98386765-.06479072-2.37739563.00411987c-4.54757885-.07983941-7.40197663-.7207653-11.06547546-3.43991089l-1.875-1.25c-1.125-1.75-1.125-1.75-1.0625-5.1875 1.01056309-3.84013975 1.78842469-5.22318691 4.9375-7.5625 2.92916118-.94078663 5.60663434-1.1308257 8.67211914-1.14526367z" fill="#0c131a"/><path d="M500.474609375 550.498291015625l2.54927063-.01637268 8.31986999.02198791 5.79431153-.00440979 12.13488769.03395081 15.54528046.01290989 11.96224213.01325703 5.73165893.0009346 8.01325989.03539848 2.38691711-.01364136c4.53545715.06139583 7.50267778.57367485 11.08769226 3.41769409 2.34549675 3.51824512 2.57991403 4.85775695 2 9-2.79422904 3.73492649-4.28903395 4.88561626-8.94641113 5.63491822-1.57032391.02957912-3.14131322.03176596-4.71179199.01205444l-2.60838318.02655029c-2.83873751.02196517-5.67591099.0074518-8.5146637-.00946045l-5.928833.01449585c-4.13932039.00736742-8.27810084-.00333009-12.4173584-.02670288-5.30326566-.02848756-10.60526616-.01208291-15.90848541.01786232-4.08015713.01807642-8.16001478.01231334-12.24018097-.00063896-1.9552119-.00333305-3.91045107.00074952-5.86563111.01239777-2.73408411.01271437-5.46612584-.0066757-8.20005798-.03450394l-2.44358826.03067017c-4.10044773-.07723735-5.97519645-.48533985-9.21424865-3.0869751-1.95136716-2.5272092-2.68746112-3.5297939-2.62536622-6.65316773.625-3.9375.625-3.9375 2.63439942-6.15223693 3.84976145-2.29814605 7.11152258-2.34040894 11.46520996-2.28697205z" fill="#030b14"/><path d="M501.225830078125 611.791259765625l2.57749939-.02964783 8.46620178-.07020569 2.91754723-.01991462 15.28679848-.07652092 12.66113281-.10253906 15.27646446-.10063363 5.8237648-.05674362 8.1507473-.03207588 2.42953491-.06060791c2.96406522.03859486 5.41517737.16989421 7.82440758 2.0105114 2.61417145 2.92473662 3.355467 4.47547153 3.42257118 8.43461799-1.19208614 3.71650385-1.78276311 4.39891735-5.0625 6.3125-9.77174361 1.87153744-20.30224401 1.19474846-30.24609375 1.23828125l-2.41514778.01235009-12.60609245.04453468-12.96823025.0851717-10.03990459.03810978-4.78300095.03503799-6.67370796.01648522-3.82444763.01777649c-4.10693678-.58173946-6.23849554-1.89802266-9.44337464-4.4877472-2-3-2-3-1.875-5.4375 2.58318781-7.56505 8.12673554-7.72089988 15.10083008-7.77124023z" fill="#050b12"/><path d="M503.67578125 581.4765625l3.47445679.01246643L518.3125 581.625l7.6418457.0715332 15.10522461.19750977 15.33912659.15777588 9.22639465.10681152 6.04214478.04498291c9.49560868.23605195 9.49560868.23605195 12.62573242 3.12451172C586.56028197 588.87696309 586.75105593 590.86919238 586 595c-2.91841182 3.18801765-4.62449245 3.95166918-8.94641113 4.50793457l-4.711792.00964355-2.60838317.02124024c-2.8385517.01757099-5.67610228.00596052-8.5146637-.00756836l-5.92883301.01159668c-4.13924806.00589383-8.27815054-.0026643-12.4173584-.0213623-5.30310829-.02278938-10.60540682-.0096657-15.90848541.01428985-4.08012228.01446101-8.16005289.00985057-12.24018097-.00051117-1.95521134-.00266644-3.91044015.00059957-5.8656311.00991821-2.73382087.01017052-5.46633438-.00534226-8.20005798-.02760315l-2.44358826.02453614c-3.7787681-.05694247-5.97927293-.39141479-9.19325257-2.44946289-2.38650918-2.47067619-2.93156542-3.51538571-3.4588623-6.90515137.49944052-3.63878093 1.53213764-4.91621046 4.39877319-7.15093994 4.27136054-2.17170918 9.0319704-1.65715813 13.71450806-1.55999756z" fill="#040d16"/><path d="M618.269287109375 520.384765625l2.51927185-.01681519 8.23878479.03829957 5.7313385-.00012208 12.01158142.05187989 15.38730526.03653717 11.83614636.02613067 5.67304611.00930787 7.93455696.0500946 2.36334229-.00888062c5.65087652.08849924 8.88325438 1.34845369 12.91033935 5.2413025 1.61417527 3.13867413 1.16406995 4.86247617.125 8.1875-1.54948425 2.15614318-1.54948425 2.15614318-4 4-2.84550008.38957698-5.30236896.53743618-8.14575195.50170898l-2.47998047.01637268c-2.70455133.01250312-5.40804107-.00401818-8.11254883-.02198792l-5.64970398.0044098c-3.94853302.00138485-7.89670321-.01118498-11.84516907-.03395081l-15.15130329-.01290989c-3.8906139.00697195-7.78108903-.00085039-11.67168522-.01325703l-5.5843544-.0009346c-2.60883005.00292559-5.21684095-.01366069-7.82556724-.03539848l-2.31321717.01364136c-5.10058936-.07025911-8.70458577-.98954813-13.22071838-3.41769409-2-3-2-3-1.875-5.875 2.1019025-7.50679465 5.80578378-8.86471191 13.14428711-8.74023438z" fill="#080f17"/><path d="M619.474609375 433.368896484375l2.54927063-.02168274 8.31986999.02388001 5.79431153-.00730896 12.13488769.03929138 15.54528046.00933742 11.96224213.01338482 5.73165893-.00154495 8.01325989.04229927 2.38691711-.01977539c3.71838673.06466559 5.88090683.42151454 9.04704285 2.43812561 2.04064941 2.11509705 2.04064941 2.11509705 3.16564941 4.49009705-.19316868 4.05654236-2.33320752 5.83320752-5.125 8.625-3.71472977 1.23824325-7.17758149 1.17158504-11.0480957 1.19287109l-2.48440552.02478027-8.14328002.05578614-2.81068993.01613235-14.72617531.0605278-12.18359375.08203125-14.71584129.08119583-5.60358048.04589081-7.8480587.02428055-2.32887268.04971313c-3.93902795-.04556531-6.55168259-.58383021-9.62295532-2.98217773-2.4844513-2.65103149-2.4844513-2.65103149-2.6719513-5.65103149 2.88513133-7.28875282 7.28623226-8.74058953 14.66210938-8.63110352z" fill="#050d15"/><path d="M564 433l3.66015625.13671875C580.75641556 433.75641556 580.75641556 433.75641556 586 439c.51675938 3.87569534.31754464 5.52368304-1.875 8.8125-2.65696429 2.73511029-3.38485649 3.1570145-7.20797729 3.31448364l-4.02200318.00241089-2.21830749.00531006c-2.43132369.00441623-4.86257505.0014783-7.29389954-.00189209l-5.08425903.00289917c-3.56274328.00147725-7.12546154-.00067578-10.68820191-.00534058-4.53660043-.00565396-9.07314114-.00244623-13.6097393.00357247-3.50732039.00364211-7.01462702.00244965-10.52194786-.00012779-1.67031614-.00066149-3.34063357.00013155-5.01094818.00247955C490.999682 451.16639284 490.999682 451.16639284 485 446c.48432634-6.29624247.48432634-6.29624247 2.6171875-9.20703125 3.23072704-2.43098969 5.23425705-2.2932061 9.2578125-2.23046875l2.0793457.03125c6.13809621.18413612 12.16266654 1.02275178 18.2331543 1.90625 16.48612469 2.47095556 16.48612469 2.47095556 32.078125-2.3828125C554.13806651 432.12644711 558.83838622 432.62725188 564 433z" fill="#040e16"/><path d="M669 595l21.875-.0625 6.90576172-.02758789 5.39892578-.00756836 2.84790039-.01550293 2.70629883-.00036621 2.35519409-.00672913C713 595 713 595 715 596c-.59259284 3.43399956-1.77923847 5.20437538-4.125 7.75l-1.921875 2.1171875L707 608l-3.375 3.875L691 626l-6.71875 7.46875-4.8125 5.3125L677 641.5l-2.25 2.46875c-1.7934104 1.91391431-1.7934104 1.91391431-2.75 4.03125h-2l-1-53z" fill="#172835"/><path d="M235.0625 444.25l2.18164062.12109375C240.92969003 444.62432556 242.86888318 444.91258879 246 447v2h2c.99822799 2.99468396 1.12895023 4.99348114 1.1328125 8.12109375l.00708008 3.0690918L249 476l-.02197266 2.22070312L248.8125 483.1875l-.10546875 2.54296875C247.61862842 489.2241817 245.85658367 490.76074515 243 493c-3.5234375.92578125-3.5234375.92578125-7.375 1.3125l-3.8359375.42578125C228.17680356 494.9877878 224.61915924 495.01814183 221 495c-.37886464-30.55980471-.37886464-30.55980471.75-41.8125l.18701172-2.18310547c.32853915-2.74374592.5701595-4.54580695 2.63720703-6.46923828 3.53324112-.77947509 6.91421266-.56181683 10.48828125-.28515625z" fill="#e8e7df"/><path d="M555 307c10.14907438 2.51927378 17.40256944 7.86080677 22.84765625 16.8203125C581.22242873 330.20378045 581.93763379 336.89937747 581 344c-3.19835172 9.80923051-9.25323616 15.78175611-18.25 20.4375C557.47780679 367 557.47780679 367 554 367l-.05493164-23.22387695-.02050781-7.90039063-.0222168-11.35620117-.01564026-3.56742859-.00022888-3.33564758-.00672913-2.9271698C553.99874131 312.0281485 554.40531032 309.59273509 555 307z" fill="#eaefef"/><path d="M330 304v66c-9.86045555-3.28681852-16.44660424-10.24634097-21.2578125-19.390625-3.68081838-8.59715623-4.40836936-18.52941332-1.9296875-27.57421875C309.69720924 316.5345441 314.43259943 312.2689962 320 308l1.7734375-1.3828125C324.86203969 304.37520723 326.03149378 304 330 304z" fill="#eef2f2"/><path d="M304 275l1 2 1.8125.875c2.65036716 1.36304597 4.29416386 2.82594897 6.1875 5.125v4c-2.125 1.82421875-2.125 1.82421875-5 3.6875-12.07886888 8.45984799-20.38044318 20.8181616-23.66455078 35.31030273C283.77560805 329.33932926 283.70205245 332.61826349 283.75 336l.02270508 2.13183594C283.87781812 343.18900634 284.333578 347.23879429 286 352l.9296875 2.71875C292.57204154 369.81691116 302.72787903 380.8309022 317 388c-3.71875 1.1171875-3.71875 1.1171875-6.25.0625L309 387v-2h-3l-1-2-2.25-1.3125c-3.08506401-1.89310746-5.33679515-3.99850031-7.75-6.6875v-2l-3-1-1-3-1.4375-1.3125c-2.11959131-2.28915862-2.62301561-4.74378226-3.5625-7.6875l-2-2c-4.25191787-13.14370233-4.93731535-24.44114252-2-38l3-1-1-7h3l.875-2.25c2.90435626-7.09953752 6.65177136-13.37619687 13.125-17.75h2v-7l-3 1-3 1c-6.35600821 6.81000879-14.01674868 15.35985997-17.84765625 23.88671875-1.48977527 2.73209634-3.43805645 4.68212782-5.58984375 6.92578125-3.5954078 3.92174258-5.68304233 7.17561288-7.5625 12.1875-.8711666 1.49382735-1.77031929 2.97147444-2.6875 4.4375-3.17356816 5.15704827-5.85493909 10.50483528-8.50854492 15.94116211-1.40803927 2.87514475-2.82335728 5.65337409-4.48364258 8.39477539-1.49547474 2.30495972-1.49547474 2.30495972-2.2578125 5.5390625C247 368 247 368 245.1875 371.4375c-3.07459364 5.8853229-4.74412997 12.3463062-6.62792969 18.68701172l-1.47363281 4.81689453C235.44194352 400.24702318 234.13439626 405.56435125 233 411l-1.0625 5-.47265625 2.25C231 420 231 420 230 421c-.23363881 1.84891946-.41303635 3.70488031-.5625 5.5625l-.25390625 3.06640625L229 432l2.35546875-.11328125C234 432 234 432 236.3125 433.8125 238 436 238 436 238 439l3.375-.0625C245 439 245 439 247 440c3.04822181 6.17835193 3.39209961 12.30022054 3.1875 19.0625l-.04101562 2.62304688L250 468h-1l-1-19h-2l-1.12890625-1.453125c-2.91027264-2.4059874-6.18413016-2.16059257-9.80859375-2.296875l-2.16992188-.12890625C229.42841346 444.94772499 226.30538923 444.8608058 223 446c1.57638351-23.45272611 7.30215963-47.19000177 16-69l.92480469-2.36962891C249.87227525 349.29782301 263.48796644 324.64530825 280 303l2.04296875-2.68359375c4.28727984-5.48532211 8.89974029-10.63302224 13.61328125-15.75390625 2.85900192-3.1258421 5.61093224-6.32626844 8.34375-9.5625z" fill="#e3c862"/><path d="M443 370l3.10131836 1.53686523c10.2712189 5.00931551 20.59418524 9.02160799 31.46118164 12.52563477l4.72607422 1.55273438c9.97983994 3.2644444 20.00409346 6.36265036 30.12768555 9.15454101C518.47405937 396.45635071 524.19295328 398.581266 530 401v11c-11.38012422-2.32814755-22.46201445-5.55075196-33.5625-8.9375l-2.09347534-.63861084L480 398l-2.09075928-.64736938L452.5 389.1875l-2.81640625-.94335938L443 386v-16z" fill="#d4dbdd"/><path d="M621.69873046875 550.880859375l8.24267578.29101562 6.43359375.203125 3.1340332.09228516c5.49642108.21634896 10.28511981.72899885 15.4909668 2.53271484l-1 12c-5.42191598 1.51775799-10.39650291 2.31763776-16.04296875 2.3359375l-2.21662903.02017212-4.59562683.01449585-7.01000976.07861329-4.49023438.01171874-2.09941101.04354859c-4.78334494-.04497002-7.18568931-1.12656432-10.54512024-4.50448609-1.44430855-2.88861709-1.37688506-4.79647701-1-8 3.76978798-6.42260174 9.0597692-5.50476574 15.69873047-5.11914062z" fill="#030a16"/><path d="M412 399c6.40629424-.20852314 11.92972642-.1583195 18 2v2l1.8125.375C434 404 434 404 437 406c.30458518 2.60775689.41131186 4.98070964.39199829 7.59204102l.01800382 2.40153598.0065018 8.01032925.02601623 5.72506714.0306592 15.58219528.05059385 16.2769661.08112467 30.84704303.1539917 55.26559258.04683959 19.41194629.02964187 12.05577469.00842285 5.60918427.01817512 7.63028335-.00323712 2.26561833C437.8165359 598.46276211 437.8165359 598.46276211 439 602c.01652352 1.96258515-.03638191 3.92589306-.12109375 5.88671875l-.1472168 3.73999023-.08432007 2.00411988c-.47154081 11.42702268-.78052515 22.85554867-.82562255 34.29241943l-.04806519 5.92123413C437.76638325 660.32073414 438.29094828 665.77674416 440 672c-.44213867 2.21069336-.44213867 2.21069336-1 4-3.49016588-8.7477346-3.4762562-17.4518248-3.51171875-26.71875l-.05453491-5.21987915-.10350418-14.49213409-.06678391-9.23372651L435 406l-2.3503418-.45507812c-2.56492151-.52749515-4.97208345-1.2403743-7.4621582-2.04492188-4.41801054-1.35785931-8.59058386-2.07435962-13.1875-2.5v-2z" fill="#372a07"/><path d="M654 553l17.72460938-.21972656 6.02929687-.08203125 8.66796875-.08886719 2.72137451-.06256104c6.19651262-.00222719 6.19651262-.00222719 9.4631958 2.2510376C700 557 700 557 699.875 560.625 699 564 699 564 697 566c-1.87295532.24050903-1.87295532.24050903-4.17431641.22705078l-2.60830688-.00045776-2.81893921-.03128052-2.88363647-.00857544L675.375 566.125l-6.1875-.02734375L654 566v-13z" fill="#6b717e"/><path d="M741 359c2.78252056 2.78252056 3.18122629 5.97140666 4.0625 9.6875l.52539062 2.10742188c1.70583157 6.99979157 2.56258168 13.81663956 2.5323639 21.0322113l.00258916 2.29501396-.00931829 7.56315559.00044251 5.44145203-.01257396 14.73795581-.00802541 15.4148457-.02134949 29.17497451-.02169543 33.22113686L748 568h-1c-.8117186-11.01931342-1.14618244-21.96565187-1.1418457-33.01269531l-.01052857-4.90473938-.01629066-10.46105194-.04134178-16.60436249-.01897717-5.7196312-.00959337-2.89078092-.08735048-38.5722661-.06935567-26.13685871-.02716571-13.77394604c.24568461-24.9549242.24568461-24.9549242-3.72273827-49.50661469C741 363 741 363 741 359z" fill="#2f200a"/><path d="M578 326c3.31500211 3.31500211 3.20085581 7.6530531 3.375 12.1875-.09518447 7.85800672-3.32851633 13.88250132-8.5625 19.625-3.97435069 3.67736624-8.67424836 6.46277218-13.8125 8.1875l-3-1v-12l5-2c1.42985233-.99445586 2.82799618-2.0363451 4.1875-3.125C568.784689 345 568.784689 345 571 345v-2h2c1.95088223-5.61854082 3.63172347-11.21113776 5-17z" fill="#dce4e7"/><path d="M456 696l2.6328125 1.05859375L462.125 698.4375l3.4453125 1.37109375c5.37333945 1.86659286 10.37800891 2.3165147 16.04425049 2.31838989l3.9842987.00854492 4.33570862-.00613403 4.59431458.00531006 12.45303058-.00037909 13.05855084.00138617 21.94049072-.00534058 25.31265378.00182641 21.77135229.00256133 12.98536802.00153649 12.22332573-.00489426 4.46709823.00126267C626.54532331 702.14321896 634.24909504 702.00972533 642 701v2c-4.71770527 1.50492966-8.68518685 2.25258047-13.6809845 2.26742554l-3.95343017.02584839-4.28672791-.00274659-4.55581665.02035523-12.34289765.02363157-7.73596549.01099444-27.06112099.02509689c-8.36651669-.00119741-16.73277375.01982674-25.09922486.05148733l-21.63675726.03560185c-4.29413636-.00050598-8.58804248.00497146-12.88213044.0263561C474.47410935 705.64344364 474.47410935 705.64344364 460 701v-2l-4-1v-2z" fill="#c28534"/><path d="M458 416h1l-.00672913 2.33065796-.04508304 22.13821983-.02362728 11.37145424c-.05045424 16.97748524.07144874 33.90123917.85888672 50.86547852.20748586 4.58432157.2569885 9.1429784.21655273 13.73168945-.04849836 5.75311793.16550668 11.44725445.5 17.1875.5797951 10.1221719.7554562 20.11473086.02734375 30.23828125-.87590743 13.63331256-.87694373 27.3153652-1.05957031 40.97198486l-.16113282 11.24481201L459 638h-1V416z" fill="#cdcdc8"/><path d="M516 190c13.51649713-.33146723 26.66761569.6657813 40 3v1c-11.68825948.19847988-23.33022763-.40920501-35-1-2.55533333 4.79213481-3.89949553 9.24110232-5.05859375 14.51171875C514.74854573 210.66463225 513.94275331 211.34498954 511 213c-2.92173884.58211767-5.84566901.74441202-8.81640625.9140625l-2.5844574.18173218L491.4375 214.625l-8.17234802.55062866-5.08169556.33062744C474.93355631 215.71921404 472.10429133 215.96523622 469 217l-7.1875 1.3125c-9.93619246 1.81403881-20.17409724 3.6924811-29.5625 7.5-3.34646028 1.2227451-4.05387177 1.20887141-7.25.1875 6.92244256-2.9634145 13.82190552-5.72562208 21-8l2.66015625-1.015625c4.28240208-1.26218166 8.46753915-1.65244149 12.90234375-2.046875l5.00390625-.47265625 2.21704102-.19946289c2.25263209-.23633917 2.25263209-.23633917 4.58203125-.76538086 3.08212558-.58494979 6.08842161-.7846667 9.22045898-.96484375l3.8203125-.23632813 7.9140625-.4609375 3.828125-.24023437 3.47412109-.20288086C507.77347993 210.83193692 507.77347993 210.83193692 513 208c.37514918-2.64656024.7061971-5.28179725 1-7.9375.86703911-7.79657821.86703911-7.79657821 2-10.0625z" fill="#f4cd56"/><path d="M434 432h1l.5 62.25.01802588 2.33044052L436.0625 622.5l-.00259399 2.98091125L436 660h-1l-.83411503-24.14776421-.38683224-11.21209907-.36956596-10.81509781-.14482498-4.13143158-.19459343-5.7751503-.11439514-3.32418823C433 598 433 598 434 596l-3-1h2l1-163z" fill="#c18b2d"/><path d="M797 417h1l2.4375 13.3125.69726562 3.76757812.67382813 3.72070313.61889648 3.38012695c1.25973231 8.40340829 1.73862939 16.77831549 1.81079102 25.26831055l.02967834 2.91923523C804.55302897 504.72432961 801.56191104 538.02468703 791 572c-1.18719263-4.36503148-.67009018-7.53273214 0-12h2l2-16h2l.16381836-1.91845703 1.59008789-15.57373047C800.59450325 510.14396473 801.28376006 493.96778539 801.25 477.5l-.00289917-2.88568115C801.21133403 459.33678491 800.5143754 444.2081955 799 429h-2l-.5625-5.4375-.31640625-3.05859375L796 418l1-1z" fill="#ce9439"/><path d="M303 379l6 2v2l1.5625.3125c3.29776435.93013866 6.30383332 2.30145512 9.4375 3.6875v2h5v2h4l.01003075 1.68832684.27749633 40.68811798.13434792 19.6765337.13618851 18.98479652.04528045 7.24721909.07780838 10.14151954.00654602 3.0341034C329.74468805 497.17772794 330.02932491 500.64733603 332 505l-1 3c-3.85691788-6.50170591-4.56381991-11.33698506-4.45410156-18.82226562l-.00177002-3.19561768.06524658-10.3883667.01715088-7.2298584.09881592-18.97790527L326.8046875 430 327 392l-2.78076172-.39331055c-3.92359534-.73943079-6.95491744-2.41110796-10.34423828-4.41918945l-1.83984375-1.04101562C308.54649532 384.12093287 305.70465007 381.99395344 303 379z" fill="#0f0903"/><path d="M666 692l-10.8125 4.375-3.04492188 1.25-3.03710937 1.2109375-2.74536133 1.11083984c-9.87304968 3.09469857-19.66964953 3.33810674-29.92578125 3.29614258l-4.61599731.00575257c-4.14635417.00481218-8.2925993-.00276031-12.43894029-.01295305l-13.05607009-.00663924-21.90119934-.02326965-25.29786855-.02026445c-8.99733475.00067587-17.99465199-.00626407-26.99198145-.0154466l-7.75834679-.00323892-12.19147682-.01716614-4.46731377-.00357246c-2.03577011.00049281-4.07153846-.00579839-6.1072979-.01240921l-3.44834614-.00507832C475.02810731 703.00114435 472.07604669 702.58458083 469 702v-1l3.87512207.00672913 104.96279144-.0007782 8.73905182-.01449585 25.12811279-.14505005 6.62060547-.04168701c11.06614254-.03384109 20.50968757-.65780114 30.87133789-4.73953247C652 695 652 695 655 695l1-3c3.73567172-.76411467 6.34811918-1.07174763 10 0z" fill="#160902"/><path d="M747 378h2l.10362434 86.36930752.00623894 7.98494053.00158976 2.0047142.03942587 30.11344986.03729808 34.95547539.02328312 18.50704712.01475525 17.4259758.01219559 6.38889885.00209808 8.73992156.01765359 2.53810591C749.22440779 599.73484049 748.78865877 606.31701184 745 612h-2l-.875 2.4375C741 617 741 617 739 618c1.49039452-5.01314519 3.62943857-9.61054656 5.87890625-14.31640625 2.2902332-5.48219584 2.26177593-10.71454232 2.24134827-16.56098938l.00258916-2.71056527-.00931829-8.9913848.00044251-6.44548035-.01257396-17.50268579-.00802541-18.28967261-.02134949-34.63631648-.02169543-39.43127864L747 378z" fill="#d99437"/><path d="M227 427h1l1 5 2.25-.25c2.75.25 2.75.25 5.0625 2.0625C238 436 238 436 238 439l3.375-.0625C245 439 245 439 247 440c3.04822181 6.17835193 3.39209961 12.30022054 3.1875 19.0625l-.04101562 2.62304688L250 468h-1l-1-19h-2l-1.12890625-1.453125c-2.91027264-2.4059874-6.18413016-2.16059257-9.80859375-2.296875l-2.16992188-.12890625C229.28401561 444.94049841 226.53883304 445.11529174 223 446l2-14h2v-5z" fill="#f1db8f"/><path d="M255 342h1c-.28217604 6.20787281-2.72441186 10.68331862-5.58203125 16.140625C248.82485489 361.35318517 247.93044699 364.54405403 247 368l-1.8125 3.4375c-3.07459364 5.8853229-4.74412997 12.3463062-6.62792969 18.68701172l-1.47363281 4.81689453C235.44194352 400.24702318 234.13439626 405.56435125 233 411l-1.0625 5-.47265625 2.25C231 420 231 420 230 421l-.4375 3.3125c-.47723064 3.12851199-.96710685 5.02851141-2.5625 7.6875h-2c1.97483619-18.82983346 7.03904949-37.43206008 14-55l.96142578-2.43554688C244.41027706 363.41904991 249.47665836 352.65006035 255 342z" fill="#dfc163"/><path d="M326 393h1l-.00241089 3.9881134.08268929 37.29515553.03983879 19.17156505.05843734 18.51804162.00186921 7.04813003C326.69948869 496.10145366 326.69948869 496.10145366 334 511l1.78982544 2.48835754C337.14621453 515.37010162 338.54248481 517.19619575 340 519c-3.52834378-.60041144-3.90567885-.87685849-6.25-3.9375C332 512 332 512 332 510l-3-1c-4.00055949-5.29482296-4.57065761-10.78337952-4.4699707-17.20727539l-.00663758-2.67926025.05082703-8.71112061.00996399-6.11314392.05912781-12.80262756.06730938-16.29201603.05109882-15.66721249.01029015-2.96269417C324.8189848 415.33548214 325.06714135 404.19410078 326 393z" fill="#dabb5e"/><path d="M293 301l3 1-1.13671875 1.546875c-9.37537061 13.31916631-12.4175793 26.79750638-10.58984375 42.85546875C284.72805077 348.59828566 284.72805077 348.59828566 286 352l.9296875 2.71875C292.57204154 369.81691116 302.72787903 380.8309022 317 388c-3.71875 1.1171875-3.71875 1.1171875-6.25.0625L309 387v-2h-3l-1-2-2.25-1.3125c-3.08506401-1.89310746-5.33679515-3.99850031-7.75-6.6875v-2l-3-1-1-3-1.4375-1.3125c-2.11959131-2.28915862-2.62301561-4.74378226-3.5625-7.6875l-2-2c-4.25191787-13.14370233-4.93731535-24.44114252-2-38l3-1-1-7h3l.875-2.25c2.50961538-6.13461538 2.50961538-6.13461538 5.125-8.75z" fill="#ebc863"/><path d="M411 401c10.2 0 10.2 0 14.3125 1.3125l2.42578125.73828125C430.15880307 404.06664792 431.97347797 405.34446598 434 407l-4.4375-.9375-2.49609375-.52734375C425 405 425 405 424 404l-11-1v96l-2 1v-99z" fill="#c5862d"/><path d="M629 284h3l.375 1.9375L633 288l2 1 2 4.4375c1.14709767 2.79156973 1.84618666 4.40868666 4 6.5625l1.4375 4.5625 2.421875 7.53515625C648.17191821 320.20713703 647 325.04878016 647 335h69v1h-70l-2-16c-2.34003706-10.7416159-6.77055567-20.00879501-12.109375-29.55078125C630 287 630 287 629 284z" fill="#f3df75"/><path d="M304 275l1 2 1.8125.875c2.65036716 1.36304597 4.29416386 2.82594897 6.1875 5.125v4c-2.1953125 1.9296875-2.1953125 1.9296875-5.125 3.875-3.42854114 2.35629468-6.56915743 4.60644498-9.4375 7.625L296 301h-2c1.34634457-4.4062186 3.19374374-6.43077702 7-9h2v-7l-2.375.625L298 286l-2-2 8-9z" fill="#f3e195"/><path d="M492 212v1l-3.078125.1484375c-7.46627817.39353736-14.70747089 1.02125554-22.0703125 2.390625-2.92041367.47206687-5.77398451.67233819-8.7265625.8359375-9.91887739.75300378-18.94670457 3.75569015-27.66015625 8.453125C426.17536992 226.86749449 421.60972165 227.92206129 417 229l1-2h2v-2l1.94140625-.515625c4.16483263-1.16689797 8.03597449-2.28522696 11.74609375-4.546875 5.85731324-3.42597567 12.28676874-4.52015776 18.9375-5.4375 3.35689736-.39741838 3.35689736-.39741838 6.375-1.5 10.82217585-1.77808569 22.07296007-1.09398671 33-1z" fill="#f7e1a3"/><path d="M554 237h1v47l9 2 7.9375 3.625 2.09375 1.06860352C584.46008999 296.17970941 595.96954695 304.49305655 600 316l-4-2v-2h-2l-1-5h-2v-2h-2v-2l-1.69921875-.7890625c-2.54540854-1.3396887-4.78070394-2.90354316-7.11328125-4.5859375-7.75438257-5.48508532-15.02833181-9.03278259-24.1875-11.625l-2-1v-48z" fill="#2c2107"/><path d="M419 228l2 1c-2.64738916 1.4606285-3.89448334 2-7 2v2c-3.78356997 2.04517296-7.46444491 3.48893896-11.5625 4.8125-3.62039044 1.26713665-5.93386234 2.22180982-8.25 5.3125-2.59985353 3.41695036-4.17877021 3.64783782-8.1875 4.875l-6 5c-1.97711651 1.04451438-3.97250996 2.05698138-6 3l-1 1c-1.66617115.04063832-3.33388095.042721-5 0v2c-3.6678852 1.96189209-6.87248551 3.39301257-11 4 2.77377107-3.2211535 5.05578575-5.19268457 9-6.8125 8.53307897-3.51528834 16.12405527-8.98669052 23.875-13.9375 6.39750708-4.07114087 12.58680822-7.56917023 19.6875-10.296875 2.18490831-.85435517 4.30564795-1.78852614 6.4375-2.765625L419 228z" fill="#efca57"/><path d="M556 194c6.97899923-.28657726 13.41195059.78003267 20.25 2.125l3.47021484.67797852C595.67834311 200.02860491 610.87285265 205.04210118 626 211c-3.41610225.94314127-6.45134864 1.08065117-10 1l-1-2c-5.34339027-2.714103-10.99578799-4.3991576-16.8515625-5.5703125C596.07789213 204.01557843 594.04482873 203.52535126 592 203c-6.63798231-1.67599156-13.21201389-3.06831563-20-4-1.33917261-.30903983-2.67653254-.62942911-4-1v-2l-12-1v-1z" fill="#e7cc71"/><path d="M569 766c-6.61693216 2.56545299-12.82709548 3.66873771-19.88671875 4.17578125l-3.13664246.24177551c-11.13239651.78263724-22.25670952.85097397-33.41194152.78825379l-10.34399415-.02026367-6.61523437-.01757813-3.10542297-.00337219-2.85868836-.01933289-2.50593567-.0115509C485 771 485 771 482 770v-2l2.4453125.21875c23.09296701 1.76506754 45.62951649.96199041 68.5690918-1.88354492l2.33009338-.283844 4.32723999-.5548706C563.08919624 765.07174031 565.70466734 765.04984809 569 766z" fill="#0d0800"/><path d="M592 304c1.83984375.2265625 1.83984375.2265625 4 1 1.37890625 1.9609375 1.37890625 1.9609375 2.5625 4.375 1.53652176 3.09319463 2.99789908 5.206613 5.4375 7.625v2l2 2v5l1 1c.14115161 2.67058851.04247107 5.32432238 0 8l2.046875-.4375L611.75 334l2.671875-.5625C617 333 617 333 621 333l-2-15 2-1 1.5 6.125.84375 3.4453125C624 330 624 330 624 336h-19l-.75-5.4375c-1.4961598-8.8522788-4.88192102-15.3961689-9.98046875-22.71484375C593 306 593 306 592 304z" fill="#ebd361"/><path d="M361 549l9.11962891 5.80078125 4.05371093 2.578125L381.125 561.8125l2.29858398 1.4543457 2.14672852 1.37768555 1.93017578 1.22973633C389 567 389 567 390 569c-3.09606053 1.03202018-5.2669883 1.25885232-8.3671875.1640625C379.19421083 567.94086613 377.09853342 566.74583873 375 565c-1.0625-3.3125-1.0625-3.3125-1-6l-3.25.625c-4.79384134.47938413-4.79384134.47938413-7.75-1.625-.828125-2.1640625-.828125-2.1640625-1.25-4.625l-.453125-2.4765625L361 549z" fill="#f8e450"/><path d="M519 432l1.625.65625c8.13134835 2.88876849 15.87467894 2.62850021 24.375 2.34375l1 2c-9.84918764 4.47042694-21.41495443 1.65362328-31.73266602.14453125C506.51383939 436.02073944 498.82586521 435.35350481 491 435v-1c9.3412692-.61326035 18.63250185-1.1820896 28-1v-1z" fill="#a49f9c"/><path d="M232 560h2l1.5 4.75.84375 2.671875C237 570 237 570 237 574h2l4 10 .93359375 2.33984375C245.11128903 589.36578809 246 591.72330879 246 595h2l1.4375 4.25.80859375 2.390625C251 604 251 604 251.41015625 606.234375L252 608l3 1c1.09765625 2.21484375 1.09765625 2.21484375 2.0625 4.9375 1.36582255 3.90029411 1.36582255 3.90029411 3.9375 7.0625v5c-3.15273723-3.67934828-5.45648109-7.47543468-7.5625-11.8125l-1.01123047-2.06762695-2.2109375-4.58569336-2.55957031-5.28710938C240.93751992 588.44756429 235.68046201 574.90820053 232 560z" fill="#ddbc69"/><path d="M225 432h2l1 4h3v3l1.8984375.078125L235.375 439.25l2.4609375.140625L240 440l2 4 3 1c-3.59965095 1.79982547-8.10901464.64848177-12.05859375.31640625C229.26263805 445.03863554 226.6249024 445.0937744 223 446l2-14z" fill="#eadfbc"/><path d="M312 355c3.78442955.59754151 7.55036395 1.2767199 11.3125 2l2.61328125.5C328 358 328 358 329 359c.23363881 1.84891946.41303635 3.70488031.5625 5.5625l.25390625 3.06640625L330 370c-7.75352206-1.74454246-13.52217871-7.65641983-18-14v-1z" fill="#d6dee2"/><path d="M648 222c5.46887552 1.54878555 10.0622667 4.0942304 14.9375 6.9375l2.50512695 1.45239258C673.36515236 235.06761457 680.72663578 240.37917892 688 246l-4 1-1-2-2.75-.75c-4.08566898-1.57141115-5.48054694-3.92665633-8.25-7.25-3.04199472-1.29231642-3.04199472-1.29231642-6-2l-3-2v-2l-3-.1875c-4.56472273-.64410198-8.57424259-2.73376737-12-5.8125v-3z" fill="#e2c769"/><path d="M357.30859375 263.3046875L359 264c-4.08435694 5.59708174-7.17502047 7.63500409-14 9l43 1v1h-48c3.38683458-3.38683458 6.25532837-6.13289493 10.0625-8.875l2.53515625-1.8671875C355 263 355 263 357.30859375 263.3046875z" fill="#bea03d"/><path d="M399.4375 272.3125l3.22021484.10522461c7.08498157.3249718 7.08498157.3249718 9.34228516 2.58227539-23.00755674.22051971-46.00130253-.43701105-69-1v-1c40.06344277-1.28719061 40.06344277-1.28719061 56.4375-.6875z" fill="#f4d866"/><path d="M643 600h1v64h-1v-40l-3 1-1-12h3l1-13z" fill="#686e73"/><path d="M716 336c10.97787768-.78788596 10.97787768-.78788596 15 2.3125L733 341c1.97748444 1.58198755 3.73973609 2.86986804 6 4 .9609375 1.734375.9609375 1.734375 2 4l1.2890625 2.578125L746 359l-2 1-1.25-1.90625c-6.4791433-9.60301596-13.11438072-17.93484518-24.75-20.84375l-2-.25v-1z" fill="#eac453"/><path d="M646 336l26.86247826-.15543652 12.47590065-.07088184 12.06010818-.05831337 4.58049774-.03255844C710.40484256 335.59647876 718.07318783 335.82920023 726 339c-3.61841166 1.20613722-5.45653465.71975958-9.21875.1015625-12.94171405-1.85323654-26.10762931-1.56144498-39.15716553-1.70245361l-10.72174072-.14129639L646 337v-1z" fill="#100e01"/><path d="M246 435h2c3.75002646 8.25005822 3.18627827 17.20539918 3.18530273 26.07788086l.03930665 6.65454102C251.25374002 475.34256246 250.99207927 482.59939731 249 490l-3 1 1-3c1.57537594-9.94156712 2.19841501-20.13186696 2.3125-30.1875l.05297852-2.27929688c-.00493078-4.93954374-.94903716-8.9580379-2.7019043-13.57519531C245.85684896 439.57760438 245.75860747 437.49438953 246 435z" fill="#ebc44c"/><path d="M292 306h1c.25 2.1875.25 2.1875 0 5l-1.875 2.1875c-2.5371816 3.35803447-3.45113937 6.60014816-4.375 10.625l-.5234375 2.04101562C284.53057487 332.8864802 284.29029664 339.14604444 287 346c.96070434 2.88211302 1.10581883 4.69850044 1.0625 7.6875l-.02734375 2.44921875L288 358c-6.39503853-9.59255779-6.47731364-22.56525855-4.28125-33.6171875C285.64929104 317.76603876 288.32581124 311.8275043 292 306z" fill="#170f05"/><path d="M397 517l3 1c-10.22521781 8.49829214-18.82393855 10.17766237-31.9375 10.1875l-2.59179688.03710938C359.97046025 528.23719574 355.28069848 527.54810743 350 526c3.0221618-.88245909 5.67350091-1.10639277 8.81640625-1.0625l2.80004883.02685547L364.5625 525c16.87702018.55594248 16.87702018.55594248 31.4375-7l1-1z" fill="#291105"/><path d="M433 598l3 1v61h-1l-2-62z" fill="#cba237"/><path d="M668.25 555.6875L671 556l-4 5 2.01171875.1484375C677.78207381 561.89103691 677.78207381 561.89103691 682 564v1h-22c1.28854439-5.15417755 2.58020706-8.7673276 8.25-9.3125z" fill="#787c8a"/><path d="M270 641c3.56431329 3.37867198 6.32316876 6.76564579 9 10.875 4.02168272 6.0220236 8.56566765 11.44599011 13.39453125 16.83544922C295.89809856 672.63689797 299.00863844 676.6680653 302 681c-3.92720299-1.66150896-6.9279118-4.06444906-10-7-.38499891-1.65549531-.72793135-3.3222433-1-5l-1.75390625-.80078125c-3.09813728-1.6541359-4.50315178-3.86614065-6.55859375-6.69921875l-1.17382812-1.61132812L278 655l-2.10546875-2.875C270.71886745 644.95377098 270.71886745 644.95377098 270 641z" fill="#120d06"/><path d="M412 399c6.40629424-.20852314 11.92972642-.1583195 18 2v2l1.8125.375C434 404 434 404 437 406c.26686213 2.69540315.34818073 5.15847464.29296875 7.8515625l-.01286316 2.34555054L437.1875 423.625l-.04101562 5.03125L437 441h-1l-1-34c-8.57833606-3.52440594-8.57833606-3.52440594-17.125-5.25l-3.3828125-.453125L412 401v-2z" fill="#221404"/><path d="M552 232c1.9375.375 1.9375.375 4 1 1.2195756 2.43915121 1.08586292 3.91115147 1.02172852 6.63330078l-.06089783 2.91165161-.08192444 3.15036011-.07154846 3.21994019L556.5625 259.125l-.15820312 6.91015625L556 283l1.93359375.3671875L560.4375 283.875l2.49609375.4921875L565 285l1 2-11-3-.06005859-4.23510742-.25732422-15.57080078-.10449219-6.73632813-.1640625-9.68823242-.03500366-3.03715515-.06021118-2.85029602-.04037476-2.49650574C553.96064257 236.66283944 553.1135637 234.49382444 552 232z" fill="#f1d168"/><path d="M232 397h1c.20431952 7.97981234.21989044 15.29567437-2 23l-1 1-.4375 3.3125c-.47723064 3.12851199-.96710685 5.02851141-2.5625 7.6875h-2c.73790389-7.47244451 2.39807498-14.68579818 4.0625-22l.85351562-3.79296875L232 397z" fill="#dbc36e"/><path d="M746 558h1c1.00968547 8.04727455 1.18320309 16.02101906 1.1875 24.125l.03710938 3.70703125C748.23501652 592.24977362 747.93467705 597.86715021 746 604h-1l1-46z" fill="#110a05"/><path d="M516 190c13.51649713-.33146723 26.66761569.6657813 40 3v1c-9.06581341.20273483-17.82153356-.36268117-26.8125-1.5l-3.58007812-.43359375L517 191l-1 12h-1l-.0625-5.375-.03515625-3.0234375C515 192 515 192 516 190z" fill="#d9bb69"/><path d="M306 685l10.47265625 9.078125C324.62312761 701.29859369 333.00717379 707.86159937 342 714l-4 2-1.875-2c-3.40389171-3.44335712-7.27141031-6.29718626-11.11328125-9.23046875L323 703v-2l-4-1v-2h-3v-3l-1.75-.8125c-2.30550043-1.21679189-4.27056192-2.49083879-6.25-4.1875v-2l-3-1 1-2z" fill="#130e04"/><path d="M295 285l3 1-1.21484375 1.328125c-4.5855948 5.11590169-8.71383417 10.49756985-12.76953125 16.03515625C282.43524152 305.43064336 280.90106296 307.23730555 279 309l-3-1c6.10283873-7.88657285 12.22936382-15.66676081 19-23z" fill="#ecd670"/><path d="M434 560h1c1.3173767 7.96649849 1.11089426 15.95194375 1.0625 24l-.01367188 4.37109375L436 599l-2-1v-2l-3-1h2l1-35z" fill="#b6841e"/><path d="M741 355l1.71875 2.1875c2.18158749 2.68962841 4.44732095 5.25476953 6.78125 7.8125 2.96134644 3.24531117 5.7853847 6.54503508 8.5 10l-1 2-5-2v-2l-3-1-1-6h-2v6h-1l-2-6.25-1.125-3.515625C741 359 741 359 741 355z" fill="#bb770c"/><path d="M293 301l3 1-1.13671875 1.546875C286.69279697 315.15431362 284.10172884 326.12150533 283 340h-1v-20l3-1-1-7h3l.875-2.25c2.50961538-6.13461538 2.50961538-6.13461538 5.125-8.75z" fill="#dec06a"/><path d="M550.25 228.125L552 230l-1 2-2.75-2c-5.35776754-2.93984859-10.29911595-3.10654276-16.25-2-5.6239107 1.98704259-10.98663447 4.59120978-16.31103516 7.265625C514 236 514 236 512 236v-2l5.625-2.375 3.1640625-1.3359375C523.82903202 229.06863678 526.88205905 228.0018609 530 227v-2l6.75-.625 3.796875-.3515625c4.65695454-.03160829 6.38694235.96961222 9.703125 4.1015625z" fill="#e6d068"/><path d="M460 216v1l-2.375.375c-2.76557822.41617993-2.76557822.41617993-4.625 2.625l-7.625 1.9375c-4.49475182 1.05673634-8.8472756 2.10210282-13.125 3.875-3.34646028 1.2227451-4.05387177 1.20887141-7.25.1875 6.28030218-2.68852192 12.53287169-5.315481 19.05078125-7.375 1.69163387-.54240766 3.35541064-1.17025808 5.01171875-1.8125 3.786415-1.04730628 7.01643653-.94770909 10.9375-.8125z" fill="#f9d670"/><path d="M505 429c5.45479185.56820748 9.91059256 1.94637945 15 4v1l-11.25.125-3.22265625.05078125-3.10546875.01953125-2.85644531.03173828C496.90048059 433.99119213 495.28136908 433.35661659 493 432l2.37109375-.1484375L498.4375 431.625l3.05859375-.2109375L504 431l1-2z" fill="#e4e3e0"/><path d="M293 284h2c-1.5893912 3.67978614-3.88633754 6.35605444-6.5 9.375-4.35180461 5.09338927-8.30139465 10.38670482-12.09960938 15.90380859C274.16639085 312.49506201 271.86722499 315.32916028 269 318l2-6h2l.3125-1.6875c.82928408-2.7894101 2.03049056-4.9264064 3.6875-7.3125h2l.72265625-1.65625c1.59432745-2.92537147 3.57780865-5.28913333 5.71484375-7.84375 3.21588296-3.84127389 3.21588296-3.84127389 6.22265625-7.84375L293 284z" fill="#1e1f08"/><path d="M696 669c0 3 0 3-1.86328125 4.9375L691.6875 676l-6.29296875 5.6875C684 683 684 683 681 684l-1 2-4.375 2.4375c-3.35514365 1.73347267-3.35514365 1.73347267-6.15234375 4.2109375C668 694 668 694 665.95703125 694.29296875L660 694c2.75700524-1.83800349 5.37498241-3.11661387 8.375-4.5 10.35893468-5.12930301 19.12405246-12.74384847 27.625-20.5z" fill="#ce892c"/><path d="M290 364c2.71484232 2.6088398 4.99142388 5.25968308 7.1875 8.3125C302.53210106 379.27078147 309.31784846 383.91374918 317 388c-2.60582371.93065133-3.64198224 1.14917407-6.25.0625L309 387v-2h-3l-1-2-2.25-1.3125c-3.08506401-1.89310746-5.33679515-3.99850031-7.75-6.6875v-2l-3-1c-.73046875-1.84765625-.73046875-1.84765625-1.1875-4.0625l-.48046875-2.22265625L290 364z" fill="#e5c05e"/><path d="M593 277c10.24005741 8.32004665 16.83762364 17.47832293 23 29l-2 2-.91796875-2.01171875c-2.74390314-5.9477123-2.74390314-5.9477123-6.89453125-10.92578125L604 293v-3l-3-1c-2.04296875-2.21484375-2.04296875-2.21484375-4.1875-4.9375l-2.16796875-2.71484375C593 279 593 279 593 277z" fill="#e7d071"/><path d="M265 321l2 3-1.09814453 1.82910156C256.37308064 341.60045382 256.37308064 341.60045382 248 358h-1v-5h2l.6875-2.375c2.71117635-7.48801088 6.44956712-14.15152159 11.078125-20.6171875C262.00956507 327.98444163 262.56292897 326.32063906 263 324h2v-3z" fill="#191a06"/><path d="M303 379l6 2v2l1.5625.3125c3.29776435.93013866 6.30383332 2.30145512 9.4375 3.6875v2h5v2h4l-1 17h-1v-16l-6-1c-2.47004218-1.20201384-4.77284148-2.41890931-7.125-3.8125l-1.83984375-1.04101562C308.54649532 384.12093287 305.70465007 381.99395344 303 379z" fill="#342108"/><path d="M569 766c-12.79649809 5.25570457-27.37302587 4.16308879-41 4v-1l15.58837891-1.76391602 5.30175781-.60253906 7.62548828-.85620117 2.38995361-.28077698C562.55131363 765.10190056 565.48548165 764.96951152 569 766z" fill="#231a04"/><path d="M304 682c2.93879484 1.35236577 5.29232911 2.89942659 7.75 5l1.859375 1.5625C315 690 315 690 315 692l1.75.8125c2.30550043 1.21679189 4.27056192 2.49083879 6.25 4.1875v2l1.6875.1875c3.26346487 1.14662279 4.95304906 3.33205157 7.3125 5.8125l3 2v2c-3.92453961-1.65892375-6.93531774-4.30728337-10.125-7.0625l-1.72631836-1.47900391L318 696l-2.93359375-2.55078125C310.98015651 689.8365611 307.33228647 686.33726175 304 682z" fill="#d7b755"/><path d="M266 634c4 0 4 0 5.484375 1.390625L272.75 637.25l1.296875 1.828125C275 641 275 641 275 645l4 2v3h2v5c-3.95712662-3.58967915-6.77370413-7.7933624-9.75-12.1875l-1.53515625-2.23242188C266 635.13798223 266 635.13798223 266 634z" fill="#e1bd55"/><path d="M410 500h1c.24232265 2.85940723.43429276 5.19541058 0 8-2.375 2.6875-2.375 2.6875-5 5l-.9375 2.5c-1.4896962 3.50516753-3.88889991 5.53709611-7.0625 7.5-2.33888437.90930575-4.53662882 1.45805834-7 2 2.72440094-2.80695855 5.46580138-5.40514904 8.5-7.875 5.72319121-4.87531103 8.85584813-9.80105075 10.5-17.125z" fill="#c98d30"/><path d="M798 533l2 1c-2.31370403 12.84714607-5.6153588 25.39914995-9 38-1.18719263-4.36503148-.67009018-7.53273214 0-12h2l2-16h2l1-11z" fill="#cd8932"/><path d="M325 489c1.99466128 2.99199192 2.25754785 4.03696935 2.6875 7.4375C329.27272551 505.08649039 334.48345709 512.32911441 340 519c-1.75-.125-1.75-.125-4-1-4-5.22222222-4-5.22222222-4-8l-3-1c-4.37808857-6.62967697-4.46822584-12.19623593-4-20z" fill="#e6c059"/><path d="M519 432l5 1-3 2 1 2-31-2v-1c9.3412692-.61326035 18.63250185-1.1820896 28-1v-1z" fill="#acaba9"/><path d="M304 283l4 2c0 4.01446455-1.01130918 5.9856289-3.8046875 8.8515625L302.125 295.625l-2.0546875 1.7890625C298.11333531 298.91318087 296.23951463 299.98569068 294 301c1.34634457-4.4062186 3.19374374-6.43077702 7-9h2l1-9z" fill="#f1db80"/><path d="M381 249l2 1-2 1v-2zm0 2c-1.50349397 3.00698793-4.0418948 3.58257459-7 5l-1 1h-5v2c-3.6678852 1.96189209-6.87248551 3.39301257-11 4 3.54748827-4.1196638 6.83969183-6.041497 11.859375-8.0859375 2.31296221-.91913228 2.31296221-.91913228 4.890625-2.6640625 2.61717832-1.45398796 4.30136762-1.50273992 7.25-1.25z" fill="#edc84c"/><path d="M627 212l9.375 3.875 2.6953125 1.10546875 2.578125 1.07421875 2.38037109.98388672C646 220 646 220 648 222c-3.93670488 1.31223496-6.12488144.24296256-10-1v-2l-2.1875-.3125c-3.1120925-.76073372-5.22004152-1.81516887-7.8125-3.6875l-1-3z" fill="#dfc570"/><path d="M508 236l4 1-12.2253418 6.09130859-4.15820312 2.078125-5.97973633 2.96337891-1.87532043.95925903c-1.75871277.849823-1.75871277.849823-4.76139832 1.90792847l-3-2 4.875-2 2.7421875-1.125C490 245 490 245 492 245v-2h4v-2l2.37109375-.83984375L501.4375 239.0625l3.05859375-1.08984375C506.90313745 237.23122361 506.90313745 237.23122361 508 236z" fill="#e6ce66"/><path d="M599 202c9.29820555 2.24575304 18.09948344 5.54923511 27 9-3.41610225.94314127-6.45134864 1.08065117-10 1l-1-2c-2.13585917-1.06536328-2.13585917-1.06536328-4.6875-2l-2.72265625-1.046875C604.74527503 205.90625507 601.89052218 204.91279648 599 204v-2z" fill="#dbc36c"/><path d="M738 618c1.31079811 3.60678206.68377822 5.53159537-.8125 9l-1.08203125 2.5625L733 636h-4v2l-2-1 1.13671875-1.87109375C731.54804247 629.48346625 734.83952286 623.78954662 738 618z" fill="#b56d20"/><path d="M802 514h1c.22867275 9.89644867-.12612345 19.22907228-2 29l-3 1 2.5625-19.5.41992188-3.0703125L802 514z" fill="#211004"/><path d="M225 432h2l1 4h3v3l1.8984375.11328125L235.375 439.3125l2.4609375.17578125C240 440 240 440 242 443c-8.94161491-.90931677-8.94161491-.90931677-13-3l-1-2-2 2-2-1 1-7z" fill="#eddba6"/><path d="M450 267c-11.52587645 6.32251028-20.68042591 10.61268386-34 9v-1l2.8515625-.11328125L422.625 274.6875l3.7265625-.17578125C430.16269087 273.97718147 432.66372969 272.86210436 436 271c2.375-.6875 2.375-.6875 4-1v-2c3.83887763-1.48320272 6.06204091-2.22419163 10-1z" fill="#dfc65b"/><path d="M795 403c5.73592857 5.73592857 6.125 17.48875871 6.125 25.25L801 432c-1.61012416-2.92872401-2.45217157-5.56475009-3.0703125-8.84375l-.52734375-2.77734375L796.875 417.5l-.55078125-2.87890625C795.5790576 410.6375631 795 407.07150095 795 403z" fill="#201305"/><path d="M801 501h1c.41277905 22.59489033.41277905 22.59489033-2 33h-1c-.32748137-11.15255987.67959106-21.94157511 2-33z" fill="#d89731"/><path d="M654 553l8 1-1.3125 2.0625c-1.86253916 3.2421978-3.26479648 6.48236289-4.6875 9.9375h-2v-13z" fill="#354755"/><path d="M786 379c2.80276459 4.20414688 4.09387024 8.72869167 5.6875 13.5l1.00976562 2.91796875.93945313 2.80078125.8659668 2.56054688C795 403 795 403 794 406c-3.40686225-3.40686225-4.76723573-8.38733985-5.19140625-13.1484375.00330294-1.61844222.08831102-3.23640384.19140625-4.8515625h-2l-1-9z" fill="#d9b951"/><path d="M555 389h7l-3 1v2h-2l-1 31h-1v-34z" fill="#ecf2fa"/><path d="M517 191c5.12583611-.10251672 9.94997778-.03590199 15 1v1h-11c-2.75385216 4.88182883-3.97137215 9.55432314-5 15h-1l.4375-5.6875.24609375-3.19921875C515.96451681 196.34913703 516.40156852 193.71054259 517 191z" fill="#f5c350"/><path d="M748 655l1 2-1.6796875 2.046875L745.125 661.75l-2.1796875 2.671875C741.31557412 666.58176924 740.09215995 668.539766 739 671h-3l-.8125 1.75c-1.20469859 2.2825868-2.59548115 4.2237942-4.1875 6.25l-2-1 19-23z" fill="#291905"/><path d="M597 759c-8.63503999 4.88775848-17.1336331 6.37231573-27 6v-1l1.86425781-.44311523L580.25 761.5625l2.93359375-.69726562 2.83203125-.67382813 2.60253906-.61889648c1.53162681-.36814933 3.05597509-.76889533 4.56835938-1.20947266C595 758 595 758 597 759z" fill="#221604"/><path d="M227 541h1l2.5 9.75.72265625 2.7890625.68359375 2.6953125.63476562 2.47558594C233 561 233 561 233 565h-2c-2.89380391-8.19001108-4.17378523-15.31073841-4-24z" fill="#241e0e"/><path d="M741 359c2.77100148 2.77100148 3.21939462 5.9287884 4.125 9.625l.55078125 2.08203125C746.89329126 375.5862255 747.16941745 379.97394907 747 385c-2.2987284-2.2987284-2.45832914-3.30574785-3.0703125-6.4296875l-.52734375-2.66015625L742.875 373.125l-.55078125-2.76171875C741.56333216 366.45587118 741 363.00299654 741 359z" fill="#200e02"/><path d="M472 256l-20 10v-3h3v-2h4v-2h2l1-3c6.625-1.125 6.625-1.125 10 0z" fill="#e8ce62"/><path d="M410 232c-2.81131485 2.2890293-5.33659809 3.62215762-8.75 4.8125-5.1151834 1.95044827-9.07396872 4.68803245-13.25 8.1875l-2-1c15.25-12.875 15.25-12.875 24-12z" fill="#f9e9ae"/><path d="M666 692l-11.375 4.5-3.2734375 1.30078125-3.125 1.23046875-2.88818359 1.14257812C643 701 643 701 641 701v-2l5.3125-2 2.98828125-1.125C652 695 652 695 655 695l1-3c3.73567172-.76411467 6.34811918-1.07174763 10 0z" fill="#2d1103"/><path d="M671.4375 561.6875l2.80859375.01171875C677.14281444 562.01559817 679.35881903 562.7968486 682 564v1h-20c4.09388558-3.07041418 4.6955857-3.39799915 9.4375-3.3125z" fill="#9f9fa2"/><path d="M222 495h12c-3.4352048 2.29013653-4.985331 2.17842973-9 2v6h-1l-1 7h-1v-15z" fill="#cba247"/><path d="M628 389l4 4c-2.9237342 3.35688001-4.69172404 4.2267197-9 5-1.79385992 1.4579186-1.79385992 1.4579186-3 3l-2-1 10-11z" fill="#d9dde6"/><path d="M276 309h4c-1.51553404 3.47775179-3.5773456 5.9557984-6.125 8.75l-2.1953125 2.421875L270 322l-1-3c1.29296875-2.48046875 1.29296875-2.48046875 3.1875-5.1875l1.85546875-2.73046875L276 309z" fill="#e7cd68"/><path d="M525 230v3l-2.703125 1.2421875L518.75 235.875l-3.515625 1.6171875-5.46875 2.703125C508 241 508 241 505 241v2l-4-2 24-11z" fill="#141607"/><path d="M729 636l3 1-9 11-4-1 3.3125-4.5 1.86328125-2.53125L726 638h3v-2z" fill="#e78b19"/><path d="M747 596h1c.20719042 6.00852226-.26289292 10.52578585-3 16h-2l-.875 2.4375C741 617 741 617 739 618c1.49039452-5.01314519 3.62943857-9.61054656 5.87890625-14.31640625C745.95577138 601.10587129 746.55735787 598.75034939 747 596z" fill="#af7430"/><path d="M652 553l3 1-1 12-4 1 .4375-6.4375.24609375-3.62109375C651 554 651 554 652 553z" fill="#152736"/><path d="M774 352c2.96430761 3.55716913 4.7721925 7.45050932 6.6875 11.625l.97070312 2.0625C784 370.74058835 784 370.74058835 784 373l-3-1v-4h-2c-3.28571429-8.42857143-3.28571429-8.42857143-4-13h-2l1-3z" fill="#d7b754"/><path d="M700 336c9.15244471-.30659554 17.34796755-.49409003 26 3-3.29972068 1.09990689-4.91990265.91161566-8.32421875.44140625l-3.11523437-.41992187L711.3125 338.5625l-3.28320312-.44726562L700 337v-1z" fill="#181806"/><path d="M281 655h2v2l4 2v2h2v2l3 1c1.75 2.9375 1.75 2.9375 3 6l-1 2-5.9375-6.8125-1.70898438-1.94726562-1.63085937-1.88476563-1.50756836-1.72973633C282 658 282 658 281 655z" fill="#e1ba52"/><path d="M617.75 550.8125l3.546875.08203125L624 551c-3.52344767 1.8620498-7.08346273 3.04107444-10.87890625 4.21875-2.37152498.77997125-2.37152498.77997125-5.12109375 2.78125l-1-4c3.48608537-3.28762011 6.0571809-3.32828457 10.75-3.1875z" fill="#0d1315"/><path d="M306 273l1 2 3 1 .9375 2c.88277141 2.20605562.88277141 2.20605562 3.1875 2.75L316 281l1 4-5 1v-3c-1.53353564-1.67845419-1.53353564-1.67845419-3.5-3.1875l-1.96875-1.60546875L305 277l1-4z" fill="#ece4b6"/><path d="M514 200h1l.25 4.8125.140625 2.70703125C515 210 515 210 513.59375 211.8125c-4.0423225 1.85070187-7.95917068 1.50129143-12.34375 1.375l-2.69140625-.04101562L492 213v-1l3.83203125-.3671875L500.8125 211.125l2.52539062-.23828125 2.43164063-.25390625 2.23754883-.22216797C510.30638653 210.0668422 510.30638653 210.0668422 513 208c.57748803-1.96361864.57748803-1.96361864.6875-4.125L514 200z" fill="#efca62"/><path d="M246 435h2c2.93988261 6.46774174 3.12463374 12.91638775 3.0625 19.9375l-.01367188 2.07226562L251 462h-1l-.3671875-3.796875L249.125 453.25l-.23828125-2.5-.25390625-2.421875-.22216797-2.22167969C247.96066658 443.79823501 247.06213409 442.08570356 246 440c-.125-2.75-.125-2.75 0-5z" fill="#f1c945"/><path d="M281 325h1l1 24c-2.9010081-2.9010081-2.93452553-5.67703057-3.1328125-9.68359375C279.8810313 334.43646763 279.96321205 329.79514428 281 325z" fill="#f5cf62"/><path d="M716 684l5 2c-4.44381694 4.58716587-9.20228499 8.78762713-14 13l-1-2 1-2h3v-2h2v-2h2l1-3 2 1-1-5z" fill="#d28e26"/><path d="M684 677l3 1-6.625 4.8125-1.87109375 1.36914062C674.8080861 686.84652147 671.15293561 689.07687136 667 691l-1-2 2.4140625-1.35546875C675.31597828 683.79360357 675.31597828 683.79360357 681.5625 679L684 677z" fill="#261603"/><path d="M734 346c3.96004764.90001083 5.67361485 1.59201856 8.25 4.8125 1.48212584 2.69958635 2.72655711 5.28774515 3.75 8.1875l-2 1-1.42578125-2.046875L740.6875 355.25l-1.86328125-2.671875L734 346z" fill="#e0b051"/><path d="M356 259l3 1c-2.82531078 2.97643205-5.74628572 5.36274286-9.125 7.6875l-2.6328125 1.82421875C345 271 345 271 343 272v-4l1.64453125-.76953125L346.8125 266.1875l2.14453125-1.01953125c2.10054336-1.082102 2.10054336-1.082102 3.6796875-2.8046875L354 261h2v-2z" fill="#faeeb8"/><path d="M253 608c2.45234393 2.17910227 3.54649968 3.95644187 4.5625 7.0625.90351756 2.74118039 1.34450794 3.84450794 3.4375 5.9375v5c-3.94231941-4.64630501-7.79560036-9.18950493-8.25-15.4375L253 608z" fill="#debd5f"/><path d="M794 405c2.58926331 2.58926331 2.37398043 4.02705279 2.625 7.625l.2265625 3.0390625L797 418c-3.890625-1.7890625-3.890625-1.7890625-4.875-3.6875-.18124637-3.35305779.8405221-6.14821466 1.875-9.3125z" fill="#edcb4a"/><path d="M317 310l2 1-2.8125 2.5c-2.49589162 2.45487931-3.7638908 4.4970935-4.875 7.8125L310 325l-3 1c.81608378-6.93671213 5.08600956-11.35900903 10-16z" fill="#d7dff0"/><path d="M642 306c3.38732834 6.52428894 5.47156103 12.61221054 5 20l-2-1c-.8515625-2.73046875-.8515625-2.73046875-1.625-6.1875l-.7890625-3.41796875C642.03120793 312.18079796 641.8914243 309.25233567 642 306z" fill="#eccb5b"/><path d="M280 300l1 3c-1.51171875 2.55859375-1.51171875 2.55859375-3.6875 5.4375l-2.13671875 2.87109375C273.2353155 313.70891853 271.23001566 315.87066225 269 318l2-6h2l.3125-1.6875c.82928408-2.7894101 2.03049056-4.9264064 3.6875-7.3125h2l1-3z" fill="#111204"/><path d="M745 695l1 3-10 10-2-2 11-11z" fill="#d0d5d7"/><path d="M728 679l2 2-2.75 2.1875c-2.1690299 1.78297306-3.5973819 3.27567587-5.3125 5.5625-2.26541582 2.63080547-3.54160902 2.96700909-6.9375 3.25l13-13z" fill="#1d1408"/><path d="M742 614c1.04029962 3.12089887 1.53895677 4.76625941 1 8-1.84910152 1.97848472-3.79363422 3.39119162-6 5 1.74259681-9.59453303 1.74259681-9.59453303 5-13z" fill="#de841a"/><path d="M664.1875 554.375L666 555l-2.4375 1.625c-3.02758424 2.80605369-3.28760809 4.34325194-3.5625 8.375l-4 1 1.3125-4.875.73828125-2.7421875c1.25540791-3.15143551 2.6271145-4.60945894 6.13671875-4.0078125z" fill="#525f6d"/><path d="M500.625 551.4375l2.4296875.15820312L509 552v1l-3.32421875.1484375L501.3125 553.375l-2.18554688.09375C495.02789606 553.69335587 491.75631541 554.17740909 488 556c2.79835421-6.19635576 6.4499403-4.99856347 12.625-4.5625z" fill="#020707"/><path d="M349 395l21 1v1l-3.83203125.11328125L361.1875 397.3125l-2.52539062.06835938-2.43164063.10742187-2.23754883.0793457C351.52833609 398.10232963 350.59947676 399.09965347 349 401v-6z" fill="#cacfd6"/><path d="M708 595l7 1c-.1875 1.875-.1875 1.875-1 4-2.5625 1.25-2.5625 1.25-5 2l-1-7z" fill="#4b5c6d"/><path d="M332 508c3 1 3 1 4 3l2 .875c2 1.125 2 1.125 2.5625 3.0625L341 517c1.47890069 1.73026102 1.47890069 1.73026102 3 3l-1 2c-8.6309795-8.07744875-8.6309795-8.07744875-11-14z" fill="#1f1407"/><path d="M828 444l2 2-1 7h2l-1 13h-1c-.91160286-7.35793733-1.11459026-14.58982977-1-22z" fill="#e8ebf1"/><path d="M236 391l2 2-.62109375 1.828125L236.5625 397.25l-.80859375 2.390625L234 406h-1v-12h3v-3z" fill="#ebc85d"/><path d="M284 340h1c3.125 9.375 3.125 9.375 3.0625 13.6875l-.02734375 2.44921875L288 358c-3.49182509-5.23773763-4.49235994-9.80679126-5-16l1-2z" fill="#221a0c"/><path d="M689 247c4.69159716 3.38772897 9.0299782 6.78185183 13 11-4.92604873-.43465136-7.51891224-2.59626975-11-6-1.375-2.8125-1.375-2.8125-2-5z" fill="#e2cb6d"/><path d="M446 221c-3.38148676 1.83163866-6.83857179 3.0244087-10.5 4.1875l-3.40625 1.10546875c-2.94690722.67347248-4.32522346.77237112-7.09375-.29296875 7.33683625-3.43664443 12.7995606-5.16079293 21-5z" fill="#f6d05a"/><path d="M697.875 554.5L699 556l-1 2-3-2-8.1875-.625-2.27148438-.1171875L679 555v-1c16.22863924-1.61708861 16.22863924-1.61708861 18.875.5z" fill="#55585c"/><path d="M610 521l2 1-2.0625 2.6875c-2.22386268 3.06396807-2.22386268 3.06396807-1.6875 6L609 533v3c-2.0625-1.625-2.0625-1.625-4-4 0-4.88246706 1.77313146-7.46085386 5-11z" fill="#15191d"/><path d="M505 429l4 1h-3l1 4-4.75.125-2.671875.0703125C496.8864142 433.99139502 495.30095026 433.36551721 493 432l2.37109375-.1484375L498.4375 431.625l3.05859375-.2109375L504 431l1-2z" fill="#dcdeda"/><path d="M648 222c3.99187781 1.33062594 6.09995785 3.00640811 9 6 2.13309192 1.23512079 2.13309192 1.23512079 4 2-3 1-3 1-5.2265625.14453125L653.375 228.8125l-2.4140625-1.29296875C649 226 649 226 648.2265625 223.82421875L648 222z" fill="#eecd65"/><path d="M444 685c3.17032634 1.41217209 5.40874862 3.13649376 7.9375 5.5 2.87843306 2.58789963 5.26730963 4.43260271 9.0625 5.5l-2 2c-6.08867157-3.69379408-10.61251614-7.3750207-15-13z" fill="#1f1304"/><path d="M641 309c4.34193119 6.51289679 4.27341981 12.56598165 3 20h-1l-.18359375-2.37109375L642.5625 323.5625l-.24609375-3.05859375C642.26788532 318.06359221 642.26788532 318.06359221 641 317c-.14115161-2.67058851-.04247107-5.32432238 0-8z" fill="#201708"/><path d="M593 277c4.13621084 3.3810038 7.81316569 6.66590534 11 11l-2 2-4.5-5.375-2.53125-3.0234375C593 279 593 279 593 277z" fill="#d7c062"/><path d="M617 269c6.88422699 3.4421135 9.37360854 7.77742348 12 15-4.52380289-4.24963302-8.38317661-8.95520887-12-14v-1z" fill="#e8cb6a"/><path d="M622 751c-5.31944433 4.45683174-10.18848171 4.75759721-17 5 3.02453967-2.01635978 5.63075348-3.03246502 9.0625-4.1875l3.22265625-1.10546875C620 750 620 750 622 751z" fill="#2b1b05"/><path d="M295 285l3 1-11 11-2-1 10-11z" fill="#ecda7d"/><path d="M308 279c2.5 1.75 2.5 1.75 5 4v4l-6 3 .5-3.25c.58810915-3.78028752.58810915-3.78028752.5-7.75z" fill="#f3e49e"/><path d="M548 226l4 4-1 2-2.9375-1.9375c-4.2178638-2.44601528-8.25769242-2.84459489-13.0625-3.0625v-1l4.25-1.125 2.390625-.6328125c2.83547012-.29105819 3.98927031.2313044 6.359375 1.7578125z" fill="#cfba64"/><path d="M480 793h18c-3.60661066 1.80330533-6.08393425 2.46599103-10 3v-2l-2.875.625L482 795l-2-2z" fill="#b6babb"/><path d="M482 768l16 1v1l-6.3125.5625-3.55078125.31640625C485 771 485 771 482 770v-2z" fill="#1a1b04"/><path d="M694 738l2 1-3.8125 3.4375-2.14453125 1.93359375C688 746 688 746 685 747l-2-2 5.375-3.5625 3.0234375-2.00390625L694 738z" fill="#c7cec6"/><path d="M642 701v2c-5.48675196 1.86783046-10.22192976 2.2358396-16 2v-1h6v-2c3.43515002-.62457273 6.49064814-1 10-1z" fill="#d08c25"/><path d="M462 659l7 2-3 2c-.25030977 2.58380177-.25030977 2.58380177 0 5l-3-1-2-7 1-1z" fill="#bdc3cd"/><path d="M718 648l1 4-6 5-3-1 8-8z" fill="#cd8127"/><path d="M230 546c3.40686225 3.40686225 4.76723573 8.38733985 5.19140625 13.1484375C235.18810331 560.76687972 235.10309523 562.38484134 235 564l-1-4h-2l-2-14z" fill="#f2c44a"/><path d="M404 515v3c-4.11536133 4.11536133-7.35238619 5.75752496-13 7 3.40272162-3.70296177 6.45910201-5.88091427 11-8l2-2z" fill="#cf8e1c"/><path d="M198 433h1v13l-3 1-.125-4.75-.0703125-2.671875c.20391748-2.6917108.82979529-4.27717474 2.1953125-6.578125z" fill="#dbe2e4"/><path d="M709 657c1 2 1 2 .375 3.9375-1.73779469 2.60669203-3.66299148 3.54112937-6.375 5.0625-1.75149165 1.58245275-1.75149165 1.58245275-3 3l-3-1 1.609375-1.390625C702.18324699 663.50506283 705.71854059 660.41818688 709 657z" fill="#d38631"/><path d="M784 589c1.06340773 3.19736014.96582104 4.8981025-.3125 8l-.8515625 2.09375L780 605h-2c1.72066106-5.44876003 3.84705349-10.71169451 6-16z" fill="#352008"/><path d="M377 559c3.02750006.89448865 5.53010355 1.64401784 8.0625 3.5625 2.28950208 1.69866284 4.14244683 2.04929817 6.9375 2.4375l-2 4-4.8125-3.3125-2.70703125-1.86328125C380.43899254 562.32284963 378.71537213 560.85214599 377 559z" fill="#dda508"/><path d="M592 304c2.9429986.32699984 3.83835986.80058328 5.73828125 3.14453125L599.3125 309.8125l1.61328125 2.64453125C602.09988998 315.23646682 602.09641124 316.24935425 601 319l-.953125-1.7578125C597.54645657 312.67817073 594.96227235 308.27883784 592 304z" fill="#e8cc68"/><path d="M600 784l-1 2h-4v2h-4v-2l-3-1c8.03571429-2.27678571 8.03571429-2.27678571 12-1z" fill="#c7ceca"/><path d="M696 562l2 1-1 3-15-1v-1l5.3125-.5625 2.98828125-.31640625C693 563 693 563 696 564v-2z" fill="#78757a"/><path d="M389 243l1 3c-3.44069624 2.29379749-4.72290301 3-9 3v2l-4-1 12-7z" fill="#f2d262"/><path d="M692 710l2 1c-2.46293907 4.31014337-6.41252807 6.41240356-11 8l-2-1 11-8z" fill="#241805"/><path d="M443 685c7.48291572 6.15034169 7.48291572 6.15034169 10 10-4 0-4 0-5.703125-1.6796875L445.75 691.125l-1.578125-2.1796875C443 687 443 687 443 685z" fill="#e8c959"/><path d="M397 517l3 1-4.25 3.4375-2.390625 1.93359375C391.13752508 524.90505305 389.63256518 525.57130246 387 526c1.12783937-3.38351811 1.45088872-3.52883475 4.4375-5.0625 2.30399765-1.19769398 3.69402817-2.06902817 5.5625-3.9375z" fill="#210c00"/><path d="M408 504l1 3c-1.6171875 2.48046875-1.6171875 2.48046875-3.875 5.1875l-2.2421875 2.73046875L401 517h-1v-5l3 1 .8125-2.25c1.12979421-2.61636554 2.39643202-4.55187111 4.1875-6.75z" fill="#1f1003"/><path d="M746 366h2c.92844389 4.33273814.92844389 7.66726186 0 12l-2-1v-11z" fill="#de8e1f"/><path d="M260 335h2c-1.44950455 3.7910119-3.15172566 7.3874638-5 11h-1c.74468085-7.74468085.74468085-7.74468085 4-11z" fill="#ebcc59"/><path d="M552 232c1.9375.375 1.9375.375 4 1 1.44207941 2.88415883 1.09394887 5.41721528 1.0625 8.625l-.02734375 3.6015625L557 248h-1v-11h-2l-2-5z" fill="#f4d356"/><path d="M733 286c3 1 3 1 4 2.875l1 2.125c1.5412312 1.70921589 1.5412312 1.70921589 3 3l-1 3-8-9 1-2z" fill="#1f150c"/><path d="M304 283l4 2c0 3 0 3-2 6l-2-1v-7z" fill="#f6e186"/><path d="M593 275c3.44428265 1.44781793 5.36130962 3.27694609 7.75 6.125l1.859375 2.1953125L604 285l-1 2-5-4.875-2.8125-2.7421875C593 277 593 277 593 275z" fill="#100905"/><path d="M615 271c4.08055151.50547372 5.66272295 2.50088882 8.25 5.5625l2.140625 2.50390625L627 281l-2 2-1.0625-2.125c-2.15503491-3.19779373-4.52785492-5.2436495-7.51171875-7.640625L615 272v-1z" fill="#140f07"/><path d="M611 208c5.8022175-.36263859 9.63999211.74315457 15 3-3.41610225.94314127-6.45134864 1.08065117-10 1l-1-2c-2.01669827-1.13350534-2.01669827-1.13350534-4-2z" fill="#e7c767"/><path d="M396 572h5v2l2.9375.75L407 576c.69140625 2.078125.69140625 2.078125 1 4l-5.4375-2.875-3.05859375-1.6171875C397 574 397 574 396 572z" fill="#d69501"/><path d="M301 246c-1.50223584 4.20626034-4.28550034 5.73900021-8 8l-2-1 3.875-3.5 2.1796875-1.96875C299 246 299 246 301 246z" fill="#151d20"/><path d="M353 722c3.3125.1875 3.3125.1875 7 1 1.9375 2.5625 1.9375 2.5625 3 5-3.99500618-1.3697164-6.80009492-3.25722422-10-6z" fill="#deb541"/><path d="M227 422h2c.17942163 3.94727588.09350689 6.5980513-2 10h-2c.875-7.75.875-7.75 2-10z" fill="#dec77b"/><path d="M443 370l2 1c1.19150921 4.36886712 1.021829 6.95634201-1 11h-1v-12z" fill="#bcc4cc"/><path d="M568 361c-2.71182212 2.60334924-3.89133813 2.99456691-7.75 3.1875L557 364c1.91599391-2.44821444 2.97243029-2.99324823 6.0625-3.75C566 360 566 360 568 361z" fill="#e6ecf0"/><path d="M747 307c4.00972202 3.67557852 6.45335415 7.18966896 9 12-2.375-.6875-2.375-.6875-5-2-1.1875-2.3125-1.1875-2.3125-2-5l-1.125-2.8125L747 307z" fill="#dcbd60"/><path d="M629 284h3l.375 1.9375L633 288l2 1 1 6c-2.91843445-2.626591-4.94517315-5.66976339-7-9v-2z" fill="#ebce6c"/><path d="M653 224c4.79016959 2.23462006 8.98745115 4.48901975 13 8-4.99213851-.46801299-9.12963993-2.91715737-13-6v-2z" fill="#d5c279"/><path d="M242 439c2.375.25 2.375.25 5 1 1.375 1.8125 1.375 1.8125 2 4-.375 2.25-.375 2.25-1 4v-3l-1.875-.75c-2.47568687-1.45628639-3.07625002-2.62812506-4.125-5.25z" fill="#f5d77a"/><path d="M255 342h1c-.45822468 3.46941546-.89131683 6.67395049-2 10h-3c1.1094072-3.48670834 2.26337666-6.77484237 4-10z" fill="#d5be5e"/><path d="M590 269c1.79068573 2.6860286 2.66055791 4.6626589 3.625 7.6875l.7890625 2.44921875L595 281c-3-1-3-1-5-4-.25760279-2.69452521-.08900053-5.28548375 0-8z" fill="#f7d85b"/><path d="M711 266l3.875 2.75 2.1796875 1.546875C719.08570565 272.07503547 719.97855012 273.52701607 721 276l-3-1v-2h-3c-4-4.34285714-4-4.34285714-4-7z" fill="#e2c46a"/><path d="M583 761c-2.96178773 1.67110042-5.37071192 2.32682752-8.75 2.625l-2.421875.2265625L570 764c3.78343174-3.94792877 7.92125598-3.29300446 13-3z" fill="#ca8d23"/><path d="M726 638l1 2-1.4375 1.75c-1.5109867 2.17582084-2.10286151 3.67602448-2.5625 6.25l-4-1 7-9z" fill="#c88130"/><path d="M230 554c2.56616632 3.84924948 2.55097676 6.4349304 3 11h-2c-2.125-7.625-2.125-7.625-1-11z" fill="#2c2515"/><path d="M735 348c3.35111834 2.23407889 4.81553956 3.26215824 5.8125 7.25L741 358c-3.48331435-3.01887244-4.79157144-5.56909529-6-10z" fill="#2c1403"/><path d="M601 261c2.96844435-.35338623 5.15598218-.5417682 7.734375 1.11328125L613 266c-3.23655184 0-4.78752639-.6550847-7.6875-2l-2.44921875-1.125L601 262v-1z" fill="#0e0801"/><path d="M702 258c3.98175544 2.10148204 6.35039045 4.36905358 9 8-2.9375-.75-2.9375-.75-6-2-.875-2.125-.875-2.125-1-4h-2v-2z" fill="#e3c669"/><path d="M627 212l5 2v2l6 2c-3 1-3 1-6.0625-.1875-2.9248012-1.80466457-3.84398447-2.64130497-4.9375-5.8125z" fill="#edcd66"/><path d="M377 737l4.875 1.875 2.7421875 1.0546875C387 741 387 741 389 743c-4.38889325-.66498383-7.9811485-2.18757677-12-4v-2z" fill="#191003"/><path d="M714 692c0 3 0 3-2.25 5.625-2.47881204 2.14079221-3.58568489 3.02340943-6.75 3.375 2.68058098-3.57410797 5.42589203-6.31941902 9-9z" fill="#2b1c05"/><path d="M643 624v8l-5-5c2.75-3 2.75-3 5-3z" fill="#ccced0"/><path d="M238 574c2.62386487 3.06117568 3 3.73173127 3 8l-3-1-1-6 1-1z" fill="#e8c45e"/><path d="M506 430h6v3h-7l1-3z" fill="#eaebe9"/><path d="M741 355l1.8125 2.3125c2.02754112 2.60085259 2.02754112 2.60085259 3.9375 4.375C748 363 748 363 748 365h-2c-5-5.23809524-5-5.23809524-5-10z" fill="#8c4c0f"/><path d="M767 337h2l4 7-1 4-5-11z" fill="#1c1605"/><path d="M293 301l3 1-2.375 3.5-1.3359375 1.96875L291 309h-2c.3125-2.875.3125-2.875 1-6l3-2z" fill="#e8ce6d"/><path d="M304 275l1 3c-1.25 2.1875-1.25 2.1875-3 4h-3c1.29299694-2.88437779 2.65941363-4.87219421 5-7z" fill="#e0d59c"/><path d="M367 731l10 5c-4 1-4 1-7.25-.8125L367 733v-2z" fill="#191202"/><path d="M743 361l3 2v2l2 1h-2v6h-1l-2-11z" fill="#bc7933"/><path d="M616 308c2.15377564 2.62198774 3.40072174 4.64404172 4 8h-4v-8z" fill="#e4ce70"/><path d="M710 263l5 1 1 6-6-5v-2z" fill="#2b2417"/><path d="M604 260c2.66355234-.39169887 4.39224373-.40564529 6.66796875 1.11328125L615 265l-2 2-4.39453125-3.7109375C607.1344954 262.10798901 605.56962206 261.04641471 604 260z" fill="#d8bd5f"/><path d="M501 242v2c-3.41831915 2.5393228-5.75776898 3.3636198-10 3 6.36363636-5 6.36363636-5 10-5z" fill="#181a08"/><path d="M527 224l4 1c-2.17424117 2.50037734-3.73045798 3.43628586-7 4 1.875-3.875 1.875-3.875 3-5z" fill="#fcdb3d"/><path d="M408 750l4.375.375 2.4609375.2109375C417 751 417 751 419 753c-3.40931897 1.13643966-4.00335456.86747764-7.1875-.4375l-2.16796875-.87109375L408 751v-1z" fill="#cfad40"/><path d="M697 669h3c-1.22934015 3.68802044-2.93859378 4.72356973-6 7 0-3.52809907.64276511-4.46815512 3-7z" fill="#e38714"/><path d="M281 655h2v2l1.9375.6875C287 659 287 659 287.75 661.625L288 664c-2.96404505-2.80804268-5.44499019-5.18315774-7-9z" fill="#d1b059"/><path d="M270 641c2.96404505 2.80804268 5.44499019 5.18315774 7 9h-3c-4-6.75-4-6.75-4-9z" fill="#1d1408"/><path d="M786 641l1 4-6 5c1.2491742-3.45925163 2.67527795-6.14693203 5-9z" fill="#c8ced6"/><path d="M253 608c2.89932357 2.39509338 3.50168276 4.31245243 4 8l-4-2v-6z" fill="#e9c353"/><path d="M246 435h2l1 9-2-1c-.59355614-2.64860427-.74209269-5.29197322-1-8z" fill="#f7d057"/><path d="M642 357h6v1h-5l.5625 2.375C644 363 644 363 643 365h-2l1-8z" fill="#b9c3ca"/><path d="M574 355l1 3-4 4-3-1 6-6z" fill="#11191f"/><path d="M274 314l2 1-6 7-1-3 5-5z" fill="#f3d461"/><path d="M589 197c2.4375.75 2.4375.75 5 2l2.3125 1.125L598 201c-2.81814566 1.40907283-4.17277204.50872691-7.125-.4375l-2.7578125-.87109375L586 199l3-2z" fill="#2c2b15"/><path d="M451 193h8l-1 2c-2.64860427.59355614-5.29197322.74209269-8 1l1-3z" fill="#090d0b"/><path d="M292 705l7 6-3 1-1-3-3-1v-3z" fill="#bdc4c7"/><path d="M794 331c2.46278801 2.46278801 2.99771255 4.70676982 4 8l-2 1-3-6 1-3z" fill="#d8d8e4"/><path d="M610 298c3.08089673 2.77280706 4.68775452 5.06326356 6 9h-3l-3-9z" fill="#e6d37e"/><path d="M302 294c0 3.10551666-.5393715 4.35261084-2 7l-4-1 6-6z" fill="#1b160b"/><path d="M356 259l3 1-4 4h-3v-2l4-1v-2z" fill="#f8f0c8"/><path d="M514 200h1v10l-5 1 1.4375-1c2.42041615-3.09813267 2.24448917-6.12026792 2.5625-10z" fill="#f3d581"/></svg>